<?xml version="1.0" encoding="UTF-8"?>
<svg id="Layer_2" data-name="Layer 2" xmlns="http://www.w3.org/2000/svg" xmlns:xlink="http://www.w3.org/1999/xlink" viewBox="0 0 1196.97 193.29">
  <defs>
    <style>
      .cls-1, .cls-2, .cls-3, .cls-4, .cls-5, .cls-6, .cls-7, .cls-8, .cls-9 {
        stroke-width: 0px;
      }

      .cls-1, .cls-5 {
        fill: #97daff;
      }

      .cls-10 {
        letter-spacing: -.03em;
      }

      .cls-11 {
        fill: #545454;
        font-family: LexendDeca-Light, 'Lexend Deca';
        font-size: 13.1px;
        font-variation-settings: 'wght' 300;
        font-weight: 300;
      }

      .cls-12 {
        letter-spacing: -.02em;
      }

      .cls-13 {
        letter-spacing: -.02em;
      }

      .cls-14 {
        letter-spacing: -.01em;
      }

      .cls-15 {
        letter-spacing: -.02em;
      }

      .cls-2 {
        filter: url(#drop-shadow-2);
      }

      .cls-2, .cls-3, .cls-6, .cls-8, .cls-9 {
        fill: #f2f2f2;
      }

      .cls-16 {
        letter-spacing: 0em;
      }

      .cls-3 {
        filter: url(#drop-shadow-5);
      }

      .cls-17 {
        letter-spacing: 0em;
      }

      .cls-18 {
        letter-spacing: .05em;
      }

      .cls-19 {
        letter-spacing: -.11em;
      }

      .cls-4, .cls-20 {
        fill: #21255e;
      }

      .cls-5 {
        fill-rule: evenodd;
      }

      .cls-6 {
        filter: url(#drop-shadow-3);
      }

      .cls-7, .cls-21 {
        fill: #fff;
      }

      .cls-22 {
        letter-spacing: -.02em;
      }

      .cls-23 {
        letter-spacing: 0em;
      }

      .cls-24 {
        letter-spacing: 0em;
      }

      .cls-25 {
        letter-spacing: 0em;
      }

      .cls-26 {
        letter-spacing: -.05em;
      }

      .cls-27 {
        letter-spacing: 0em;
      }

      .cls-28 {
        letter-spacing: -.11em;
      }

      .cls-20 {
        font-family: LexendDeca-ExtraLight, 'Lexend Deca';
        font-size: 29.17px;
        font-variation-settings: 'wght' 200;
        font-weight: 200;
      }

      .cls-29 {
        letter-spacing: .02em;
      }

      .cls-8 {
        filter: url(#drop-shadow-1);
      }

      .cls-30 {
        letter-spacing: -.01em;
      }

      .cls-9 {
        filter: url(#drop-shadow-4);
      }

      .cls-31 {
        fill: none;
        stroke: #21255e;
        stroke-miterlimit: 10;
      }

      .cls-32 {
        letter-spacing: -.01em;
      }

      .cls-33 {
        letter-spacing: -.02em;
      }

      .cls-34 {
        letter-spacing: -.02em;
      }

      .cls-35 {
        letter-spacing: -.01em;
      }

      .cls-21 {
        font-family: LexendDeca-Bold, 'Lexend Deca';
        font-size: 18.18px;
        font-variation-settings: 'wght' 700;
        font-weight: 700;
      }

      .cls-36 {
        letter-spacing: -.06em;
      }
    </style>
    <filter id="drop-shadow-1" filterUnits="userSpaceOnUse">
      <feOffset dx="2" dy="2"/>
      <feGaussianBlur result="blur" stdDeviation="3"/>
      <feFlood flood-color="#000" flood-opacity=".06"/>
      <feComposite in2="blur" operator="in"/>
      <feComposite in="SourceGraphic"/>
    </filter>
    <filter id="drop-shadow-2" filterUnits="userSpaceOnUse">
      <feOffset dx="2" dy="2"/>
      <feGaussianBlur result="blur-2" stdDeviation="3"/>
      <feFlood flood-color="#000" flood-opacity=".06"/>
      <feComposite in2="blur-2" operator="in"/>
      <feComposite in="SourceGraphic"/>
    </filter>
    <filter id="drop-shadow-3" filterUnits="userSpaceOnUse">
      <feOffset dx="2" dy="2"/>
      <feGaussianBlur result="blur-3" stdDeviation="3"/>
      <feFlood flood-color="#000" flood-opacity=".06"/>
      <feComposite in2="blur-3" operator="in"/>
      <feComposite in="SourceGraphic"/>
    </filter>
    <filter id="drop-shadow-4" filterUnits="userSpaceOnUse">
      <feOffset dx="2" dy="2"/>
      <feGaussianBlur result="blur-4" stdDeviation="3"/>
      <feFlood flood-color="#000" flood-opacity=".06"/>
      <feComposite in2="blur-4" operator="in"/>
      <feComposite in="SourceGraphic"/>
    </filter>
    <filter id="drop-shadow-5" filterUnits="userSpaceOnUse">
      <feOffset dx="2" dy="2"/>
      <feGaussianBlur result="blur-5" stdDeviation="3"/>
      <feFlood flood-color="#000" flood-opacity=".06"/>
      <feComposite in2="blur-5" operator="in"/>
      <feComposite in="SourceGraphic"/>
    </filter>
  </defs>
  <g id="Layer_1-2" data-name="Layer 1">
    <g>
      <g>
        <rect class="cls-8" x="18.57" y="82.16" width="181.86" height="99.92"/>
        <g>
          <path class="cls-4" d="M188.51,18.57H40.21c0,11.95-9.69,21.64-21.64,21.64v44.27c0,6.58,5.33,11.91,11.91,11.91h158.04c6.58,0,11.91-5.33,11.91-11.91V30.48c0-6.58-5.33-11.91-11.91-11.91Z"/>
          <path class="cls-31" d="M18.57,36.63C8.6,36.63.5,28.53.5,18.57S8.6.5,18.57.5s18.07,8.1,18.07,18.07-8.1,18.07-18.07,18.07Z"/>
        </g>
        <g>
          <g>
            <path class="cls-5" d="M71.82,43.8h0c-.15-.15-.46,0-.61.32,0,0,.91-4.58.15-6.41-1.36-5.04-12.99-6.43-12.99-3.36-5.06,1.51-4.13,6.09-3.36,9.77,0,0-.32-.46-.93,0-.46.61.16,1.97.32,2.58.15.46.29.93.44,1.07v.17c0,.61.17.9.46.9h0c1.22,4.43,4.75,8.09,7.8,8.09s6.43-3.65,7.65-8.09c.16,0,.46-.29.46-.9h0c.15-.32.29-.63.46-1.24.15-.61.76-2.44.15-2.9h0Z"/>
            <path class="cls-5" d="M82.36,71.01c-.11-12.01-4.86-9.24-13.92-14.22-1.51,1.35-3.32,2.41-5.42,2.44-2.1-.02-3.92-1.09-5.42-2.44-9.06,4.98-13.81,2.22-13.92,14.22,0,.15,0,.29,0,.44h38.69c0-.15,0-.3,0-.44Z"/>
          </g>
          <g>
            <path class="cls-1" d="M48.12,79.72c-.36,0-.67-.04-.95-.12-.27-.08-.51-.19-.72-.34-.21-.14-.39-.31-.55-.51l.85-.95c.23.29.46.48.71.57.25.09.48.14.69.14.09,0,.16,0,.23-.02.07-.02.12-.04.16-.08.04-.04.05-.09.05-.15,0-.06-.02-.11-.06-.15-.04-.04-.09-.08-.15-.11-.06-.03-.13-.05-.21-.07-.07-.02-.15-.04-.22-.05-.07-.01-.13-.03-.19-.04-.27-.06-.51-.14-.71-.23-.2-.09-.37-.2-.51-.33-.14-.13-.24-.27-.3-.43-.07-.16-.1-.35-.1-.55,0-.23.05-.44.16-.63.11-.19.25-.35.43-.49.18-.14.38-.24.61-.31.23-.07.46-.11.71-.11.36,0,.65.03.89.1.24.07.44.16.6.28s.3.26.42.43l-.85.82c-.1-.09-.2-.17-.31-.23s-.22-.11-.34-.14c-.12-.03-.23-.04-.34-.04-.1,0-.19,0-.26.02-.07.02-.13.04-.17.07-.04.03-.06.08-.06.14s.03.11.08.15c.05.04.12.07.2.1.08.03.16.05.24.06.08.02.15.03.2.04.25.05.48.11.68.19.21.08.39.18.55.3.16.12.28.27.36.45.08.18.13.39.13.63,0,.35-.09.64-.26.87-.17.23-.41.41-.7.53-.29.12-.62.18-.98.18Z"/>
            <path class="cls-1" d="M50.77,79.65v-1.19h.83v-2.37h-.83v-1.19h3.13v1.19h-.83v2.37h.83v1.19h-3.13Z"/>
            <path class="cls-1" d="M57.12,79.72c-.41,0-.77-.06-1.08-.18-.31-.12-.58-.29-.8-.51-.22-.22-.38-.48-.49-.79-.11-.3-.17-.63-.17-.99s.06-.69.19-.99c.12-.3.3-.56.54-.78.23-.22.51-.39.84-.51.32-.12.68-.18,1.08-.18.28,0,.53.03.77.1.24.07.45.16.64.27.19.12.36.25.5.39l-.87.92c-.09-.09-.19-.16-.29-.23-.1-.07-.22-.12-.35-.16-.13-.04-.27-.06-.43-.06s-.31.03-.45.09-.25.15-.35.25c-.1.11-.18.24-.23.39-.06.15-.08.32-.08.49s.03.34.09.49c.06.15.14.28.24.39.1.11.23.19.37.25.14.06.3.09.47.09.12,0,.22-.02.32-.06.1-.04.18-.09.25-.16.07-.07.13-.14.17-.24.04-.09.06-.19.06-.3v-.2l.19.33h-1.21v-1.03h2.33s.01.13.02.24c0,.11.01.22.01.34,0,.11,0,.19,0,.23,0,.3-.06.58-.17.84-.11.26-.27.48-.48.66-.21.19-.45.33-.73.43-.28.1-.59.16-.92.16Z"/>
            <path class="cls-1" d="M60.23,79.65v-4.74h1.31l2.18,3.01-.31-.09c-.02-.18-.04-.34-.06-.47-.02-.14-.03-.26-.04-.38-.01-.12-.02-.23-.03-.34,0-.11-.01-.24-.01-.37v-1.36h1.41v4.74h-1.32l-2.41-3.32.55.16c.02.17.04.31.06.44.02.12.03.24.04.34,0,.1.02.21.02.31,0,.1.01.21.01.34,0,.12,0,.27,0,.44v1.29h-1.41Z"/>
            <path class="cls-1" d="M70.25,79.69c-.41,0-.78-.08-1.09-.24-.32-.16-.57-.38-.75-.66-.18-.28-.27-.6-.27-.96v-2.92h1.48v2.86c0,.13.03.25.08.35.05.1.13.18.23.24.1.06.21.09.33.09.13,0,.25-.03.35-.09.1-.06.18-.14.24-.24.06-.1.09-.22.09-.35v-2.86h1.44v2.92c0,.36-.09.68-.27.96-.18.28-.43.5-.75.66-.32.16-.68.24-1.09.24Z"/>
            <path class="cls-1" d="M73.44,79.65v-4.74h2.13c.33,0,.61.07.87.21.25.14.45.33.6.58.14.24.22.52.22.84s-.07.62-.22.88c-.14.26-.34.46-.6.61-.25.15-.54.22-.87.22h-.67v1.41h-1.46ZM74.88,77h.43c.09,0,.16-.02.23-.05.07-.03.12-.08.16-.15.04-.06.06-.14.06-.24s-.02-.17-.06-.23c-.04-.06-.09-.1-.16-.13-.07-.03-.14-.04-.23-.04h-.43v.84Z"/>
          </g>
          <path class="cls-1" d="M81.75,86.46c-2.58,0-4.67-2.1-4.67-4.67s2.1-4.67,4.67-4.67,4.67,2.1,4.67,4.67-2.1,4.67-4.67,4.67Z"/>
          <path class="cls-1" d="M82.37,72.46v3.73c-.2-.02-.41-.04-.61-.04-.11,0-.21,0-.32,0v-2.75h-36.82v7.95h31.53c0,.14-.02.27-.02.42,0,.18,0,.36.03.54h-32.47v-9.87h38.69Z"/>
          <polygon class="cls-4" points="78.89 79.07 81.33 84.74 82.09 82.89 83.77 84.57 84.44 83.89 82.76 82.21 84.62 81.45 78.89 79.07"/>
        </g>
        <text class="cls-11" transform="translate(45.44 118.56)"><tspan x="0" y="0">Cus</tspan><tspan class="cls-25" x="22.76" y="0">t</tspan><tspan x="27.56" y="0">omers c</tspan><tspan class="cls-13" x="76.54" y="0">r</tspan><tspan x="81.14" y="0">ea</tspan><tspan class="cls-25" x="96.62" y="0">t</tspan><tspan x="101.42" y="0">e an </tspan><tspan x=".31" y="15.72">account and p</tspan><tspan class="cls-13" x="89.51" y="15.72">r</tspan><tspan class="cls-14" x="94.11" y="15.72">o</tspan><tspan x="101.87" y="15.72">vide </tspan><tspan x="-5.65" y="31.45">basic de</tspan><tspan class="cls-25" x="46.32" y="31.45">t</tspan><tspan x="51.12" y="31.45">ails </tspan><tspan class="cls-25" x="75.53" y="31.45">t</tspan><tspan x="80.32" y="31.45">o access </tspan><tspan x="24.3" y="47.17">the p</tspan><tspan class="cls-16" x="55.89" y="47.17">l</tspan><tspan x="58.71" y="47.17">a</tspan><tspan class="cls-12" x="66.83" y="47.17">t</tspan><tspan class="cls-22" x="71.37" y="47.17">f</tspan><tspan x="76.06" y="47.17">orm.</tspan></text>
        <text class="cls-20" transform="translate(12.01 27.42)"><tspan x="0" y="0">1</tspan></text>
        <text class="cls-21" transform="translate(94.15 63.62)"><tspan x="0" y="0">Sign Up</tspan></text>
      </g>
      <g>
        <rect class="cls-2" x="264.82" y="82.16" width="181.86" height="99.92"/>
        <g>
          <path class="cls-4" d="M434.77,18.57h-148.31c0,11.95-9.69,21.64-21.64,21.64v44.27c0,6.58,5.33,11.91,11.91,11.91h158.04c6.58,0,11.91-5.33,11.91-11.91V30.48c0-6.58-5.33-11.91-11.91-11.91Z"/>
          <path class="cls-31" d="M264.82,36.63c-9.96,0-18.07-8.1-18.07-18.07S254.86.5,264.82.5s18.07,8.1,18.07,18.07-8.1,18.07-18.07,18.07Z"/>
        </g>
        <text class="cls-20" transform="translate(256.33 27.42)"><tspan x="0" y="0">2</tspan></text>
        <text class="cls-11" transform="translate(299.83 118.56)"><tspan x="0" y="0">Cus</tspan><tspan class="cls-25" x="22.76" y="0">t</tspan><tspan x="27.56" y="0">omers submit </tspan><tspan x="-1.62" y="15.72">p</tspan><tspan class="cls-13" x="6.53" y="15.72">r</tspan><tspan x="11.13" y="15.72">oject de</tspan><tspan class="cls-25" x="60.46" y="15.72">t</tspan><tspan x="65.26" y="15.72">ails and </tspan><tspan class="cls-13" x="-16.69" y="31.45">r</tspan><tspan x="-12.09" y="31.45">equi</tspan><tspan class="cls-13" x="14.41" y="31.45">r</tspan><tspan x="19.01" y="31.45">emen</tspan><tspan class="cls-29" x="53.23" y="31.45">t</tspan><tspan x="58.35" y="31.45">s </tspan><tspan class="cls-25" x="68.3" y="31.45">t</tspan><tspan x="73.09" y="31.45">o </tspan><tspan class="cls-13" x="84.71" y="31.45">r</tspan><tspan x="89.31" y="31.45">ecei</tspan><tspan class="cls-14" x="114.33" y="31.45">v</tspan><tspan x="121.18" y="31.45">e </tspan><tspan class="cls-13" x="-19.17" y="47.17">r</tspan><tspan x="-14.57" y="47.17">esponses f</tspan><tspan class="cls-13" x="51.26" y="47.17">r</tspan><tspan x="55.86" y="47.17">om bui</tspan><tspan class="cls-16" x="98.55" y="47.17">l</tspan><tspan x="101.37" y="47.17">ders.</tspan></text>
        <g>
          <rect class="cls-7" x="299.77" y="59.34" width="25.4" height="1.71"/>
          <rect class="cls-7" x="299.77" y="64.43" width="16.54" height="1.71"/>
          <rect class="cls-7" x="299.77" y="69.51" width="16.54" height="1.71"/>
          <path class="cls-1" d="M319.34,75.49c0-4.38,3.56-7.94,7.94-7.94.8,0,1.58.12,2.31.34v-31.26h-34.23v43.88h25.78c-1.12-1.37-1.8-3.12-1.8-5.03Z"/>
          <circle class="cls-1" cx="327.28" cy="75.49" r="6.83"/>
          <polygon class="cls-4" points="330.61 71.78 326.16 76.22 323.94 74 322.46 75.48 326.16 79.19 332.09 73.26 330.61 71.78"/>
          <g>
            <rect class="cls-4" x="299.77" y="41.49" width="25.4" height="1.96"/>
            <rect class="cls-4" x="299.77" y="47.32" width="25.4" height="1.96"/>
            <rect class="cls-4" x="299.77" y="53.14" width="25.4" height="1.96"/>
            <rect class="cls-4" x="299.77" y="58.96" width="25.4" height="1.96"/>
            <rect class="cls-4" x="299.77" y="64.79" width="16.54" height="1.96"/>
            <rect class="cls-4" x="299.77" y="70.61" width="16.54" height="1.96"/>
          </g>
        </g>
        <text class="cls-21" transform="translate(341.3 63.62)"><tspan class="cls-15" x="0" y="0">R</tspan><tspan x="12.4" y="0">equest</tspan></text>
      </g>
      <g>
        <rect class="cls-6" x="511.05" y="82.16" width="181.86" height="99.92"/>
        <g>
          <path class="cls-4" d="M681.02,18.57h-148.31c0,11.95-9.69,21.64-21.64,21.64v44.27c0,6.58,5.33,11.91,11.91,11.91h158.04c6.58,0,11.91-5.33,11.91-11.91V30.48c0-6.58-5.33-11.91-11.91-11.91Z"/>
          <path class="cls-31" d="M511.08,36.63c-9.96,0-18.07-8.1-18.07-18.07S501.12.5,511.08.5s18.07,8.1,18.07,18.07-8.1,18.07-18.07,18.07Z"/>
        </g>
        <text class="cls-20" transform="translate(503.28 27.4)"><tspan x="0" y="0">3</tspan></text>
        <text class="cls-11" transform="translate(528.17 118.56)"><tspan x="0" y="0">Cus</tspan><tspan class="cls-25" x="22.76" y="0">t</tspan><tspan x="27.56" y="0">omers ma</tspan><tspan class="cls-13" x="89.71" y="0">k</tspan><tspan x="96.47" y="0">e secu</tspan><tspan class="cls-13" x="135.66" y="0">r</tspan><tspan x="140.26" y="0">e </tspan><tspan x="1.85" y="15.72">p</tspan><tspan class="cls-30" x="10" y="15.72">a</tspan><tspan x="17.97" y="15.72">ymen</tspan><tspan class="cls-29" x="52.01" y="15.72">t</tspan><tspan x="57.14" y="15.72">s that a</tspan><tspan class="cls-13" x="104.27" y="15.72">r</tspan><tspan x="108.87" y="15.72">e he</tspan><tspan class="cls-16" x="134.82" y="15.72">l</tspan><tspan x="137.63" y="15.72">d </tspan><tspan x="6.73" y="31.45">in esc</tspan><tspan class="cls-13" x="41.87" y="31.45">r</tspan><tspan class="cls-34" x="46.47" y="31.45">o</tspan><tspan x="54.17" y="31.45">w until p</tspan><tspan class="cls-13" x="106.13" y="31.45">r</tspan><tspan x="110.73" y="31.45">oject </tspan><tspan x="37.88" y="47.17">comp</tspan><tspan class="cls-16" x="72.82" y="47.17">l</tspan><tspan x="75.63" y="47.17">etion.</tspan></text>
        <g>
          <path class="cls-1" d="M559.54,38.78c-2.73,0-5.34.53-7.73,1.48.24.87.37,1.78.37,2.72,0,5.68-4.61,10.29-10.29,10.29-.75,0-1.48-.08-2.19-.24-.71,2.1-1.1,4.35-1.1,6.69,0,11.57,9.38,20.94,20.94,20.94s20.94-9.38,20.94-20.94-9.38-20.94-20.94-20.94Z"/>
          <path class="cls-1" d="M541.89,51.9c-4.92,0-8.92-4-8.92-8.92s4-8.92,8.92-8.92,8.92,4,8.92,8.92-4,8.92-8.92,8.92Z"/>
          <path class="cls-4" d="M546.22,44.42c0-1.05-.37-2.01-1-2.76v-2.58c-.19-1.67-1.61-2.98-3.33-2.98s-3.14,1.3-3.33,2.98v2.58c-.62.75-1,1.71-1,2.76,0,2.36,1.89,4.28,4.23,4.33.03,0,.06,0,.09,0s.06,0,.09,0c2.35-.05,4.23-1.97,4.23-4.33ZM539.55,39.08c.18-1.13,1.16-1.99,2.34-1.99s2.16.86,2.34,1.99v1.7c-.67-.43-1.48-.69-2.34-.69s-1.66.25-2.34.69v-1.7ZM541.07,46.85c-.11,0-.18-.12-.16-.26l.38-2c-.25-.18-.41-.48-.41-.81,0-.55.45-1,1-1s1,.45,1,1c0,.33-.16.63-.41.81l.38,2c.03.13-.05.26-.16.26h-1.63Z"/>
          <g>
            <path class="cls-4" d="M559.97,71.74c-1.52,0-2.9-.18-4.12-.55-1.23-.36-2.31-.89-3.26-1.59-.95-.7-1.8-1.52-2.55-2.47l3.41-3.87c1.1,1.48,2.21,2.47,3.33,2.98,1.11.51,2.27.76,3.46.76.6,0,1.14-.08,1.62-.23.49-.15.86-.38,1.13-.68s.4-.67.4-1.11c0-.33-.08-.63-.25-.89-.17-.26-.39-.5-.68-.7-.29-.2-.63-.38-1.03-.55-.4-.17-.82-.31-1.26-.43-.44-.12-.89-.23-1.36-.31-1.28-.29-2.4-.64-3.34-1.06-.95-.42-1.74-.93-2.37-1.54-.63-.61-1.1-1.3-1.41-2.09-.31-.78-.46-1.66-.46-2.63,0-1.04.24-1.99.71-2.86.47-.87,1.11-1.62,1.92-2.25.81-.63,1.74-1.11,2.8-1.46s2.16-.51,3.31-.51c1.52,0,2.83.16,3.92.48,1.09.32,2.03.78,2.81,1.37.78.6,1.45,1.31,2,2.15l-3.48,3.34c-.46-.57-.97-1.05-1.51-1.42-.54-.38-1.11-.66-1.72-.86-.61-.2-1.23-.3-1.87-.3s-1.23.08-1.71.25c-.47.17-.84.4-1.11.7s-.4.66-.4,1.08c0,.38.11.7.33.96.22.26.52.5.89.71.38.21.81.39,1.29.53.49.14.99.26,1.52.35,1.21.24,2.31.56,3.29.96.98.4,1.83.88,2.55,1.46.72.57,1.27,1.25,1.66,2.04.39.78.58,1.69.58,2.73,0,1.61-.39,2.97-1.18,4.09-.78,1.11-1.85,1.96-3.21,2.55-1.36.58-2.92.88-4.68.88Z"/>
            <g>
              <rect class="cls-4" x="557.3" y="44.37" width="4.49" height="4.83"/>
              <rect class="cls-4" x="557.3" y="70.25" width="4.49" height="4.83"/>
            </g>
          </g>
        </g>
        <text class="cls-21" transform="translate(587.55 55.28)"><tspan x="0" y="0">Esc</tspan><tspan class="cls-33" x="30.63" y="0">r</tspan><tspan class="cls-15" x="38.5" y="0">o</tspan><tspan x="49.79" y="0">w</tspan><tspan class="cls-24" x="0" y="16.68">P</tspan><tspan class="cls-35" x="11.85" y="16.68">a</tspan><tspan x="23.61" y="16.68">yment</tspan></text>
      </g>
      <g>
        <rect class="cls-9" x="757.33" y="82.16" width="181.86" height="99.92"/>
        <text class="cls-20" transform="translate(746.95 27.4)"><tspan x="0" y="0">4</tspan></text>
        <g>
          <path class="cls-4" d="M927.28,18.57h-148.31c0,11.95-9.69,21.64-21.64,21.64v44.27c0,6.58,5.33,11.91,11.91,11.91h158.04c6.58,0,11.91-5.33,11.91-11.91V30.48c0-6.58-5.33-11.91-11.91-11.91Z"/>
          <path class="cls-31" d="M757.33,36.63c-9.96,0-18.07-8.1-18.07-18.07s8.1-18.07,18.07-18.07,18.07,8.1,18.07,18.07-8.1,18.07-18.07,18.07Z"/>
        </g>
        <text class="cls-11" transform="translate(789.21 118.56)"><tspan x="0" y="0">Cus</tspan><tspan class="cls-25" x="22.76" y="0">t</tspan><tspan x="27.56" y="0">omers moni</tspan><tspan class="cls-25" x="100.48" y="0">t</tspan><tspan x="105.27" y="0">or </tspan><tspan x="-16.92" y="15.72">p</tspan><tspan class="cls-13" x="-8.77" y="15.72">r</tspan><tspan x="-4.17" y="15.72">oject p</tspan><tspan class="cls-13" x="37.81" y="15.72">r</tspan><tspan x="42.41" y="15.72">og</tspan><tspan class="cls-13" x="58.61" y="15.72">r</tspan><tspan x="63.21" y="15.72">ess th</tspan><tspan class="cls-13" x="99.2" y="15.72">r</tspan><tspan x="103.8" y="15.72">o</tspan><tspan class="cls-16" x="111.76" y="15.72">u</tspan><tspan x="119.25" y="15.72">gh </tspan><tspan x="-18.23" y="31.45">upda</tspan><tspan class="cls-25" x="13.8" y="31.45">t</tspan><tspan x="18.6" y="31.45">es f</tspan><tspan class="cls-13" x="40.86" y="31.45">r</tspan><tspan x="45.46" y="31.45">om the se</tspan><tspan class="cls-18" x="106.11" y="31.45">r</tspan><tspan x="111.65" y="31.45">vice </tspan><tspan x="32.64" y="47.17">p</tspan><tspan class="cls-13" x="40.79" y="47.17">r</tspan><tspan class="cls-14" x="45.39" y="47.17">o</tspan><tspan x="53.15" y="47.17">vide</tspan><tspan class="cls-28" x="79.09" y="47.17">r</tspan><tspan x="82.49" y="47.17">.</tspan></text>
        <g>
          <path class="cls-1" d="M797.59,80.07c-2.87-.3-5.54-1.1-8.01-2.4-2.47-1.3-4.61-2.96-6.43-4.98-1.81-2.02-3.24-4.33-4.27-6.94-1.04-2.6-1.55-5.36-1.56-8.26,0-5.85,1.93-10.92,5.8-15.2,3.87-4.28,8.71-6.75,14.52-7.39v4.53c-4.57.64-8.34,2.67-11.32,6.09-2.98,3.42-4.47,7.41-4.47,11.97s1.49,8.56,4.47,11.97c2.98,3.42,6.74,5.45,11.26,6.08v4.53Z"/>
          <path class="cls-1" d="M802.12,80.07v-4.53c1.62-.23,3.18-.66,4.67-1.3,1.49-.64,2.88-1.45,4.16-2.43l3.28,3.28c-1.77,1.4-3.68,2.52-5.72,3.37-2.04.85-4.17,1.39-6.4,1.61"/>
          <path class="cls-1" d="M811.06,43.16c-1.32-.98-2.73-1.79-4.22-2.43s-3.05-1.08-4.67-1.3v-4.53c2.23.23,4.36.76,6.4,1.61,2.04.85,3.92,1.97,5.66,3.37l-3.17,3.28Z"/>
          <path class="cls-1" d="M817.4,71.8l-3.17-3.23c.98-1.28,1.77-2.67,2.38-4.16s1.02-3.05,1.25-4.67h4.64c-.3,2.23-.87,4.37-1.7,6.43-.83,2.06-1.96,3.93-3.4,5.63"/>
          <path class="cls-1" d="M817.86,55.22c-.23-1.62-.64-3.18-1.25-4.67-.6-1.49-1.4-2.88-2.38-4.16l3.17-3.23c1.43,1.7,2.58,3.58,3.45,5.63.87,2.06,1.42,4.2,1.64,6.42h-4.64Z"/>
          <g>
            <g>
              <path class="cls-1" d="M805.86,68.65h0c-.7.55-1.71.43-2.26-.26l-10.52-13.31,2.52-2,10.52,13.31c.55.7.43,1.71-.26,2.26Z"/>
              <path class="cls-1" d="M801.09,49.38l-.73.58s-2.27-1.59-4.81-.37c-.63.3-.88,1.06-.58,1.68l.8,1.67-2.77,2.19-2.54-1.71-1.79-2.26,3.56-2.81c.48-.38,1.06-.63,1.66-.71,1.77-.25,5.46-.47,7.2,1.74Z"/>
              <path class="cls-1" d="M790.46,53.43c-1.78.04-1.97,1.56-1.97,1.56l-1.79-2.26c1.78-.04,1.97-1.56,1.97-1.56l1.79,2.26Z"/>
              <rect class="cls-1" x="785.4" y="52.65" width="2.47" height="3.92" rx=".53" ry=".53" transform="translate(135.6 499.5) rotate(-38.32)"/>
              <rect class="cls-1" x="785.4" y="52.65" width="2.47" height="3.92" rx=".53" ry=".53" transform="translate(135.6 499.5) rotate(-38.32)"/>
            </g>
            <g>
              <path class="cls-1" d="M811.5,56.62l-3.16.81c-.64.16-1.32-.02-1.79-.5l-2.29-2.33c-.46-.47-.64-1.16-.46-1.8l.88-3.15c.18-.64.68-1.13,1.33-1.3l3.16-.81c.17-.04.34-.06.5-.06.57.01.85.7.44,1.1l-2.99,2.93c-.41.4-.41,1.05-.01,1.46l1.13,1.16c.4.41,1.05.41,1.46.01l2.99-2.93c.39-.39,1.07-.13,1.09.42,0,.18-.02.36-.07.54l-.88,3.15c-.18.64-.68,1.13-1.33,1.3Z"/>
              <path class="cls-1" d="M792.8,68.43h0c-.72-.73-.71-1.91.01-2.63l12.7-12.67,2.62,2.67-12.67,12.65c-.74.73-1.93.73-2.66-.01Z"/>
            </g>
          </g>
        </g>
        <text class="cls-21" transform="translate(830.6 46.94)"><tspan class="cls-26" x="0" y="0">J</tspan><tspan x="11.18" y="0">ob </tspan><tspan x="0" y="16.68">E</tspan><tspan class="cls-10" x="11.72" y="16.68">x</tspan><tspan x="22.19" y="16.68">ecution</tspan><tspan class="cls-36" x="0" y="33.35">T</tspan><tspan class="cls-33" x="10.82" y="33.35">r</tspan><tspan x="18.69" y="33.35">acking</tspan></text>
      </g>
      <g>
        <rect class="cls-4" x="216.72" y="123.64" width="27.44" height="4.5"/>
        <polygon class="cls-4" points="239.79 125.89 239.79 120.84 244.16 123.37 248.53 125.89 244.16 128.42 239.79 130.94 239.79 125.89"/>
      </g>
      <g>
        <rect class="cls-4" x="462.97" y="123.64" width="27.44" height="4.5"/>
        <polygon class="cls-4" points="486.04 125.89 486.04 120.84 490.41 123.37 494.79 125.89 490.41 128.42 486.04 130.94 486.04 125.89"/>
      </g>
      <g>
        <rect class="cls-4" x="709.23" y="123.64" width="27.44" height="4.5"/>
        <polygon class="cls-4" points="732.3 125.89 732.3 120.84 736.67 123.37 741.04 125.89 736.67 128.42 732.3 130.94 732.3 125.89"/>
      </g>
      <g>
        <rect class="cls-4" x="955.48" y="123.64" width="27.44" height="4.5"/>
        <polygon class="cls-4" points="978.55 125.89 978.55 120.84 982.93 123.37 987.3 125.89 982.93 128.42 978.55 130.94 978.55 125.89"/>
      </g>
      <g>
        <rect class="cls-3" x="1003.59" y="82.16" width="181.86" height="99.92"/>
        <g>
          <path class="cls-4" d="M1173.54,18.57h-148.31c0,11.95-9.69,21.64-21.64,21.64v44.27c0,6.58,5.33,11.91,11.91,11.91h158.04c6.58,0,11.91-5.33,11.91-11.91V30.48c0-6.58-5.33-11.91-11.91-11.91Z"/>
          <path class="cls-31" d="M1003.59,36.63c-9.96,0-18.07-8.1-18.07-18.07s8.1-18.07,18.07-18.07,18.07,8.1,18.07,18.07-8.1,18.07-18.07,18.07Z"/>
        </g>
        <text class="cls-21" transform="translate(1079 46.94)"><tspan x="0" y="0">Comp</tspan><tspan class="cls-24" x="53.73" y="0">l</tspan><tspan x="59.08" y="0">e</tspan><tspan class="cls-17" x="69.73" y="0">t</tspan><tspan x="76.87" y="0">e</tspan><tspan x="0" y="16.68">and </tspan><tspan class="cls-15" x="0" y="33.35">R</tspan><tspan class="cls-24" x="12.4" y="33.35">e</tspan><tspan x="22.87" y="33.35">vi</tspan><tspan class="cls-27" x="39.66" y="33.35">e</tspan><tspan class="cls-23" x="50.13" y="33.35">w</tspan></text>
        <text class="cls-20" transform="translate(995.35 27.4)"><tspan x="0" y="0">5</tspan></text>
        <text class="cls-11" transform="translate(1037.74 118.56)"><tspan x="0" y="0">Cus</tspan><tspan class="cls-25" x="22.76" y="0">t</tspan><tspan x="27.56" y="0">omers </tspan><tspan class="cls-13" x="69.64" y="0">r</tspan><tspan x="74.24" y="0">e</tspan><tspan class="cls-16" x="81.61" y="0">l</tspan><tspan x="84.43" y="0">ease </tspan><tspan x="-8.39" y="15.72">p</tspan><tspan class="cls-30" x="-.24" y="15.72">a</tspan><tspan x="7.73" y="15.72">yment and </tspan><tspan class="cls-16" x="77.78" y="15.72">l</tspan><tspan x="80.6" y="15.72">e</tspan><tspan class="cls-30" x="87.96" y="15.72">a</tspan><tspan class="cls-14" x="95.93" y="15.72">v</tspan><tspan x="102.78" y="15.72">e a </tspan><tspan class="cls-13" x="-9.1" y="31.45">r</tspan><tspan class="cls-16" x="-4.5" y="31.45">e</tspan><tspan x="2.73" y="31.45">vi</tspan><tspan class="cls-16" x="13.18" y="31.45">e</tspan><tspan x="20.41" y="31.45">w </tspan><tspan class="cls-34" x="34.18" y="31.45">f</tspan><tspan x="38.87" y="31.45">or the bui</tspan><tspan class="cls-32" x="97.96" y="31.45">l</tspan><tspan x="100.77" y="31.45">de</tspan><tspan class="cls-19" x="116.27" y="31.45">r</tspan><tspan x="119.67" y="31.45">.</tspan></text>
        <g>
          <path class="cls-1" d="M1070.17,65.82v14.42h-45.1v-14.42h12.1c.75.53,1.55,1,2.37,1.4h-13.1v11.62h42.37v-11.62h-13.1c.83-.4,1.62-.87,2.37-1.4h12.1Z"/>
          <g>
            <polygon class="cls-1" points="1039.54 70.26 1040.54 72.29 1042.78 72.61 1041.16 74.19 1041.54 76.42 1039.54 75.37 1037.54 76.42 1037.92 74.19 1036.3 72.61 1038.54 72.29 1039.54 70.26"/>
            <polygon class="cls-1" points="1031.47 70.26 1032.47 72.29 1034.71 72.61 1033.09 74.19 1033.47 76.42 1031.47 75.37 1029.47 76.42 1029.85 74.19 1028.23 72.61 1030.47 72.29 1031.47 70.26"/>
            <polygon class="cls-1" points="1047.62 70.26 1048.62 72.29 1050.85 72.61 1049.23 74.19 1049.62 76.42 1047.62 75.37 1045.61 76.42 1046 74.19 1044.38 72.61 1046.61 72.29 1047.62 70.26"/>
            <polygon class="cls-1" points="1055.69 70.26 1056.69 72.29 1058.93 72.61 1057.31 74.19 1057.69 76.42 1055.69 75.37 1053.69 76.42 1054.07 74.19 1052.45 72.61 1054.69 72.29 1055.69 70.26"/>
            <polygon class="cls-1" points="1063.76 70.26 1064.76 72.29 1067 72.61 1065.38 74.19 1065.76 76.42 1063.76 75.37 1061.76 76.42 1062.14 74.19 1060.52 72.61 1062.76 72.29 1063.76 70.26"/>
          </g>
          <path class="cls-1" d="M1047.62,66.82c-8.85,0-16.05-7.2-16.05-16.05s7.2-16.05,16.05-16.05,16.05,7.2,16.05,16.05-7.2,16.05-16.05,16.05Z"/>
          <polygon class="cls-4" points="1055.99 42.13 1044.82 53.27 1039.24 47.7 1035.54 51.41 1044.82 60.71 1059.69 45.83 1055.99 42.13"/>
        </g>
      </g>
    </g>
  </g>
</svg>