<?xml version="1.0" encoding="UTF-8"?>
<svg id="Layer_2" data-name="Layer 2" xmlns="http://www.w3.org/2000/svg" xmlns:xlink="http://www.w3.org/1999/xlink" viewBox="0 0 1196.97 193.29">
  <defs>
    <style>
      .cls-1 {
        letter-spacing: -.02em;
      }

      .cls-2 {
        letter-spacing: -.03em;
      }

      .cls-3 {
        font-family: LexendDeca-Bold, 'Lexend Deca';
        font-size: 18.18px;
        font-variation-settings: 'wght' 700;
        font-weight: 700;
      }

      .cls-3, .cls-4, .cls-5 {
        fill: #21255e;
      }

      .cls-6 {
        letter-spacing: 0em;
      }

      .cls-7 {
        letter-spacing: 0em;
      }

      .cls-8 {
        letter-spacing: -.02em;
      }

      .cls-9 {
        letter-spacing: -.01em;
      }

      .cls-10 {
        fill: none;
        stroke: #ff7f00;
        stroke-miterlimit: 10;
      }

      .cls-11 {
        letter-spacing: 0em;
      }

      .cls-12 {
        letter-spacing: 0em;
      }

      .cls-13 {
        letter-spacing: -.01em;
      }

      .cls-14, .cls-4, .cls-15, .cls-16, .cls-5, .cls-17, .cls-18, .cls-19, .cls-20 {
        stroke-width: 0px;
      }

      .cls-14, .cls-21 {
        fill: #ff7f00;
      }

      .cls-22 {
        letter-spacing: -.03em;
      }

      .cls-23 {
        letter-spacing: -.02em;
      }

      .cls-24 {
        fill: #545454;
        font-family: LexendDeca-Light, 'Lexend Deca';
        font-size: 12.83px;
        font-variation-settings: 'wght' 300;
        font-weight: 300;
      }

      .cls-25 {
        letter-spacing: -.02em;
      }

      .cls-15 {
        fill: #fff;
      }

      .cls-26 {
        letter-spacing: 0em;
      }

      .cls-27 {
        letter-spacing: 0em;
      }

      .cls-28 {
        letter-spacing: -.02em;
      }

      .cls-29 {
        letter-spacing: .02em;
      }

      .cls-30 {
        letter-spacing: 0em;
      }

      .cls-31 {
        letter-spacing: 0em;
      }

      .cls-32 {
        letter-spacing: -.05em;
      }

      .cls-33 {
        letter-spacing: 0em;
      }

      .cls-16 {
        filter: url(#drop-shadow-2);
      }

      .cls-16, .cls-17, .cls-18, .cls-19, .cls-20 {
        fill: #fff2e9;
      }

      .cls-34 {
        letter-spacing: -.03em;
      }

      .cls-5 {
        fill-rule: evenodd;
      }

      .cls-35 {
        letter-spacing: .02em;
      }

      .cls-17 {
        filter: url(#drop-shadow-5);
      }

      .cls-18 {
        filter: url(#drop-shadow-3);
      }

      .cls-19 {
        filter: url(#drop-shadow-1);
      }

      .cls-36 {
        letter-spacing: -.02em;
      }

      .cls-21 {
        font-family: LexendDeca-ExtraLight, 'Lexend Deca';
        font-size: 29.17px;
        font-variation-settings: 'wght' 200;
        font-weight: 200;
      }

      .cls-37 {
        letter-spacing: -.11em;
      }

      .cls-38 {
        letter-spacing: -.01em;
      }

      .cls-20 {
        filter: url(#drop-shadow-4);
      }

      .cls-39 {
        letter-spacing: -.01em;
      }

      .cls-40 {
        letter-spacing: -.02em;
      }

      .cls-41 {
        letter-spacing: 0em;
      }

      .cls-42 {
        letter-spacing: -.02em;
      }

      .cls-43 {
        letter-spacing: 0em;
      }
    </style>
    <filter id="drop-shadow-1" filterUnits="userSpaceOnUse">
      <feOffset dx="2" dy="2"/>
      <feGaussianBlur result="blur" stdDeviation="3"/>
      <feFlood flood-color="#000" flood-opacity=".06"/>
      <feComposite in2="blur" operator="in"/>
      <feComposite in="SourceGraphic"/>
    </filter>
    <filter id="drop-shadow-2" filterUnits="userSpaceOnUse">
      <feOffset dx="2" dy="2"/>
      <feGaussianBlur result="blur-2" stdDeviation="3"/>
      <feFlood flood-color="#000" flood-opacity=".06"/>
      <feComposite in2="blur-2" operator="in"/>
      <feComposite in="SourceGraphic"/>
    </filter>
    <filter id="drop-shadow-3" filterUnits="userSpaceOnUse">
      <feOffset dx="2" dy="2"/>
      <feGaussianBlur result="blur-3" stdDeviation="3"/>
      <feFlood flood-color="#000" flood-opacity=".06"/>
      <feComposite in2="blur-3" operator="in"/>
      <feComposite in="SourceGraphic"/>
    </filter>
    <filter id="drop-shadow-4" filterUnits="userSpaceOnUse">
      <feOffset dx="2" dy="2"/>
      <feGaussianBlur result="blur-4" stdDeviation="3"/>
      <feFlood flood-color="#000" flood-opacity=".06"/>
      <feComposite in2="blur-4" operator="in"/>
      <feComposite in="SourceGraphic"/>
    </filter>
    <filter id="drop-shadow-5" filterUnits="userSpaceOnUse">
      <feOffset dx="2" dy="2"/>
      <feGaussianBlur result="blur-5" stdDeviation="3"/>
      <feFlood flood-color="#000" flood-opacity=".06"/>
      <feComposite in2="blur-5" operator="in"/>
      <feComposite in="SourceGraphic"/>
    </filter>
  </defs>
  <g id="Layer_1-2" data-name="Layer 1">
    <g>
      <text class="cls-21" transform="translate(256.33 27.42)"><tspan x="0" y="0">2</tspan></text>
      <g>
        <rect class="cls-14" x="216.72" y="123.64" width="27.44" height="4.5"/>
        <polygon class="cls-14" points="239.79 125.89 239.79 120.84 244.16 123.37 248.53 125.89 244.16 128.42 239.79 130.94 239.79 125.89"/>
      </g>
      <g>
        <rect class="cls-14" x="462.97" y="123.64" width="27.44" height="4.5"/>
        <polygon class="cls-14" points="486.04 125.89 486.04 120.84 490.41 123.37 494.79 125.89 490.41 128.42 486.04 130.94 486.04 125.89"/>
      </g>
      <g>
        <rect class="cls-14" x="709.23" y="123.64" width="27.44" height="4.5"/>
        <polygon class="cls-14" points="732.3 125.89 732.3 120.84 736.67 123.37 741.04 125.89 736.67 128.42 732.3 130.94 732.3 125.89"/>
      </g>
      <g>
        <rect class="cls-14" x="955.48" y="123.64" width="27.44" height="4.5"/>
        <polygon class="cls-14" points="978.55 125.89 978.55 120.84 982.93 123.37 987.3 125.89 982.93 128.42 978.55 130.94 978.55 125.89"/>
      </g>
      <g>
        <rect class="cls-19" x="18.57" y="82.16" width="181.86" height="99.92"/>
        <text class="cls-24" transform="translate(36.32 118.36)"><tspan x="0" y="0">Bui</tspan><tspan class="cls-11" x="19.4" y="0">l</tspan><tspan x="22.16" y="0">ders </tspan><tspan class="cls-25" x="51.86" y="0">r</tspan><tspan class="cls-12" x="56.37" y="0">e</tspan><tspan x="63.51" y="0">gis</tspan><tspan class="cls-7" x="81.05" y="0">t</tspan><tspan x="85.75" y="0">er and set </tspan><tspan x="1.81" y="15.4">up a p</tspan><tspan class="cls-25" x="40.38" y="15.4">r</tspan><tspan class="cls-28" x="44.88" y="15.4">o</tspan><tspan x="52.41" y="15.4">fi</tspan><tspan class="cls-11" x="60.59" y="15.4">l</tspan><tspan x="63.34" y="15.4">e sh</tspan><tspan class="cls-23" x="87.68" y="15.4">o</tspan><tspan class="cls-36" x="95.22" y="15.4">w</tspan><tspan x="104.92" y="15.4">casing </tspan><tspan x="7.62" y="30.79">skills, </tspan><tspan class="cls-31" x="42.7" y="30.79">e</tspan><tspan x="49.87" y="30.79">xperience, and </tspan><tspan x="45.9" y="46.19">po</tspan><tspan class="cls-29" x="61.67" y="46.19">r</tspan><tspan class="cls-34" x="66.71" y="46.19">t</tspan><tspan class="cls-23" x="71.15" y="46.19">f</tspan><tspan x="75.75" y="46.19">olio.</tspan></text>
        <path class="cls-14" d="M188.51,18.57H40.21c0,11.95-9.69,21.64-21.64,21.64v44.27c0,6.58,5.33,11.91,11.91,11.91h158.04c6.58,0,11.91-5.33,11.91-11.91V30.48c0-6.58-5.33-11.91-11.91-11.91Z"/>
        <path class="cls-10" d="M18.57,36.63C8.6,36.63.5,28.53.5,18.57S8.6.5,18.57.5s18.07,8.1,18.07,18.07-8.1,18.07-18.07,18.07Z"/>
        <text class="cls-3" transform="translate(84.76 55.45)"><tspan x="0" y="0">Sign Up &amp; </tspan><tspan x="0" y="19.25">Set P</tspan><tspan class="cls-42" x="47.26" y="19.25">r</tspan><tspan class="cls-8" x="55.13" y="19.25">o</tspan><tspan class="cls-26" x="66.42" y="19.25">fi</tspan><tspan class="cls-33" x="79.36" y="19.25">l</tspan><tspan x="84.71" y="19.25">e</tspan></text>
        <text class="cls-21" transform="translate(12.01 27.42)"><tspan x="0" y="0">1</tspan></text>
        <g>
          <g>
            <path class="cls-4" d="M45.65,76.1c-.3,0-.57-.03-.8-.1-.23-.07-.43-.16-.61-.28-.17-.12-.33-.26-.47-.43l.72-.8c.19.24.39.41.6.48.21.08.4.12.59.12.07,0,.14,0,.19-.02.06-.01.1-.04.13-.07.03-.03.05-.07.05-.13,0-.05-.02-.09-.05-.13-.03-.03-.08-.06-.13-.09-.05-.02-.11-.05-.17-.06-.06-.02-.12-.03-.18-.04-.06-.01-.11-.02-.16-.03-.23-.05-.43-.12-.6-.19-.17-.08-.31-.17-.43-.27-.11-.11-.2-.23-.25-.37-.06-.14-.08-.29-.08-.46,0-.19.04-.37.13-.53.09-.16.21-.3.36-.41.15-.11.32-.2.51-.26.19-.06.39-.09.6-.09.3,0,.55.03.76.08.2.06.37.13.51.24s.26.22.35.36l-.72.69c-.08-.08-.17-.15-.26-.2s-.19-.09-.28-.11c-.1-.02-.19-.04-.29-.04-.09,0-.16,0-.22.02-.06.01-.11.03-.14.06-.03.03-.05.07-.05.12s.02.09.07.12c.04.03.1.06.17.08.07.02.13.04.2.05.07.01.12.02.17.03.21.04.4.09.58.16.18.07.33.15.46.25.13.1.23.23.3.38.07.15.11.33.11.53,0,.29-.07.54-.22.74-.15.2-.34.35-.59.45-.25.1-.52.15-.83.15Z"/>
            <path class="cls-4" d="M47.88,76.05v-1h.7v-2h-.7v-1h2.64v1h-.7v2h.7v1h-2.64Z"/>
            <path class="cls-4" d="M53.24,76.1c-.34,0-.65-.05-.91-.15-.27-.1-.49-.25-.67-.43-.18-.19-.32-.41-.41-.66-.09-.26-.14-.53-.14-.84s.05-.58.16-.84c.1-.25.26-.47.45-.66.2-.19.43-.33.71-.43.27-.1.58-.15.91-.15.23,0,.45.03.65.09.2.06.38.13.54.23.16.1.3.21.42.33l-.73.78c-.08-.07-.16-.14-.25-.19-.09-.06-.18-.1-.29-.13-.11-.03-.23-.05-.36-.05s-.26.03-.38.08-.21.12-.3.21c-.08.09-.15.2-.2.33-.05.13-.07.27-.07.41s.02.29.07.41c.05.13.12.24.21.33.09.09.19.16.31.21.12.05.26.08.4.08.1,0,.19-.02.27-.05.08-.03.15-.08.21-.13.06-.06.11-.12.14-.2.03-.08.05-.16.05-.25v-.17l.16.27h-1.02v-.87h1.97s0,.11.01.21c0,.1,0,.19.01.28,0,.09,0,.16,0,.19,0,.26-.05.49-.14.71-.1.22-.23.4-.4.56-.17.16-.38.28-.61.37-.24.09-.5.13-.78.13Z"/>
            <path class="cls-4" d="M55.86,76.05v-4h1.1l1.84,2.55-.26-.08c-.02-.15-.04-.29-.05-.4-.01-.11-.02-.22-.03-.32,0-.1-.02-.19-.02-.29,0-.1,0-.2,0-.31v-1.14h1.19v4h-1.12l-2.03-2.8.46.14c.02.14.04.26.05.37.01.1.02.2.03.29,0,.09.01.17.02.26,0,.09,0,.18.01.29,0,.1,0,.23,0,.37v1.09h-1.19Z"/>
            <path class="cls-4" d="M64.32,76.08c-.35,0-.65-.07-.92-.2-.27-.14-.48-.32-.63-.56-.15-.24-.23-.51-.23-.81v-2.47h1.25v2.41c0,.11.02.21.07.29.05.09.11.15.19.2.08.05.17.07.28.07.11,0,.21-.02.29-.07.08-.05.15-.12.2-.2.05-.09.07-.18.07-.29v-2.41h1.22v2.47c0,.31-.08.58-.23.81-.15.24-.36.42-.63.56-.27.14-.58.2-.92.2Z"/>
            <path class="cls-4" d="M67.02,76.05v-4h1.8c.27,0,.52.06.73.18.21.12.38.28.5.49.12.21.18.44.18.71s-.06.53-.18.74c-.12.22-.29.39-.5.51-.21.12-.46.19-.73.19h-.57v1.19h-1.24ZM68.24,73.8h.36c.07,0,.14-.01.19-.04.06-.03.1-.07.13-.12.03-.05.05-.12.05-.2s-.02-.14-.05-.19c-.03-.05-.08-.09-.13-.11-.06-.02-.12-.04-.19-.04h-.36v.71Z"/>
          </g>
          <path class="cls-4" d="M74.04,81.8c-2.18,0-3.95-1.77-3.95-3.95s1.77-3.95,3.95-3.95,3.95,1.77,3.95,3.95-1.77,3.95-3.95,3.95Z"/>
          <path class="cls-4" d="M74.56,69.98v3.15c-.17-.02-.34-.03-.52-.03-.09,0-.18,0-.27,0v-2.32h-31.09v6.71h26.62c0,.12-.01.23-.01.35,0,.15,0,.31.02.46h-27.41v-8.33h32.67Z"/>
          <polygon class="cls-14" points="71.63 75.55 73.68 80.34 74.32 78.78 75.74 80.19 76.31 79.63 74.89 78.21 76.46 77.57 71.63 75.55"/>
          <g>
            <path class="cls-5" d="M65.54,48.25c-.07.26-.14.45-.2.62s-.13.3-.19.43c0,.51-.26.76-.39.76-1.03,3.74-4,6.82-6.45,6.82-1.28,0-2.67-.77-3.87-2.01-1.19-1.24-2.19-2.94-2.71-4.81-.25,0-.39-.25-.39-.76v-.14c-.12-.12-.25-.51-.37-.91-.13-.51-.66-1.66-.27-2.18.51-.39.78,0,.78,0-.06-.27-.11-.54-.17-.82h13.97c-.07.46-.13.77-.14.81.12-.26.39-.39.51-.26.51.39,0,1.93-.12,2.45Z"/>
            <path class="cls-5" d="M74.56,68.75c-.1-10.13-4.1-7.79-11.74-12-1.27,1.14-2.8,2.03-4.57,2.05-1.77-.02-3.3-.92-4.57-2.05-7.64,4.2-11.65,1.87-11.74,12,0,.12,0,.25,0,.38h32.63c0-.13,0-.25,0-.38Z"/>
          </g>
          <g>
            <rect class="cls-4" x="56.77" y="33.1" width="2.93" height="3.8" rx="1.26" ry="1.26"/>
            <rect class="cls-4" x="49.42" y="42.22" width="17.65" height="2.53" rx="1.08" ry="1.08"/>
            <path class="cls-4" d="M61.16,34.55v1.47c0,.15-.13.28-.28.28h-.29c-.15,0-.28-.13-.28-.28v-1.76c-.66-.18-1.35-.27-2.06-.27s-1.4.1-2.06.27v1.76c0,.15-.13.28-.28.28h-.29c-.15,0-.28-.13-.28-.28v-1.47c-2.78,1.11-4.78,3.75-4.95,6.89-.01.23.18.43.41.43h14.91c.23,0,.42-.2.41-.43-.17-3.13-2.17-5.78-4.95-6.89ZM59.38,41.38h-7.75c-.18,0-.33-.15-.33-.33s.15-.33.33-.33h7.75c.18,0,.33.15.33.33s-.15.33-.33.33ZM62.72,41.38h-1.92c-.18,0-.33-.15-.33-.33s.15-.33.33-.33h1.92c.18,0,.33.15.33.33s-.15.33-.33.33Z"/>
          </g>
        </g>
      </g>
      <g>
        <rect class="cls-16" x="264.82" y="82.16" width="181.86" height="99.92"/>
        <text class="cls-24" transform="translate(285.55 118.36)"><tspan x="0" y="0">Bui</tspan><tspan class="cls-11" x="19.4" y="0">l</tspan><tspan x="22.16" y="0">ders </tspan><tspan class="cls-25" x="51.86" y="0">r</tspan><tspan x="56.37" y="0">ecei</tspan><tspan class="cls-38" x="80.86" y="0">v</tspan><tspan x="87.57" y="0">e p</tspan><tspan class="cls-25" x="106.36" y="0">r</tspan><tspan x="110.86" y="0">oject </tspan><tspan class="cls-25" x="9.12" y="15.4">r</tspan><tspan x="13.63" y="15.4">eques</tspan><tspan class="cls-29" x="49.62" y="15.4">t</tspan><tspan x="54.63" y="15.4">s and bid </tspan><tspan class="cls-28" x="114.1" y="15.4">f</tspan><tspan x="118.7" y="15.4">or </tspan><tspan x="-1.24" y="30.79">quo</tspan><tspan class="cls-12" x="21.97" y="30.79">t</tspan><tspan x="26.66" y="30.79">es f</tspan><tspan class="cls-1" x="48.46" y="30.79">r</tspan><tspan x="52.97" y="30.79">om cus</tspan><tspan class="cls-12" x="96.4" y="30.79">t</tspan><tspan x="101.09" y="30.79">omers.</tspan></text>
        <path class="cls-14" d="M434.77,18.57h-148.31c0,11.95-9.69,21.64-21.64,21.64v44.27c0,6.58,5.33,11.91,11.91,11.91h158.04c6.58,0,11.91-5.33,11.91-11.91V30.48c0-6.58-5.33-11.91-11.91-11.91Z"/>
        <path class="cls-10" d="M264.82,36.63c-9.96,0-18.07-8.1-18.07-18.07S254.86.5,264.82.5s18.07,8.1,18.07,18.07-8.1,18.07-18.07,18.07Z"/>
        <text class="cls-3" transform="translate(341.3 55.45)"><tspan class="cls-8" x="0" y="0">R</tspan><tspan x="12.4" y="0">ecei</tspan><tspan class="cls-9" x="49.41" y="0">v</tspan><tspan x="60.13" y="0">e</tspan><tspan class="cls-8" x="0" y="19.25">R</tspan><tspan x="12.4" y="19.25">eques</tspan><tspan class="cls-35" x="66.33" y="19.25">t</tspan><tspan x="73.93" y="19.25">s</tspan></text>
        <g>
          <path class="cls-4" d="M313.81,38.04c-2.65,0-5.18.51-7.5,1.44.23.84.35,1.72.35,2.64,0,5.51-4.47,9.98-9.98,9.98-.73,0-1.44-.08-2.13-.23-.69,2.04-1.07,4.22-1.07,6.5,0,11.23,9.1,20.33,20.33,20.33s20.33-9.1,20.33-20.33-9.1-20.33-20.33-20.33Z"/>
          <path class="cls-4" d="M296.68,50.77c-4.77,0-8.66-3.88-8.66-8.66s3.88-8.66,8.66-8.66,8.66,3.88,8.66,8.66-3.88,8.66-8.66,8.66Z"/>
          <g>
            <path class="cls-14" d="M311.38,71.68c.67.67,1.48,1,2.43,1,.96,0,1.77-.33,2.44-1s1-1.48,1-2.44h-6.88c0,.96.33,1.77,1,2.44Z"/>
            <path class="cls-14" d="M322.98,62.37v-5.96c0-2.33-.6-4.46-1.81-6.39-1.2-1.93-2.89-3.16-5.07-3.7v-1.15c0-.65-.22-1.19-.66-1.63-.44-.44-.98-.66-1.63-.66-.65,0-1.19.22-1.63.66-.44.44-.66.99-.66,1.63v1.15c-2.18.53-3.87,1.77-5.07,3.7-1.2,1.93-1.81,4.06-1.81,6.39v5.96h-2.29v4.59h22.92v-4.59h-2.29Z"/>
          </g>
          <rect class="cls-14" x="292" y="41.29" width="9.36" height="1.65" transform="translate(338.79 -254.57) rotate(90)"/>
          <rect class="cls-14" x="292" y="41.29" width="9.36" height="1.65" transform="translate(593.36 84.23) rotate(180)"/>
        </g>
      </g>
      <g>
        <rect class="cls-18" x="511.08" y="82.16" width="181.86" height="99.92"/>
        <text class="cls-24" transform="translate(527.47 118.36)"><tspan x="0" y="0">Bui</tspan><tspan class="cls-11" x="19.4" y="0">l</tspan><tspan x="22.16" y="0">ders submit bids and </tspan><tspan x="5.95" y="15.4">cus</tspan><tspan class="cls-12" x="26.32" y="15.4">t</tspan><tspan x="31.01" y="15.4">omers se</tspan><tspan class="cls-11" x="85.58" y="15.4">l</tspan><tspan x="88.34" y="15.4">ec</tspan><tspan class="cls-29" x="102.3" y="15.4">t</tspan><tspan x="107.31" y="15.4">s best </tspan><tspan x="6.66" y="30.79">bid based on se</tspan><tspan class="cls-11" x="102.43" y="30.79">l</tspan><tspan x="105.19" y="30.79">ection </tspan><tspan x="51.66" y="46.19">cri</tspan><tspan class="cls-12" x="66.51" y="46.19">t</tspan><tspan x="71.21" y="46.19">eria.</tspan></text>
        <g>
          <path class="cls-14" d="M681.02,18.57h-148.31c0,11.95-9.69,21.64-21.64,21.64v44.27c0,6.58,5.33,11.91,11.91,11.91h158.04c6.58,0,11.91-5.33,11.91-11.91V30.48c0-6.58-5.33-11.91-11.91-11.91Z"/>
          <path class="cls-10" d="M511.08,36.63c-9.96,0-18.07-8.1-18.07-18.07S501.12.5,511.08.5s18.07,8.1,18.07,18.07-8.1,18.07-18.07,18.07Z"/>
        </g>
        <text class="cls-3" transform="translate(582.41 55.44)"><tspan x="0" y="0">Bid and</tspan><tspan x="0" y="19.25">Win</tspan></text>
        <text class="cls-21" transform="translate(503.15 27.4)"><tspan x="0" y="0">3</tspan></text>
        <g>
          <rect class="cls-15" x="540.74" y="40.34" width="25.23" height="1.7"/>
          <rect class="cls-15" x="540.74" y="45.39" width="25.23" height="1.7"/>
          <rect class="cls-15" x="540.74" y="50.44" width="25.23" height="1.7"/>
          <rect class="cls-15" x="540.74" y="55.49" width="25.23" height="1.7"/>
          <rect class="cls-15" x="540.74" y="60.54" width="16.43" height="1.7"/>
          <rect class="cls-15" x="540.74" y="65.6" width="16.43" height="1.7"/>
          <path class="cls-4" d="M560.17,71.53c0-4.35,3.54-7.89,7.89-7.89.8,0,1.57.12,2.29.34v-31.05h-34v43.59h25.61c-1.12-1.36-1.79-3.1-1.79-4.99Z"/>
          <circle class="cls-4" cx="568.06" cy="71.53" r="6.78"/>
          <g>
            <rect class="cls-14" x="540.74" y="37.76" width="25.23" height="1.95"/>
            <rect class="cls-14" x="540.74" y="43.55" width="25.23" height="1.95"/>
            <rect class="cls-14" x="540.74" y="49.33" width="25.23" height="1.95"/>
            <rect class="cls-14" x="540.74" y="55.12" width="25.23" height="1.95"/>
            <rect class="cls-14" x="540.74" y="60.9" width="16.43" height="1.95"/>
            <rect class="cls-14" x="540.74" y="66.68" width="16.43" height="1.95"/>
          </g>
          <g>
            <path class="cls-14" d="M571.48,71.33l-2.16-.33c-.28-.04-.47-.31-.43-.59h0c.04-.28.31-.47.59-.43l2.15.13c.28.04.48.51.44.79h0c-.04.28-.31.47-.59.43Z"/>
            <path class="cls-14" d="M571.18,72.59l-2.12-.44c-.28-.06-.45-.33-.39-.6h0c.06-.28.33-.45.6-.39l2.17.38c.28.06.4.39.34.67h0c-.06.28-.33.45-.6.39Z"/>
            <path class="cls-14" d="M570.88,73.84l-2.08-.52c-.27-.06-.45-.32-.39-.6h0c.06-.27.32-.45.6-.39l2.09.44c.27.06.45.32.39.6h0c-.06.27-.34.53-.61.47Z"/>
            <path class="cls-14" d="M570.19,74.97l-1.68-.56c-.25-.07-.41-.33-.34-.58h0c.07-.25.33-.41.58-.34l1.85.48c.25.07.41.33.34.58h0c-.07.25-.5.48-.75.42Z"/>
            <path class="cls-14" d="M570.51,67.44h0c-.06-.09-.27-.29-.39-.12l-.07.1c-.28.41-.64.74-1.07.99-.34.2-.7.41-.77.44-.07.03-.57.42-1.04.78-.5.38-1.74.59-1.74.59h0v3.36h.35c.43,0,.85.1,1.24.28l.92.45c.07.03.14-.04.11-.11,0,0,0,0,0,0-.05-.11-.07-.23-.07-.34.02-.28.2-.5.43-.6-.18-.18-.25-.46-.15-.72.04-.11.11-.21.2-.29.06-.05.12-.09.19-.12-.05-.05-.09-.11-.13-.18-.05-.11-.08-.22-.07-.34.02-.28.2-.5.43-.6-.18-.18-.25-.46-.15-.72.04-.11.11-.21.2-.29.17-.14.36-.17.57-.17l.26.02.41-.51c.15-.17.26-.36.35-.56l.06-.13c.16-.39.14-.83-.07-1.2h0Z"/>
            <rect class="cls-14" x="563.49" y="69.85" width="1.75" height="4.14" rx=".76" ry=".76"/>
          </g>
        </g>
      </g>
      <g>
        <rect class="cls-20" x="757.33" y="82.16" width="181.86" height="99.92"/>
        <text class="cls-24" transform="translate(787.34 118.36)"><tspan x="0" y="0">Bui</tspan><tspan class="cls-11" x="19.4" y="0">l</tspan><tspan x="22.16" y="0">ders </tspan><tspan class="cls-43" x="51.86" y="0">e</tspan><tspan class="cls-22" x="59.03" y="0">x</tspan><tspan x="65.55" y="0">ecu</tspan><tspan class="cls-7" x="86.98" y="0">t</tspan><tspan x="91.68" y="0">e the </tspan><tspan x="1.92" y="15.4">p</tspan><tspan class="cls-25" x="9.9" y="15.4">r</tspan><tspan x="14.4" y="15.4">oject and p</tspan><tspan class="cls-25" x="82.42" y="15.4">r</tspan><tspan class="cls-38" x="86.92" y="15.4">o</tspan><tspan x="94.52" y="15.4">vide </tspan><tspan x="-16.56" y="30.79">in-app </tspan><tspan class="cls-25" x="26.72" y="30.79">r</tspan><tspan class="cls-7" x="31.22" y="30.79">e</tspan><tspan class="cls-30" x="38.37" y="30.79">g</tspan><tspan x="46.34" y="30.79">u</tspan><tspan class="cls-39" x="53.81" y="30.79">l</tspan><tspan x="56.56" y="30.79">ar upda</tspan><tspan class="cls-7" x="104.27" y="30.79">t</tspan><tspan x="108.97" y="30.79">es </tspan><tspan class="cls-12" x="125.92" y="30.79">t</tspan><tspan x="130.61" y="30.79">o </tspan><tspan x="20.45" y="46.19">the cus</tspan><tspan class="cls-12" x="63.76" y="46.19">t</tspan><tspan x="68.46" y="46.19">ome</tspan><tspan class="cls-37" x="95.14" y="46.19">r</tspan><tspan x="98.47" y="46.19">.</tspan></text>
        <text class="cls-21" transform="translate(746.95 27.4)"><tspan x="0" y="0">4</tspan></text>
        <path class="cls-14" d="M927.28,18.52h-148.31c0,11.95-9.69,21.64-21.64,21.64v44.27c0,6.58,5.33,11.91,11.91,11.91h158.04c6.58,0,11.91-5.33,11.91-11.91V30.43c0-6.58-5.33-11.91-11.91-11.91Z"/>
        <path class="cls-10" d="M757.33,36.63c-9.96,0-18.07-8.1-18.07-18.07s8.1-18.07,18.07-18.07,18.07,8.1,18.07,18.07-8.1,18.07-18.07,18.07Z"/>
        <text class="cls-3" transform="translate(830.6 47.11)"><tspan class="cls-32" x="0" y="0">J</tspan><tspan x="11.18" y="0">ob </tspan><tspan x="0" y="16.04">E</tspan><tspan class="cls-2" x="11.72" y="16.04">x</tspan><tspan x="22.19" y="16.04">ecution</tspan><tspan x="0" y="32.08">Upda</tspan><tspan class="cls-6" x="49.75" y="32.08">t</tspan><tspan x="56.89" y="32.08">es</tspan></text>
        <g>
          <path class="cls-4" d="M818.46,57.52c0,5.64-1.87,10.52-5.6,14.64-2.71,3.01-5.93,5.08-9.64,6.22l-.32-1.84-.44-2.49c2.83-.98,5.28-2.66,7.32-5,2.88-3.29,4.31-7.13,4.31-11.53s-1.43-8.23-4.31-11.53c-2.87-3.29-6.49-5.24-10.84-5.86v-4.36c2.76.29,5.33,1.06,7.71,2.32,2.38,1.25,4.44,2.85,6.19,4.79,1.74,1.95,3.12,4.17,4.11,6.69,1,2.51,1.5,5.15,1.5,7.95Z"/>
          <path class="cls-4" d="M794.58,35.77v4.36c-1.56.22-3.06.64-4.5,1.25-1.44.62-2.77,1.4-4.01,2.34l-3.16-3.16c1.71-1.34,3.54-2.43,5.51-3.25,1.96-.82,4.02-1.34,6.16-1.55h0Z"/>
          <path class="cls-4" d="M785.96,71.32c1.27.95,2.63,1.73,4.06,2.34s2.93,1.04,4.5,1.25v4.36c-2.14-.22-4.2-.74-6.16-1.55-1.96-.82-3.78-1.9-5.45-3.24l3.05-3.16Z"/>
          <path class="cls-4" d="M779.86,43.73l3.05,3.11c-.95,1.24-1.71,2.57-2.29,4.01-.58,1.43-.98,2.93-1.2,4.5h-4.47c.29-2.14.84-4.21,1.64-6.19.8-1.98,1.89-3.79,3.27-5.42h0Z"/>
          <path class="cls-4" d="M779.42,59.71c.22,1.56.62,3.06,1.2,4.5.58,1.43,1.34,2.77,2.29,4.01l-3.05,3.11c-1.38-1.64-2.49-3.44-3.33-5.43-.84-1.98-1.36-4.04-1.58-6.19h4.47Z"/>
          <g>
            <path class="cls-4" d="M803.27,69.95h0c-.86,0-1.56-.7-1.56-1.56l.03-16.47h3.12s-.03,16.47-.03,16.47c0,.86-.7,1.56-1.56,1.56Z"/>
            <path class="cls-4" d="M811.26,52.43h-.91s-.77-2.57-3.44-3.18c-.66-.15-1.31.27-1.46.93l-.4,1.76h-3.42s-.9-2.84-.9-2.84v-2.8s4.4,0,4.4,0c.6,0,1.18.16,1.69.46,1.5.88,4.43,2.94,4.42,5.66Z"/>
            <path class="cls-4" d="M800.73,49.09c-1.38-1.04-2.44,0-2.44,0v-2.8c1.38,1.04,2.44,0,2.44,0v2.8Z"/>
            <rect class="cls-4" x="795.22" y="46.49" width="3.8" height="2.4" rx=".51" ry=".51" transform="translate(747.81 844.7) rotate(-89.88)"/>
            <rect class="cls-4" x="795.22" y="46.49" width="3.8" height="2.4" rx=".51" ry=".51" transform="translate(747.81 844.7) rotate(-89.88)"/>
          </g>
          <g>
            <path class="cls-4" d="M794.19,51.08l-1.45,2.52c-.29.51-.84.83-1.43.83h-2.9c-.59,0-1.13-.32-1.43-.83l-1.45-2.52c-.29-.51-.29-1.14,0-1.65l1.45-2.51c.08-.13.17-.25.28-.36.36-.35.97-.1.97.4v3.72c0,.51.41.91.91.91h1.44c.5,0,.91-.41.91-.91v-3.72c0-.49.59-.76.95-.43.12.11.22.24.3.38l1.45,2.51c.29.51.29,1.14,0,1.65Z"/>
            <path class="cls-4" d="M790.05,70.3h0c-.91,0-1.65-.73-1.66-1.65l-.14-15.95h3.32s.14,15.91.14,15.91c0,.92-.74,1.68-1.66,1.68Z"/>
          </g>
          <polygon class="cls-4" points="798.88 75.16 798.88 78.95 795.74 77.8 798.88 75.16"/>
          <path class="cls-4" d="M802.46,74.06c-1.01.36-2.09.62-3.21.79l2.92-2.44.29,1.64Z"/>
          <path class="cls-4" d="M803.23,78.38c-1.18.37-2.42.64-3.7.8l-.64-.23v-3.79l.07-.06.3-.25c1.12-.17,2.2-.43,3.21-.79l.44,2.49.32,1.84Z"/>
          <path class="cls-4" d="M803.63,80.68l-3.94-1.43-.16-.06c1.28-.16,2.52-.43,3.7-.8l.4,2.3Z"/>
        </g>
      </g>
      <g>
        <rect class="cls-17" x="1003.59" y="82.16" width="181.86" height="99.92"/>
        <text class="cls-24" transform="translate(1018.39 118.36)"><tspan x="0" y="0">Bui</tspan><tspan class="cls-11" x="19.4" y="0">l</tspan><tspan x="22.16" y="0">ders </tspan><tspan class="cls-25" x="51.86" y="0">r</tspan><tspan x="56.37" y="0">ecei</tspan><tspan class="cls-38" x="80.86" y="0">v</tspan><tspan x="87.57" y="0">e p</tspan><tspan class="cls-13" x="106.36" y="0">a</tspan><tspan x="114.16" y="0">yment </tspan><tspan x="-5.61" y="15.4">upon mi</tspan><tspan class="cls-11" x="43.62" y="15.4">l</tspan><tspan x="46.38" y="15.4">es</tspan><tspan class="cls-12" x="59.74" y="15.4">t</tspan><tspan x="64.43" y="15.4">one comp</tspan><tspan class="cls-11" x="124.62" y="15.4">l</tspan><tspan x="127.38" y="15.4">etion </tspan><tspan x="-.92" y="30.79">and bui</tspan><tspan class="cls-11" x="44.72" y="30.79">l</tspan><tspan x="47.47" y="30.79">d their </tspan><tspan class="cls-25" x="90.1" y="30.79">r</tspan><tspan x="94.6" y="30.79">epu</tspan><tspan class="cls-12" x="117.26" y="30.79">t</tspan><tspan x="121.96" y="30.79">ation </tspan><tspan x="-3.25" y="46.19">th</tspan><tspan class="cls-25" x="8.9" y="46.19">r</tspan><tspan x="13.4" y="46.19">o</tspan><tspan class="cls-11" x="21.19" y="46.19">u</tspan><tspan x="28.53" y="46.19">gh cus</tspan><tspan class="cls-12" x="67.95" y="46.19">t</tspan><tspan x="72.64" y="46.19">omer </tspan><tspan class="cls-25" x="107.71" y="46.19">r</tspan><tspan class="cls-11" x="112.21" y="46.19">e</tspan><tspan x="119.29" y="46.19">vi</tspan><tspan class="cls-11" x="129.52" y="46.19">e</tspan><tspan class="cls-12" x="136.6" y="46.19">w</tspan><tspan x="146.43" y="46.19">s.</tspan></text>
        <path class="cls-14" d="M1173.54,18.57h-148.31c0,11.95-9.69,21.64-21.64,21.64v44.27c0,6.58,5.33,11.91,11.91,11.91h158.04c6.58,0,11.91-5.33,11.91-11.91V30.48c0-6.58-5.33-11.91-11.91-11.91Z"/>
        <path class="cls-10" d="M1003.59,36.63c-9.96,0-18.07-8.1-18.07-18.07s8.1-18.07,18.07-18.07,18.07,8.1,18.07,18.07-8.1,18.07-18.07,18.07Z"/>
        <text class="cls-3" transform="translate(1079 47.11)"><tspan x="0" y="0">Get </tspan><tspan class="cls-27" x="37.92" y="0">P</tspan><tspan x="49.77" y="0">aid </tspan><tspan x="0" y="16.04">and </tspan><tspan class="cls-8" x="0" y="32.08">R</tspan><tspan class="cls-27" x="12.4" y="32.08">e</tspan><tspan x="22.87" y="32.08">vi</tspan><tspan class="cls-33" x="39.66" y="32.08">e</tspan><tspan class="cls-40" x="50.13" y="32.08">w</tspan><tspan class="cls-41" x="65.02" y="32.08">ed</tspan></text>
        <text class="cls-21" transform="translate(995.35 27.4)"><tspan x="0" y="0">5</tspan></text>
        <g>
          <g>
            <g>
              <path class="cls-4" d="M1042.8,70.4c.45,0,.84-.14,1.16-.45.92-.91,1.84-1.81,2.74-2.74.64-.66.62-1.71-.02-2.35-2.31-2.32-4.62-4.63-6.95-6.94-.75-.75-1.75-.73-2.5.01-.85.84-1.7,1.69-2.54,2.54-.75.75-.76,1.75-.02,2.5,2.31,2.32,4.63,4.63,6.94,6.95.32.32.72.5,1.18.49Z"/>
              <path class="cls-4" d="M1042.8,70.4c-.46,0-.86-.17-1.18-.49-2.32-2.31-4.64-4.63-6.94-6.95-.74-.75-.73-1.75.02-2.5.84-.85,1.69-1.7,2.54-2.54.75-.74,1.75-.76,2.5-.01,2.32,2.31,4.64,4.62,6.95,6.94.64.64.65,1.69.02,2.35-.9.93-1.82,1.84-2.74,2.74-.32.31-.71.46-1.16.45ZM1038.6,60.28c-.59,0-1.06.46-1.07,1.05,0,.6.47,1.09,1.06,1.09.6,0,1.08-.48,1.07-1.09,0-.59-.47-1.05-1.06-1.05Z"/>
              <path class="cls-14" d="M1038.6,60.28c.59,0,1.06.47,1.06,1.05,0,.6-.47,1.09-1.07,1.09-.6,0-1.07-.49-1.06-1.09,0-.58.49-1.05,1.07-1.05Z"/>
              <path class="cls-4" d="M1073.26,49.13c-.76-.72-1.98-.76-2.75-.02-1.93,1.83-3.83,3.68-5.74,5.54-.09.09-.14.28-.12.4.41,2.05-.85,3.6-2.95,3.61-2.35,0-4.7,0-7.05,0-.11,0-.25.03-.31-.02-.14-.11-.33-.26-.34-.41-.01-.11.2-.29.34-.36.12-.06.3-.02.46-.02,2.36,0,4.72,0,7.08,0,1.25,0,2.16-1.02,2.04-2.23-.1-1.02-1-1.81-2.12-1.81-2.58,0-5.15,0-7.73,0-.73,0-1.44-.13-2.1-.48-4.31-2.26-9.46-.21-11.49,3.71-.15.28-.11.44.11.66,2.26,2.24,4.5,4.49,6.75,6.74.1.1.2.18.38.34.2-.24.36-.46.55-.65.96-.94,2.12-1.42,3.47-1.42,3.47,0,6.93,0,10.4,0,.14,0,.26,0,.35,0h1.11c.4,0,.79-.1,1.14-.28,0,0,0,0,0,0,0,0,0,0,0-.01.33-.18.62-.43.84-.74l.91-1.29c.1-.13.21-.26.31-.39,2.2-2.71,4.4-5.41,6.6-8.12.67-.83.59-2.01-.17-2.75Z"/>
            </g>
            <circle class="cls-4" cx="1056.26" cy="43.24" r="9.58"/>
            <g>
              <path class="cls-14" d="M1056.45,48.49c-.67,0-1.27-.08-1.8-.24-.54-.16-1.01-.39-1.43-.69-.42-.3-.79-.66-1.11-1.08l1.49-1.69c.48.65.97,1.08,1.45,1.3.49.22.99.33,1.51.33.26,0,.5-.03.71-.1.21-.07.38-.17.49-.3s.17-.29.17-.48c0-.14-.04-.27-.11-.39-.07-.12-.17-.22-.3-.3-.13-.09-.28-.17-.45-.24-.17-.07-.36-.14-.55-.19-.19-.05-.39-.1-.59-.14-.56-.13-1.05-.28-1.46-.46-.42-.18-.76-.41-1.03-.67-.28-.27-.48-.57-.62-.91-.14-.34-.2-.73-.2-1.15,0-.45.1-.87.31-1.25.21-.38.49-.71.84-.98.35-.27.76-.49,1.22-.64s.95-.22,1.45-.22c.67,0,1.24.07,1.71.21.48.14.89.34,1.23.6.34.26.63.57.88.94l-1.52,1.46c-.2-.25-.42-.46-.66-.62-.24-.16-.49-.29-.75-.38-.27-.09-.54-.13-.82-.13s-.54.04-.75.11c-.21.07-.37.17-.48.3s-.17.29-.17.47c0,.16.05.3.14.42.1.12.23.22.39.31.16.09.35.17.56.23.21.06.43.11.67.15.53.11,1.01.25,1.44.42.43.17.8.39,1.11.64.31.25.55.55.72.89.17.34.25.74.25,1.19,0,.7-.17,1.3-.51,1.79-.34.49-.81.86-1.4,1.11-.59.26-1.28.38-2.05.38Z"/>
              <g>
                <rect class="cls-14" x="1055.28" y="36.52" width="1.96" height="2.11"/>
                <rect class="cls-14" x="1055.28" y="47.84" width="1.96" height="2.11"/>
              </g>
            </g>
          </g>
          <g>
            <path class="cls-4" d="M1060.63,68.14v11.61h-36.3v-11.61h9.73c.6.42,1.24.8,1.91,1.12h-10.55v9.35h34.1v-9.35h-10.55c.67-.32,1.3-.7,1.91-1.12h9.73Z"/>
            <g>
              <polygon class="cls-4" points="1035.98 71.71 1036.79 73.34 1038.59 73.6 1037.29 74.87 1037.6 76.67 1035.98 75.82 1034.37 76.67 1034.68 74.87 1033.38 73.6 1035.18 73.34 1035.98 71.71"/>
              <polygon class="cls-4" points="1029.49 71.71 1030.29 73.34 1032.09 73.6 1030.79 74.87 1031.1 76.67 1029.49 75.82 1027.88 76.67 1028.18 74.87 1026.88 73.6 1028.68 73.34 1029.49 71.71"/>
              <polygon class="cls-4" points="1042.48 71.71 1043.29 73.34 1045.09 73.6 1043.79 74.87 1044.09 76.67 1042.48 75.82 1040.87 76.67 1041.18 74.87 1039.88 73.6 1041.68 73.34 1042.48 71.71"/>
              <polygon class="cls-4" points="1048.98 71.71 1049.78 73.34 1051.59 73.6 1050.28 74.87 1050.59 76.67 1048.98 75.82 1047.37 76.67 1047.68 74.87 1046.37 73.6 1048.17 73.34 1048.98 71.71"/>
              <polygon class="cls-4" points="1055.48 71.71 1056.28 73.34 1058.08 73.6 1056.78 74.87 1057.09 76.67 1055.48 75.82 1053.87 76.67 1054.17 74.87 1052.87 73.6 1054.67 73.34 1055.48 71.71"/>
            </g>
          </g>
        </g>
      </g>
    </g>
  </g>
</svg>