<?xml version="1.0" encoding="UTF-8"?>
<svg id="Layer_2" data-name="Layer 2" xmlns="http://www.w3.org/2000/svg" xmlns:xlink="http://www.w3.org/1999/xlink" viewBox="0 0 768.61 4263.13">
  <defs>
    <style>
      .cls-1 {
        letter-spacing: -.01em;
      }

      .cls-2 {
        letter-spacing: 0em;
      }

      .cls-3 {
        font-family: LexendDeca-ExtraLight, 'Lexend Deca';
        font-size: 110.4px;
        font-variation-settings: 'wght' 200;
        font-weight: 200;
      }

      .cls-3, .cls-4 {
        fill: #ff7f00;
      }

      .cls-5 {
        letter-spacing: -.01em;
      }

      .cls-6 {
        letter-spacing: .02em;
      }

      .cls-7 {
        letter-spacing: 0em;
      }

      .cls-8 {
        letter-spacing: -.02em;
      }

      .cls-9 {
        fill: none;
        stroke: #ff7f00;
        stroke-miterlimit: 10;
      }

      .cls-10 {
        letter-spacing: 0em;
      }

      .cls-11 {
        letter-spacing: -.02em;
      }

      .cls-12 {
        letter-spacing: -.01em;
      }

      .cls-13 {
        letter-spacing: -.03em;
      }

      .cls-14 {
        letter-spacing: 0em;
      }

      .cls-15 {
        letter-spacing: -.01em;
      }

      .cls-4, .cls-16, .cls-17, .cls-18, .cls-19, .cls-20, .cls-21, .cls-22, .cls-23 {
        stroke-width: 0px;
      }

      .cls-16, .cls-24, .cls-19 {
        fill: #21255e;
      }

      .cls-25 {
        letter-spacing: 0em;
      }

      .cls-26 {
        fill: #545454;
        font-family: LexendDeca-Light, 'Lexend Deca';
        font-size: 48.55px;
        font-variation-settings: 'wght' 300;
        font-weight: 300;
      }

      .cls-17 {
        fill: #fff;
      }

      .cls-27 {
        letter-spacing: -.02em;
      }

      .cls-28 {
        letter-spacing: 0em;
      }

      .cls-29 {
        letter-spacing: .02em;
      }

      .cls-18 {
        filter: url(#drop-shadow-2);
      }

      .cls-18, .cls-20, .cls-21, .cls-22, .cls-23 {
        fill: #fff2e9;
      }

      .cls-24 {
        font-family: LexendDeca-Bold, 'Lexend Deca';
        font-size: 68.79px;
        font-variation-settings: 'wght' 700;
        font-weight: 700;
      }

      .cls-19 {
        fill-rule: evenodd;
      }

      .cls-20 {
        filter: url(#drop-shadow-5);
      }

      .cls-21 {
        filter: url(#drop-shadow-3);
      }

      .cls-22 {
        filter: url(#drop-shadow-1);
      }

      .cls-30 {
        letter-spacing: -.02em;
      }

      .cls-31 {
        letter-spacing: -.02em;
      }

      .cls-23 {
        filter: url(#drop-shadow-4);
      }

      .cls-32 {
        letter-spacing: .02em;
      }

      .cls-33 {
        letter-spacing: -.01em;
      }

      .cls-34 {
        letter-spacing: -.03em;
      }

      .cls-35 {
        letter-spacing: -.02em;
      }

      .cls-36 {
        letter-spacing: 0em;
      }

      .cls-37 {
        letter-spacing: -.11em;
      }

      .cls-38 {
        letter-spacing: -.02em;
      }

      .cls-39 {
        letter-spacing: 0em;
      }

      .cls-40 {
        letter-spacing: -.05em;
      }

      .cls-41 {
        letter-spacing: -.02em;
      }
    </style>
    <filter id="drop-shadow-1" filterUnits="userSpaceOnUse">
      <feOffset dx="2" dy="2"/>
      <feGaussianBlur result="blur" stdDeviation="3"/>
      <feFlood flood-color="#000" flood-opacity=".06"/>
      <feComposite in2="blur" operator="in"/>
      <feComposite in="SourceGraphic"/>
    </filter>
    <filter id="drop-shadow-2" filterUnits="userSpaceOnUse">
      <feOffset dx="2" dy="2"/>
      <feGaussianBlur result="blur-2" stdDeviation="3"/>
      <feFlood flood-color="#000" flood-opacity=".06"/>
      <feComposite in2="blur-2" operator="in"/>
      <feComposite in="SourceGraphic"/>
    </filter>
    <filter id="drop-shadow-3" filterUnits="userSpaceOnUse">
      <feOffset dx="2" dy="2"/>
      <feGaussianBlur result="blur-3" stdDeviation="3"/>
      <feFlood flood-color="#000" flood-opacity=".06"/>
      <feComposite in2="blur-3" operator="in"/>
      <feComposite in="SourceGraphic"/>
    </filter>
    <filter id="drop-shadow-4" filterUnits="userSpaceOnUse">
      <feOffset dx="2" dy="2"/>
      <feGaussianBlur result="blur-4" stdDeviation="3"/>
      <feFlood flood-color="#000" flood-opacity=".06"/>
      <feComposite in2="blur-4" operator="in"/>
      <feComposite in="SourceGraphic"/>
    </filter>
    <filter id="drop-shadow-5" filterUnits="userSpaceOnUse">
      <feOffset dx="2" dy="2"/>
      <feGaussianBlur result="blur-5" stdDeviation="3"/>
      <feFlood flood-color="#000" flood-opacity=".06"/>
      <feComposite in2="blur-5" operator="in"/>
      <feComposite in="SourceGraphic"/>
    </filter>
  </defs>
  <g id="Layer_1-2" data-name="Layer 1">
    <g>
      <g>
        <rect class="cls-22" x="68.87" y="309.51" width="688.19" height="378.12"/>
        <text class="cls-26" transform="translate(136.04 446.51)"><tspan x="0" y="0">Bui</tspan><tspan class="cls-10" x="73.41" y="0">l</tspan><tspan x="83.85" y="0">ders </tspan><tspan class="cls-41" x="196.25" y="0">r</tspan><tspan class="cls-36" x="213.3" y="0">e</tspan><tspan x="240.34" y="0">gis</tspan><tspan class="cls-14" x="306.72" y="0">t</tspan><tspan x="324.49" y="0">er and set </tspan><tspan x="6.84" y="58.27">up a p</tspan><tspan class="cls-41" x="152.8" y="58.27">r</tspan><tspan class="cls-27" x="169.84" y="58.27">o</tspan><tspan x="198.34" y="58.27">fi</tspan><tspan class="cls-10" x="229.27" y="58.27">l</tspan><tspan x="239.71" y="58.27">e sh</tspan><tspan class="cls-27" x="331.82" y="58.27">o</tspan><tspan class="cls-12" x="360.32" y="58.27">w</tspan><tspan x="397.03" y="58.27">casing </tspan><tspan x="28.84" y="116.53">skills, </tspan><tspan class="cls-39" x="161.59" y="116.53">e</tspan><tspan x="188.73" y="116.53">xperience, and </tspan><tspan x="173.7" y="174.8">po</tspan><tspan class="cls-6" x="233.38" y="174.8">r</tspan><tspan class="cls-11" x="252.46" y="174.8">t</tspan><tspan class="cls-38" x="269.26" y="174.8">f</tspan><tspan x="286.64" y="174.8">olio.</tspan></text>
        <path class="cls-4" d="M711.98,68.87H150.76c0,45.23-36.66,81.89-81.89,81.89v167.54c0,24.9,20.18,45.08,45.08,45.08h598.03c24.9,0,45.08-20.18,45.08-45.08V113.95c0-24.9-20.18-45.08-45.08-45.08Z"/>
        <path class="cls-9" d="M68.87,137.23C31.17,137.23.5,106.57.5,68.87S31.17.5,68.87.5s68.37,30.67,68.37,68.37-30.67,68.37-68.37,68.37Z"/>
        <text class="cls-24" transform="translate(319.35 208.42)"><tspan x="0" y="0">Sign Up &amp; </tspan><tspan x="0" y="72.83">Set P</tspan><tspan class="cls-30" x="178.84" y="72.83">r</tspan><tspan class="cls-8" x="208.62" y="72.83">o</tspan><tspan class="cls-2" x="251.34" y="72.83">fi</tspan><tspan class="cls-7" x="300.32" y="72.83">l</tspan><tspan x="320.54" y="72.83">e</tspan></text>
        <text class="cls-3" transform="translate(44.07 102.36)"><tspan x="0" y="0">1</tspan></text>
        <g>
          <g>
            <path class="cls-16" d="M171.34,286.6c-1.14,0-2.15-.13-3.02-.38-.87-.25-1.64-.61-2.29-1.07-.66-.46-1.24-1-1.76-1.62l2.71-3.03c.72.92,1.48,1.53,2.26,1.83.79.3,1.53.44,2.22.44.27,0,.52-.02.74-.08.22-.05.38-.13.5-.25.12-.12.17-.27.17-.48,0-.19-.06-.35-.18-.48-.12-.13-.29-.24-.49-.34-.2-.09-.42-.17-.66-.24-.24-.06-.47-.12-.69-.16-.22-.04-.42-.09-.6-.13-.87-.2-1.62-.45-2.27-.74-.65-.29-1.19-.63-1.62-1.04-.43-.4-.75-.87-.96-1.39-.21-.52-.31-1.1-.31-1.75,0-.74.17-1.41.51-2.01.34-.61.79-1.13,1.36-1.56.57-.43,1.22-.76,1.95-1,.73-.23,1.48-.35,2.26-.35,1.14,0,2.09.1,2.86.31.76.21,1.41.51,1.93.9.52.39.97.84,1.34,1.36l-2.73,2.62c-.32-.3-.65-.55-1-.75s-.7-.34-1.07-.43c-.37-.09-.73-.14-1.09-.14-.33,0-.61.03-.84.08-.23.05-.41.13-.54.24-.13.11-.19.26-.19.44s.08.34.25.47c.17.12.38.23.63.31.25.09.51.16.76.21.25.05.47.09.64.12.79.14,1.52.34,2.19.6.66.25,1.24.57,1.74.95.5.38.88.86,1.15,1.43.27.57.4,1.24.4,2.02,0,1.11-.28,2.04-.83,2.79-.56.75-1.3,1.32-2.24,1.7-.94.38-1.98.57-3.14.57Z"/>
            <path class="cls-16" d="M179.81,286.38v-3.79h2.66v-7.58h-2.66v-3.79h10v3.79h-2.66v7.58h2.66v3.79h-10Z"/>
            <path class="cls-16" d="M200.07,286.6c-1.3,0-2.45-.19-3.45-.58-1-.39-1.85-.94-2.54-1.65-.69-.71-1.22-1.54-1.57-2.51-.35-.97-.53-2.02-.53-3.16s.2-2.21.6-3.17c.4-.96.97-1.79,1.72-2.5.75-.71,1.64-1.26,2.67-1.65,1.03-.39,2.18-.58,3.45-.58.88,0,1.7.11,2.46.32.76.22,1.44.51,2.06.88.61.37,1.14.78,1.59,1.24l-2.77,2.94c-.29-.27-.6-.52-.93-.73-.33-.21-.7-.38-1.1-.5-.4-.12-.86-.18-1.36-.18s-1,.1-1.43.29c-.43.19-.81.47-1.13.81-.32.35-.57.76-.75,1.24-.18.48-.27,1.01-.27,1.57s.09,1.09.28,1.57c.19.48.45.9.78,1.24.33.35.73.62,1.19.81.46.19.97.29,1.52.29.38,0,.72-.06,1.03-.18.31-.12.58-.29.8-.5.22-.21.4-.46.53-.76.13-.3.19-.62.19-.96v-.63l.61,1.04h-3.85v-3.29h7.45c.01.16.03.42.05.78.02.36.04.72.04,1.07,0,.35.01.6.01.73,0,.97-.18,1.86-.54,2.68-.36.82-.87,1.53-1.53,2.12-.66.59-1.43,1.05-2.33,1.39-.9.33-1.88.5-2.94.5Z"/>
            <path class="cls-16" d="M210.01,286.38v-15.15h4.18l6.97,9.63-1-.3c-.07-.58-.13-1.08-.18-1.52-.05-.43-.09-.83-.13-1.2-.04-.37-.07-.73-.09-1.09-.02-.36-.03-.76-.03-1.19v-4.33h4.5v15.15h-4.22l-7.68-10.61,1.75.52c.07.53.13,1,.18,1.4.05.4.09.76.12,1.09.03.33.05.66.08.98.02.32.04.69.04,1.08,0,.4.01.86.01,1.4v4.13h-4.5Z"/>
            <path class="cls-16" d="M242.02,286.51c-1.31,0-2.48-.26-3.5-.77-1.02-.51-1.81-1.22-2.39-2.11-.58-.89-.87-1.92-.87-3.07v-9.33h4.72v9.13c0,.42.09.79.26,1.11.17.32.41.58.73.77.31.19.66.28,1.05.28.42,0,.79-.09,1.1-.28.32-.19.57-.44.76-.77.19-.32.28-.7.28-1.11v-9.13h4.61v9.33c0,1.15-.29,2.18-.87,3.07-.58.9-1.37,1.6-2.39,2.11-1.02.51-2.18.77-3.5.77Z"/>
            <path class="cls-16" d="M252.24,286.38v-15.15h6.82c1.04,0,1.96.22,2.77.67.81.45,1.44,1.06,1.9,1.84.46.78.69,1.67.69,2.68s-.23,1.99-.69,2.81c-.46.82-1.1,1.47-1.9,1.94-.81.47-1.73.7-2.77.7h-2.14v4.5h-4.68ZM256.83,277.89h1.36c.27,0,.52-.05.74-.16.22-.11.39-.26.51-.47.12-.2.18-.45.18-.76s-.06-.55-.18-.74c-.12-.19-.29-.33-.51-.42-.22-.09-.46-.14-.74-.14h-1.36v2.68Z"/>
          </g>
          <path class="cls-16" d="M278.79,308.14c-8.23,0-14.93-6.7-14.93-14.93s6.7-14.93,14.93-14.93,14.93,6.7,14.93,14.93-6.7,14.93-14.93,14.93Z"/>
          <path class="cls-16" d="M280.75,263.41v11.92c-.64-.07-1.3-.11-1.96-.11-.35,0-.68.01-1.03.03v-8.77h-117.64v25.41h100.73c-.03.44-.05.88-.05,1.33,0,.58.03,1.16.08,1.74h-103.74v-31.53h123.61Z"/>
          <polygon class="cls-4" points="269.65 284.51 277.43 302.64 279.86 296.71 285.23 302.08 287.38 299.93 282 294.56 287.93 292.13 269.65 284.51"/>
          <g>
            <path class="cls-19" d="M246.61,181.18c-.28.97-.52,1.71-.77,2.34-.24.62-.48,1.12-.71,1.63,0,1.94-.97,2.88-1.47,2.88-3.9,14.15-15.13,25.82-24.42,25.82-4.86,0-10.11-2.92-14.63-7.6-4.52-4.69-8.3-11.14-10.25-18.22-.94,0-1.48-.94-1.48-2.88v-.54c-.47-.47-.94-1.95-1.4-3.43-.51-1.94-2.49-6.29-1.01-8.24,1.94-1.48,2.95,0,2.95,0-.21-1.02-.43-2.05-.63-3.1h52.87c-.27,1.73-.49,2.91-.52,3.08.47-1,1.47-1.46,1.94-.99,1.94,1.48,0,7.31-.47,9.25Z"/>
            <path class="cls-19" d="M280.74,258.77c-.36-38.32-15.51-29.49-44.43-45.39-4.81,4.31-10.6,7.7-17.3,7.77-6.7-.08-12.5-3.47-17.3-7.77-28.92,15.9-44.07,7.07-44.43,45.39,0,.47,0,.94,0,1.42h123.49c0-.48,0-.95,0-1.42Z"/>
          </g>
          <g>
            <rect class="cls-16" x="213.45" y="123.86" width="11.1" height="14.4" rx="1.26" ry="1.26"/>
            <rect class="cls-16" x="185.61" y="158.39" width="66.8" height="9.56" rx="1.08" ry="1.08"/>
            <path class="cls-16" d="M230.04,129.35v5.56c0,.59-.48,1.06-1.06,1.06h-1.11c-.59,0-1.06-.48-1.06-1.06v-6.64c-2.49-.67-5.1-1.04-7.8-1.04s-5.31.36-7.8,1.04v6.64c0,.59-.48,1.06-1.06,1.06h-1.11c-.59,0-1.06-.48-1.06-1.06v-5.56c-10.52,4.2-18.09,14.2-18.73,26.06-.05.88.66,1.63,1.55,1.63h56.42c.89,0,1.6-.74,1.55-1.63-.64-11.86-8.21-21.87-18.73-26.06ZM223.3,155.18h-29.34c-.69,0-1.25-.56-1.25-1.25s.56-1.25,1.25-1.25h29.34c.69,0,1.25.56,1.25,1.25s-.56,1.25-1.25,1.25ZM235.95,155.18h-7.25c-.69,0-1.25-.56-1.25-1.25s.56-1.25,1.25-1.25h7.25c.69,0,1.25.56,1.25,1.25s-.56,1.25-1.25,1.25Z"/>
          </g>
        </g>
      </g>
      <g>
        <text class="cls-3" transform="translate(36.74 993.32)"><tspan x="0" y="0">2</tspan></text>
        <g>
          <rect class="cls-18" x="68.87" y="1200.47" width="688.19" height="378.12"/>
          <text class="cls-26" transform="translate(147.33 1337.47)"><tspan x="0" y="0">Bui</tspan><tspan class="cls-10" x="73.41" y="0">l</tspan><tspan x="83.85" y="0">ders </tspan><tspan class="cls-41" x="196.25" y="0">r</tspan><tspan x="213.3" y="0">ecei</tspan><tspan class="cls-31" x="305.99" y="0">v</tspan><tspan x="331.38" y="0">e p</tspan><tspan class="cls-41" x="402.46" y="0">r</tspan><tspan x="419.51" y="0">oject </tspan><tspan class="cls-41" x="34.52" y="58.27">r</tspan><tspan x="51.56" y="58.27">eques</tspan><tspan class="cls-32" x="187.76" y="58.27">t</tspan><tspan x="206.74" y="58.27">s and bid </tspan><tspan class="cls-38" x="431.79" y="58.27">f</tspan><tspan x="449.17" y="58.27">or </tspan><tspan x="-4.71" y="116.53">quo</tspan><tspan class="cls-36" x="83.12" y="116.53">t</tspan><tspan x="100.89" y="116.53">es f</tspan><tspan class="cls-35" x="183.39" y="116.53">r</tspan><tspan x="200.43" y="116.53">om cus</tspan><tspan class="cls-36" x="364.79" y="116.53">t</tspan><tspan x="382.56" y="116.53">omers.</tspan></text>
          <path class="cls-4" d="M711.98,959.83H150.76c0,45.23-36.66,81.89-81.89,81.89v167.54c0,24.9,20.18,45.08,45.08,45.08h598.03c24.9,0,45.08-20.18,45.08-45.08v-204.35c0-24.9-20.18-45.08-45.08-45.08Z"/>
          <path class="cls-9" d="M68.87,1028.19c-37.7,0-68.37-30.67-68.37-68.37s30.67-68.37,68.37-68.37,68.37,30.67,68.37,68.37-30.67,68.37-68.37,68.37Z"/>
          <text class="cls-24" transform="translate(358.27 1099.38)"><tspan class="cls-8" x="0" y="0">R</tspan><tspan class="cls-2" x="46.91" y="0">ecei</tspan><tspan class="cls-15" x="186.96" y="0">v</tspan><tspan x="227.54" y="0">e</tspan><tspan class="cls-8" x="0" y="72.83">R</tspan><tspan class="cls-2" x="46.91" y="72.83">eques</tspan><tspan class="cls-29" x="251" y="72.83">t</tspan><tspan x="279.75" y="72.83">s</tspan></text>
          <g>
            <path class="cls-16" d="M254.26,1033.51c-10.03,0-19.61,1.94-28.4,5.44.87,3.18,1.34,6.52,1.34,9.98,0,20.87-16.91,37.78-37.78,37.78-2.76,0-5.45-.3-8.04-.87-2.6,7.72-4.04,15.98-4.04,24.58,0,42.48,34.44,76.92,76.92,76.92s76.92-34.44,76.92-76.92-34.44-76.92-76.92-76.92Z"/>
            <path class="cls-16" d="M189.42,1081.7c-18.07,0-32.77-14.7-32.77-32.77s14.7-32.77,32.77-32.77,32.76,14.7,32.76,32.77-14.7,32.77-32.76,32.77Z"/>
            <g>
              <path class="cls-4" d="M245.04,1160.82c2.53,2.53,5.6,3.8,9.21,3.79,3.61,0,6.69-1.26,9.22-3.79,2.53-2.53,3.8-5.6,3.79-9.22h-26.03c0,3.61,1.27,6.69,3.8,9.22Z"/>
              <path class="cls-4" d="M288.96,1125.57v-22.56c0-8.82-2.28-16.88-6.84-24.18-4.56-7.3-10.95-11.96-19.19-13.99v-4.34c0-2.46-.83-4.52-2.5-6.18-1.67-1.66-3.72-2.49-6.18-2.5-2.45,0-4.51.83-6.18,2.5-1.67,1.67-2.5,3.73-2.5,6.18v4.34c-8.24,2.02-14.64,6.69-19.19,13.99-4.55,7.3-6.83,15.36-6.84,24.18v22.56h-8.68v17.35h86.75v-17.35h-8.68Z"/>
            </g>
            <rect class="cls-4" x="171.71" y="1045.81" width="35.43" height="6.25" transform="translate(1238.35 859.51) rotate(90)"/>
            <rect class="cls-4" x="171.71" y="1045.81" width="35.43" height="6.25" transform="translate(378.84 2097.86) rotate(180)"/>
          </g>
        </g>
      </g>
      <g>
        <rect class="cls-21" x="68.87" y="2091.43" width="688.19" height="378.12"/>
        <text class="cls-26" transform="translate(130.92 2228.43)"><tspan x="0" y="0">Bui</tspan><tspan class="cls-10" x="73.41" y="0">l</tspan><tspan x="83.85" y="0">ders submit bids and </tspan><tspan x="22.53" y="58.27">cus</tspan><tspan class="cls-36" x="99.58" y="58.27">t</tspan><tspan x="117.35" y="58.27">omers se</tspan><tspan class="cls-10" x="323.85" y="58.27">l</tspan><tspan x="334.29" y="58.27">ec</tspan><tspan class="cls-6" x="387.12" y="58.27">t</tspan><tspan x="406.1" y="58.27">s best </tspan><tspan x="25.2" y="116.53">bid based on se</tspan><tspan class="cls-10" x="387.61" y="116.53">l</tspan><tspan x="398.04" y="116.53">ection </tspan><tspan x="195.48" y="174.8">cri</tspan><tspan class="cls-36" x="251.7" y="174.8">t</tspan><tspan x="269.47" y="174.8">eria.</tspan></text>
        <g>
          <path class="cls-4" d="M711.98,1850.78H150.76c0,45.23-36.66,81.89-81.89,81.89v167.54c0,24.9,20.18,45.08,45.08,45.08h598.03c24.9,0,45.08-20.18,45.08-45.08v-204.35c0-24.9-20.18-45.08-45.08-45.08Z"/>
          <path class="cls-9" d="M68.87,1919.15c-37.7,0-68.37-30.67-68.37-68.37s30.67-68.37,68.37-68.37,68.37,30.67,68.37,68.37-30.67,68.37-68.37,68.37Z"/>
        </g>
        <text class="cls-24" transform="translate(338.8 1990.34)"><tspan x="0" y="0">Bid and</tspan><tspan x="0" y="72.83">Win</tspan></text>
        <text class="cls-3" transform="translate(38.87 1884.2)"><tspan x="0" y="0">3</tspan></text>
        <g>
          <rect class="cls-17" x="181.11" y="1933.18" width="95.47" height="6.43"/>
          <rect class="cls-17" x="181.11" y="1952.3" width="95.47" height="6.43"/>
          <rect class="cls-17" x="181.11" y="1971.41" width="95.47" height="6.43"/>
          <rect class="cls-17" x="181.11" y="1990.52" width="95.47" height="6.43"/>
          <rect class="cls-17" x="181.11" y="2009.64" width="62.18" height="6.43"/>
          <rect class="cls-17" x="181.11" y="2028.75" width="62.18" height="6.43"/>
          <path class="cls-16" d="M254.66,2051.2c0-16.46,13.39-29.84,29.84-29.84,3.02,0,5.93.45,8.67,1.29v-117.48h-128.66v164.94h96.91c-4.23-5.15-6.77-11.73-6.77-18.9Z"/>
          <circle class="cls-16" cx="284.5" cy="2051.2" r="25.66"/>
          <g>
            <rect class="cls-4" x="181.11" y="1923.43" width="95.47" height="7.37"/>
            <rect class="cls-4" x="181.11" y="1945.32" width="95.47" height="7.37"/>
            <rect class="cls-4" x="181.11" y="1967.21" width="95.47" height="7.37"/>
            <rect class="cls-4" x="181.11" y="1989.1" width="95.47" height="7.37"/>
            <rect class="cls-4" x="181.11" y="2010.98" width="62.18" height="7.37"/>
            <rect class="cls-4" x="181.11" y="2032.87" width="62.18" height="7.37"/>
          </g>
          <g>
            <path class="cls-4" d="M297.44,2050.45l-8.18-1.26c-1.06-.16-1.79-1.16-1.63-2.22h0c.16-1.06,1.16-1.79,2.22-1.63l8.14.5c1.06.16,1.83,1.92,1.67,2.98h0c-.16,1.06-1.16,1.79-2.22,1.63Z"/>
            <path class="cls-4" d="M296.3,2055.21l-8.03-1.68c-1.04-.22-1.71-1.24-1.49-2.28h0c.22-1.04,1.24-1.71,2.28-1.49l8.22,1.43c1.04.22,1.52,1.49,1.3,2.53h0c-.22,1.04-1.24,1.71-2.28,1.49Z"/>
            <path class="cls-4" d="M295.16,2059.94l-7.87-1.96c-1.03-.22-1.69-1.22-1.47-2.25h0c.22-1.03,1.22-1.69,2.25-1.47l7.93,1.66c1.03.22,1.69,1.22,1.47,2.25h0c-.22,1.03-1.28,1.99-2.31,1.78Z"/>
            <path class="cls-4" d="M292.58,2064.23l-6.36-2.12c-.96-.25-1.54-1.24-1.28-2.2h0c.25-.96,1.24-1.54,2.2-1.28l7.01,1.83c.96.25,1.54,1.24,1.28,2.2h0c-.25.96-1.89,1.83-2.85,1.57Z"/>
            <path class="cls-4" d="M293.79,2035.73h0c-.24-.35-1.02-1.11-1.47-.46l-.27.39c-1.06,1.53-2.44,2.82-4.05,3.76-1.29.76-2.67,1.55-2.91,1.68-.25.13-2.17,1.58-3.95,2.94-1.89,1.44-6.57,2.22-6.57,2.22h0v12.72h1.32c1.63,0,3.23.37,4.7,1.07l3.5,1.69c.26.13.54-.15.41-.41,0,0,0-.01-.01-.02-.19-.4-.28-.85-.25-1.3.08-1.06.75-1.89,1.63-2.25-.67-.69-.95-1.73-.58-2.74.15-.42.41-.79.75-1.08.22-.19.46-.33.72-.44-.19-.2-.36-.43-.48-.69-.2-.4-.28-.85-.26-1.3.07-1.07.74-1.91,1.63-2.27-.67-.69-.95-1.73-.59-2.74.15-.43.42-.81.77-1.1.63-.53,1.35-.65,2.14-.63l.98.06,1.55-1.92c.55-.63,1-1.35,1.33-2.13l.21-.5c.62-1.48.53-3.16-.26-4.55h0Z"/>
            <rect class="cls-4" x="267.21" y="2044.85" width="6.63" height="15.67" rx=".76" ry=".76"/>
          </g>
        </g>
      </g>
      <g>
        <rect class="cls-23" x="68.87" y="2982.38" width="688.19" height="378.12"/>
        <text class="cls-26" transform="translate(182.43 3119.39)"><tspan x="0" y="0">Bui</tspan><tspan class="cls-10" x="73.41" y="0">l</tspan><tspan x="83.85" y="0">ders </tspan><tspan class="cls-39" x="196.25" y="0">e</tspan><tspan class="cls-34" x="223.4" y="0">x</tspan><tspan x="248.06" y="0">ecu</tspan><tspan class="cls-36" x="329.15" y="0">t</tspan><tspan x="346.92" y="0">e the </tspan><tspan x="7.26" y="58.27">p</tspan><tspan class="cls-41" x="37.46" y="58.27">r</tspan><tspan x="54.5" y="58.27">oject and p</tspan><tspan class="cls-35" x="311.89" y="58.27">r</tspan><tspan class="cls-12" x="328.93" y="58.27">o</tspan><tspan x="357.67" y="58.27">vide </tspan><tspan x="-62.66" y="116.53">in-app </tspan><tspan class="cls-41" x="101.11" y="116.53">r</tspan><tspan class="cls-14" x="118.16" y="116.53">e</tspan><tspan class="cls-25" x="145.2" y="116.53">g</tspan><tspan x="175.35" y="116.53">u</tspan><tspan class="cls-10" x="203.61" y="116.53">l</tspan><tspan x="214.05" y="116.53">ar upda</tspan><tspan class="cls-36" x="394.57" y="116.53">t</tspan><tspan x="412.34" y="116.53">es </tspan><tspan class="cls-36" x="476.48" y="116.53">t</tspan><tspan x="494.26" y="116.53">o </tspan><tspan x="77.37" y="174.8">the cus</tspan><tspan class="cls-36" x="241.29" y="174.8">t</tspan><tspan x="259.06" y="174.8">ome</tspan><tspan class="cls-37" x="360.05" y="174.8">r</tspan><tspan x="372.63" y="174.8">.</tspan></text>
        <text class="cls-3" transform="translate(29.59 2775.16)"><tspan x="0" y="0">4</tspan></text>
        <path class="cls-4" d="M711.98,2741.57H150.76c0,45.23-36.66,81.89-81.89,81.89v167.54c0,24.9,20.18,45.08,45.08,45.08h598.03c24.9,0,45.08-20.18,45.08-45.08v-204.35c0-24.9-20.18-45.08-45.08-45.08Z"/>
        <path class="cls-9" d="M68.87,2810.11c-37.7,0-68.37-30.67-68.37-68.37s30.67-68.37,68.37-68.37,68.37,30.67,68.37,68.37-30.67,68.37-68.37,68.37Z"/>
        <text class="cls-24" transform="translate(346.14 2849.74)"><tspan class="cls-40" x="0" y="0">J</tspan><tspan class="cls-2" x="42.3" y="0">ob </tspan><tspan x="0" y="60.69">E</tspan><tspan class="cls-13" x="44.37" y="60.69">x</tspan><tspan x="83.99" y="60.69">ecution</tspan><tspan x="0" y="121.39">Upda</tspan><tspan class="cls-28" x="188.27" y="121.39">t</tspan><tspan x="215.3" y="121.39">es</tspan></text>
        <g>
          <path class="cls-16" d="M300.19,2889.16c0,21.33-7.06,39.81-21.18,55.41-10.25,11.39-22.43,19.24-36.47,23.53l-1.21-6.94-1.67-9.41c10.7-3.72,19.96-10.06,27.7-18.94,10.89-12.45,16.32-26.98,16.32-43.64s-5.43-31.16-16.32-43.64c-10.85-12.45-24.55-19.85-41.02-22.16v-16.51c10.44,1.1,20.15,4.02,29.18,8.77,8.99,4.74,16.81,10.78,23.42,18.14,6.6,7.36,11.8,15.79,15.56,25.31,3.8,9.49,5.69,19.51,5.69,30.09Z"/>
          <path class="cls-16" d="M209.81,2806.85v16.51c-5.91.83-11.59,2.41-17.03,4.75-5.44,2.34-10.49,5.3-15.16,8.87l-11.97-11.97c6.46-5.09,13.41-9.18,20.84-12.28,7.43-3.1,15.2-5.06,23.31-5.88h0Z"/>
          <path class="cls-16" d="M177.21,2941.37c4.81,3.58,9.94,6.53,15.37,8.87,5.43,2.34,11.11,3.92,17.03,4.75v16.51c-8.12-.83-15.89-2.79-23.31-5.88-7.43-3.1-14.3-7.19-20.63-12.27l11.55-11.97Z"/>
          <path class="cls-16" d="M154.11,2836.97l11.55,11.76c-3.58,4.68-6.46,9.73-8.67,15.16-2.2,5.43-3.71,11.11-4.54,17.03h-16.92c1.1-8.12,3.16-15.92,6.19-23.42,3.03-7.5,7.15-14.34,12.38-20.52h0Z"/>
          <path class="cls-16" d="M152.46,2897.42c.83,5.91,2.34,11.59,4.54,17.02,2.2,5.43,5.09,10.49,8.67,15.17l-11.55,11.76c-5.23-6.19-9.42-13.03-12.59-20.53-3.16-7.5-5.16-15.3-5.98-23.41h16.92Z"/>
          <g>
            <path class="cls-16" d="M242.7,2936.19h0c-3.26,0-5.9-2.66-5.9-5.92l.13-62.31,11.81.02-.13,62.31c0,3.26-2.66,5.9-5.92,5.9Z"/>
            <path class="cls-16" d="M272.94,2869.87h-3.44s-2.9-9.74-13.01-12.04c-2.48-.57-4.95,1.04-5.52,3.52l-1.51,6.64-12.94-.03-3.41-10.72.02-10.59,16.65.03c2.26,0,4.47.61,6.41,1.75,5.67,3.31,16.76,11.11,16.74,21.43Z"/>
            <path class="cls-16" d="M233.11,2857.26c-5.22-3.93-9.22-.02-9.22-.02l.02-10.59c5.22,3.93,9.22.02,9.22.02l-.02,10.59Z"/>
            <rect class="cls-16" x="212.22" y="2847.39" width="14.39" height="9.08" rx="1.94" ry="1.94" transform="translate(-2632.95 3065.53) rotate(-89.88)"/>
            <rect class="cls-16" x="212.22" y="2847.39" width="14.39" height="9.08" rx="1.94" ry="1.94" transform="translate(-2632.95 3065.53) rotate(-89.88)"/>
          </g>
          <g>
            <path class="cls-16" d="M208.36,2864.78l-5.49,9.52c-1.12,1.93-3.18,3.12-5.41,3.12h-10.99c-2.23,0-4.29-1.19-5.41-3.12l-5.5-9.52c-1.12-1.93-1.11-4.31,0-6.25l5.5-9.52c.29-.5.64-.95,1.05-1.35,1.37-1.34,3.67-.38,3.67,1.53v14.08c0,1.91,1.55,3.46,3.46,3.46h5.45c1.91,0,3.46-1.55,3.46-3.46v-14.09c0-1.85,2.22-2.88,3.58-1.62.44.41.83.9,1.14,1.44l5.49,9.52c1.11,1.93,1.11,4.31,0,6.25Z"/>
            <path class="cls-16" d="M192.69,2937.52h0c-3.45,0-6.25-2.78-6.29-6.23l-.55-60.34h12.57s.54,60.22.54,60.22c.03,3.49-2.79,6.35-6.29,6.35Z"/>
          </g>
          <polygon class="cls-16" points="226.11 2955.92 226.11 2970.26 214.19 2965.9 226.11 2955.92"/>
          <path class="cls-16" d="M239.66,2951.74c-3.83,1.37-7.89,2.35-12.14,3l11.04-9.22,1.1,6.22Z"/>
          <path class="cls-16" d="M242.54,2968.1c-4.48,1.4-9.15,2.43-14,3.04l-2.43-.87v-14.35l.27-.23,1.14-.95c4.25-.65,8.31-1.63,12.14-3l1.67,9.41,1.21,6.94Z"/>
          <path class="cls-16" d="M244.06,2976.79l-14.91-5.43-.61-.23c4.86-.61,9.53-1.63,14-3.04l1.52,8.69Z"/>
        </g>
      </g>
      <g>
        <rect class="cls-20" x="68.87" y="3873.34" width="688.19" height="378.12"/>
        <text class="cls-26" transform="translate(124.89 4010.34)"><tspan x="0" y="0">Bui</tspan><tspan class="cls-10" x="73.41" y="0">l</tspan><tspan x="83.85" y="0">ders </tspan><tspan class="cls-41" x="196.25" y="0">r</tspan><tspan x="213.3" y="0">ecei</tspan><tspan class="cls-31" x="305.99" y="0">v</tspan><tspan x="331.38" y="0">e p</tspan><tspan class="cls-5" x="402.46" y="0">a</tspan><tspan x="431.99" y="0">yment </tspan><tspan x="-21.22" y="58.27">upon mi</tspan><tspan class="cls-10" x="165.08" y="58.27">l</tspan><tspan x="175.52" y="58.27">es</tspan><tspan class="cls-36" x="226.07" y="58.27">t</tspan><tspan x="243.84" y="58.27">one comp</tspan><tspan class="cls-10" x="471.61" y="58.27">l</tspan><tspan x="482.04" y="58.27">etion </tspan><tspan x="-3.5" y="116.53">and bui</tspan><tspan class="cls-10" x="169.21" y="116.53">l</tspan><tspan x="179.65" y="116.53">d their </tspan><tspan class="cls-41" x="340.94" y="116.53">r</tspan><tspan x="357.99" y="116.53">epu</tspan><tspan class="cls-36" x="443.73" y="116.53">t</tspan><tspan x="461.51" y="116.53">ation </tspan><tspan x="-12.31" y="174.8">th</tspan><tspan class="cls-41" x="33.67" y="174.8">r</tspan><tspan x="50.71" y="174.8">o</tspan><tspan class="cls-10" x="80.19" y="174.8">u</tspan><tspan x="107.96" y="174.8">gh cus</tspan><tspan class="cls-36" x="257.12" y="174.8">t</tspan><tspan x="274.89" y="174.8">omer </tspan><tspan class="cls-35" x="407.59" y="174.8">r</tspan><tspan class="cls-10" x="424.63" y="174.8">e</tspan><tspan x="451.43" y="174.8">vi</tspan><tspan class="cls-10" x="490.13" y="174.8">e</tspan><tspan class="cls-36" x="516.93" y="174.8">w</tspan><tspan x="554.12" y="174.8">s.</tspan></text>
        <path class="cls-4" d="M711.98,3632.7H150.76c0,45.23-36.66,81.89-81.89,81.89v167.54c0,24.9,20.18,45.08,45.08,45.08h598.03c24.9,0,45.08-20.18,45.08-45.08v-204.35c0-24.9-20.18-45.08-45.08-45.08Z"/>
        <path class="cls-9" d="M68.87,3701.07c-37.7,0-68.37-30.67-68.37-68.37s30.67-68.37,68.37-68.37,68.37,30.67,68.37,68.37-30.67,68.37-68.37,68.37Z"/>
        <text class="cls-24" transform="translate(354.23 3740.7)"><tspan x="0" y="0">Get </tspan><tspan class="cls-7" x="143.49" y="0">P</tspan><tspan x="188.33" y="0">aid </tspan><tspan x="0" y="60.69">and </tspan><tspan class="cls-8" x="0" y="121.39">R</tspan><tspan class="cls-33" x="46.91" y="121.39">e</tspan><tspan x="86.53" y="121.39">vi</tspan><tspan class="cls-33" x="150.09" y="121.39">e</tspan><tspan class="cls-1" x="189.71" y="121.39">w</tspan><tspan class="cls-2" x="246.05" y="121.39">ed</tspan></text>
        <text class="cls-3" transform="translate(37.7 3666.11)"><tspan x="0" y="0">5</tspan></text>
        <g>
          <g>
            <g>
              <path class="cls-16" d="M217.26,3828.83c1.7.03,3.19-.53,4.4-1.72,3.48-3.44,6.98-6.86,10.37-10.38,2.41-2.5,2.36-6.47-.06-8.91-8.74-8.78-17.5-17.54-26.3-26.27-2.85-2.83-6.61-2.76-9.46.05-3.23,3.18-6.43,6.39-9.63,9.61-2.83,2.84-2.89,6.63-.08,9.46,8.74,8.78,17.51,17.53,26.28,26.29,1.23,1.23,2.72,1.88,4.48,1.87Z"/>
              <path class="cls-16" d="M217.26,3828.83c-1.76.02-3.25-.64-4.48-1.87-8.77-8.75-17.54-17.5-26.28-26.29-2.82-2.83-2.75-6.62.08-9.46,3.2-3.21,6.4-6.42,9.63-9.61,2.85-2.82,6.61-2.88,9.46-.05,8.79,8.73,17.56,17.48,26.3,26.27,2.42,2.43,2.47,6.41.06,8.91-3.39,3.52-6.89,6.95-10.37,10.38-1.2,1.19-2.7,1.75-4.4,1.72ZM201.36,3790.54c-2.22,0-4.02,1.76-4.06,3.97-.04,2.28,1.76,4.13,4.03,4.14,2.26,0,4.08-1.83,4.06-4.11-.02-2.23-1.79-3.98-4.03-3.99Z"/>
              <path class="cls-4" d="M201.36,3790.54c2.24,0,4.01,1.77,4.03,3.99.02,2.28-1.79,4.12-4.06,4.11-2.26,0-4.06-1.85-4.03-4.14.04-2.21,1.84-3.98,4.06-3.97Z"/>
              <path class="cls-16" d="M332.52,3748.36c-2.87-2.74-7.47-2.86-10.39-.08-7.28,6.93-14.5,13.94-21.71,20.95-.33.33-.54,1.05-.44,1.51,1.56,7.77-3.2,13.64-11.17,13.66-8.89.02-17.78,0-26.68,0-.4,0-.93.13-1.19-.07-.54-.42-1.24-.99-1.29-1.55-.04-.43.75-1.09,1.3-1.36.47-.23,1.14-.07,1.73-.07,8.94,0,17.87.02,26.81-.01,4.72-.02,8.17-3.84,7.74-8.44-.37-3.87-3.8-6.85-8.02-6.86-9.75-.03-19.49-.01-29.24-.01-2.78,0-5.46-.51-7.93-1.8-16.31-8.55-35.8-.79-43.47,14.03-.56,1.07-.43,1.68.41,2.51,8.54,8.48,17.03,17,25.54,25.51.36.36.77.69,1.44,1.27.76-.9,1.36-1.74,2.1-2.46,3.64-3.55,8.03-5.36,13.12-5.37,13.11-.01,26.23.01,39.34.03.55,0,.97,0,1.31-.02h4.21c1.52,0,3-.38,4.31-1.07,0,0,.02.01.03.02,0-.01.02-.03.02-.04,1.25-.67,2.35-1.62,3.19-2.81l3.44-4.87c.39-.49.78-.98,1.17-1.47,8.32-10.24,16.66-20.48,24.98-30.72,2.54-3.13,2.24-7.62-.66-10.39Z"/>
            </g>
            <circle class="cls-16" cx="268.2" cy="3726.05" r="36.25"/>
            <g>
              <path class="cls-4" d="M268.91,3745.93c-2.52,0-4.79-.3-6.82-.9-2.03-.6-3.83-1.48-5.39-2.63-1.57-1.15-2.98-2.51-4.22-4.08l5.64-6.41c1.83,2.45,3.66,4.09,5.5,4.93,1.84.84,3.75,1.26,5.72,1.26.99,0,1.88-.13,2.68-.38.8-.25,1.42-.63,1.86-1.12.44-.49.66-1.1.66-1.83,0-.55-.14-1.04-.41-1.48-.27-.44-.65-.82-1.12-1.15-.47-.33-1.04-.63-1.7-.9-.66-.27-1.35-.51-2.08-.71-.73-.2-1.48-.37-2.25-.52-2.12-.47-3.96-1.06-5.53-1.75-1.57-.69-2.88-1.54-3.92-2.55-1.04-1-1.82-2.15-2.33-3.45-.51-1.3-.77-2.75-.77-4.35,0-1.72.39-3.29,1.18-4.74.78-1.44,1.84-2.68,3.18-3.72,1.33-1.04,2.88-1.84,4.63-2.41,1.75-.57,3.58-.85,5.48-.85,2.52,0,4.68.27,6.49.79,1.81.53,3.36,1.29,4.66,2.27,1.3.99,2.4,2.17,3.31,3.56l-5.75,5.53c-.77-.95-1.6-1.73-2.49-2.36-.89-.62-1.84-1.1-2.85-1.42-1-.33-2.04-.49-3.09-.49s-2.04.14-2.82.41c-.79.27-1.4.66-1.83,1.15s-.66,1.09-.66,1.78c0,.62.18,1.15.55,1.59.36.44.86.83,1.48,1.18.62.35,1.33.64,2.14.88.8.24,1.64.43,2.52.57,2.01.4,3.82.93,5.45,1.59,1.62.66,3.03,1.46,4.22,2.41,1.19.95,2.1,2.07,2.74,3.37.64,1.3.96,2.8.96,4.52,0,2.67-.65,4.92-1.94,6.76-1.3,1.84-3.07,3.25-5.31,4.22-2.25.97-4.83,1.45-7.75,1.45Z"/>
              <g>
                <rect class="cls-4" x="264.49" y="3700.65" width="7.42" height="7.99"/>
                <rect class="cls-4" x="264.49" y="3743.46" width="7.42" height="7.99"/>
              </g>
            </g>
          </g>
          <g>
            <path class="cls-16" d="M284.73,3820.28v43.93h-137.35v-43.93h36.84c2.29,1.6,4.71,3.04,7.22,4.25h-39.91v35.4h129.05v-35.4h-39.91c2.52-1.21,4.94-2.65,7.22-4.25h36.84Z"/>
            <g>
              <polygon class="cls-16" points="191.47 3833.8 194.51 3839.98 201.33 3840.97 196.4 3845.78 197.56 3852.56 191.47 3849.36 185.37 3852.56 186.53 3845.78 181.6 3840.97 188.42 3839.98 191.47 3833.8"/>
              <polygon class="cls-16" points="166.88 3833.8 169.93 3839.98 176.74 3840.97 171.81 3845.78 172.97 3852.56 166.88 3849.36 160.78 3852.56 161.95 3845.78 157.02 3840.97 163.83 3839.98 166.88 3833.8"/>
              <polygon class="cls-16" points="216.05 3833.8 219.1 3839.98 225.91 3840.97 220.98 3845.78 222.15 3852.56 216.05 3849.36 209.96 3852.56 211.12 3845.78 206.19 3840.97 213 3839.98 216.05 3833.8"/>
              <polygon class="cls-16" points="240.64 3833.8 243.69 3839.98 250.5 3840.97 245.57 3845.78 246.73 3852.56 240.64 3849.36 234.54 3852.56 235.71 3845.78 230.78 3840.97 237.59 3839.98 240.64 3833.8"/>
              <polygon class="cls-16" points="265.22 3833.8 268.27 3839.98 275.09 3840.97 270.16 3845.78 271.32 3852.56 265.22 3849.36 259.13 3852.56 260.29 3845.78 255.36 3840.97 262.18 3839.98 265.22 3833.8"/>
            </g>
          </g>
        </g>
      </g>
      <g>
        <rect class="cls-4" x="337.83" y="798.69" width="151.29" height="24.8" transform="translate(1224.56 397.62) rotate(90)"/>
        <polygon class="cls-4" points="413.47 862.63 441.31 862.63 427.39 886.74 413.47 910.85 399.55 886.74 385.63 862.63 413.47 862.63"/>
      </g>
      <g>
        <rect class="cls-4" x="337.83" y="1689.84" width="151.29" height="24.8" transform="translate(2115.72 1288.77) rotate(90)"/>
        <polygon class="cls-4" points="413.47 1753.78 441.31 1753.78 427.39 1777.89 413.47 1802 399.55 1777.89 385.63 1753.78 413.47 1753.78"/>
      </g>
      <g>
        <rect class="cls-4" x="337.83" y="2580.99" width="151.29" height="24.8" transform="translate(3006.87 2179.93) rotate(90)"/>
        <polygon class="cls-4" points="413.47 2644.93 441.31 2644.93 427.39 2669.04 413.47 2693.15 399.55 2669.04 385.63 2644.93 413.47 2644.93"/>
      </g>
      <g>
        <rect class="cls-4" x="337.83" y="3472.15" width="151.29" height="24.8" transform="translate(3898.02 3071.08) rotate(90)"/>
        <polygon class="cls-4" points="413.47 3536.08 441.31 3536.08 427.39 3560.19 413.47 3584.3 399.55 3560.19 385.63 3536.08 413.47 3536.08"/>
      </g>
    </g>
  </g>
</svg>