<?xml version="1.0" encoding="UTF-8"?>
<svg id="Layer_2" data-name="Layer 2" xmlns="http://www.w3.org/2000/svg" xmlns:xlink="http://www.w3.org/1999/xlink" viewBox="0 0 768.61 4263.13">
  <defs>
    <style>
      .cls-1 {
        font-family: LexendDeca-Light, 'Lexend Deca';
        font-size: 49.59px;
        font-variation-settings: 'wght' 300;
        font-weight: 300;
      }

      .cls-1, .cls-2 {
        fill: #545454;
      }

      .cls-3 {
        letter-spacing: 0em;
      }

      .cls-4 {
        letter-spacing: 0em;
      }

      .cls-5 {
        letter-spacing: -.01em;
      }

      .cls-6, .cls-7, .cls-8, .cls-9, .cls-2, .cls-10, .cls-11, .cls-12, .cls-13, .cls-14 {
        stroke-width: 0px;
      }

      .cls-6, .cls-10 {
        fill: #97daff;
      }

      .cls-15 {
        letter-spacing: 0em;
      }

      .cls-16 {
        letter-spacing: 0em;
      }

      .cls-17 {
        font-family: LexendDeca-ExtraLight, 'Lexend Deca';
        font-size: 110.4px;
        font-variation-settings: 'wght' 200;
        font-weight: 200;
      }

      .cls-17, .cls-9 {
        fill: #21255e;
      }

      .cls-18 {
        letter-spacing: .02em;
      }

      .cls-19 {
        letter-spacing: -.02em;
      }

      .cls-7 {
        filter: url(#drop-shadow-2);
      }

      .cls-7, .cls-8, .cls-11, .cls-13, .cls-14 {
        fill: #f2f2f2;
      }

      .cls-20 {
        letter-spacing: -.02em;
      }

      .cls-21 {
        letter-spacing: .05em;
      }

      .cls-22 {
        letter-spacing: -.02em;
      }

      .cls-8 {
        filter: url(#drop-shadow-5);
      }

      .cls-23 {
        letter-spacing: -.02em;
      }

      .cls-24 {
        letter-spacing: 0em;
      }

      .cls-25 {
        letter-spacing: -.11em;
      }

      .cls-26 {
        letter-spacing: -.01em;
      }

      .cls-27 {
        letter-spacing: -.01em;
      }

      .cls-28 {
        letter-spacing: -.03em;
      }

      .cls-29 {
        font-family: LexendDeca-Bold, 'Lexend Deca';
        font-size: 68.79px;
        font-variation-settings: 'wght' 700;
        font-weight: 700;
      }

      .cls-29, .cls-12 {
        fill: #fff;
      }

      .cls-10 {
        fill-rule: evenodd;
      }

      .cls-11 {
        filter: url(#drop-shadow-3);
      }

      .cls-30 {
        letter-spacing: -.02em;
      }

      .cls-31 {
        letter-spacing: 0em;
      }

      .cls-32 {
        letter-spacing: 0em;
      }

      .cls-33 {
        letter-spacing: -.06em;
      }

      .cls-13 {
        filter: url(#drop-shadow-1);
      }

      .cls-34 {
        letter-spacing: -.01em;
      }

      .cls-14 {
        filter: url(#drop-shadow-4);
      }

      .cls-35 {
        fill: none;
        stroke: #21255e;
        stroke-miterlimit: 10;
      }

      .cls-36 {
        letter-spacing: -.11em;
      }

      .cls-37 {
        letter-spacing: -.05em;
      }

      .cls-38 {
        letter-spacing: -.02em;
      }
    </style>
    <filter id="drop-shadow-1" filterUnits="userSpaceOnUse">
      <feOffset dx="2" dy="2"/>
      <feGaussianBlur result="blur" stdDeviation="3"/>
      <feFlood flood-color="#000" flood-opacity=".06"/>
      <feComposite in2="blur" operator="in"/>
      <feComposite in="SourceGraphic"/>
    </filter>
    <filter id="drop-shadow-2" filterUnits="userSpaceOnUse">
      <feOffset dx="2" dy="2"/>
      <feGaussianBlur result="blur-2" stdDeviation="3"/>
      <feFlood flood-color="#000" flood-opacity=".06"/>
      <feComposite in2="blur-2" operator="in"/>
      <feComposite in="SourceGraphic"/>
    </filter>
    <filter id="drop-shadow-3" filterUnits="userSpaceOnUse">
      <feOffset dx="2" dy="2"/>
      <feGaussianBlur result="blur-3" stdDeviation="3"/>
      <feFlood flood-color="#000" flood-opacity=".06"/>
      <feComposite in2="blur-3" operator="in"/>
      <feComposite in="SourceGraphic"/>
    </filter>
    <filter id="drop-shadow-4" filterUnits="userSpaceOnUse">
      <feOffset dx="2" dy="2"/>
      <feGaussianBlur result="blur-4" stdDeviation="3"/>
      <feFlood flood-color="#000" flood-opacity=".06"/>
      <feComposite in2="blur-4" operator="in"/>
      <feComposite in="SourceGraphic"/>
    </filter>
    <filter id="drop-shadow-5" filterUnits="userSpaceOnUse">
      <feOffset dx="2" dy="2"/>
      <feGaussianBlur result="blur-5" stdDeviation="3"/>
      <feFlood flood-color="#000" flood-opacity=".06"/>
      <feComposite in2="blur-5" operator="in"/>
      <feComposite in="SourceGraphic"/>
    </filter>
  </defs>
  <g id="Layer_1-2" data-name="Layer 1">
    <g>
      <g>
        <rect class="cls-9" x="337.24" y="798.69" width="151.29" height="24.8" transform="translate(1223.98 398.21) rotate(90)"/>
        <polygon class="cls-9" points="412.89 862.63 440.73 862.63 426.81 886.74 412.89 910.85 398.97 886.74 385.05 862.63 412.89 862.63"/>
      </g>
      <g>
        <rect class="cls-9" x="337.24" y="1689.84" width="151.29" height="24.8" transform="translate(2115.13 1289.36) rotate(90)"/>
        <polygon class="cls-9" points="412.89 1753.78 440.73 1753.78 426.81 1777.89 412.89 1802 398.97 1777.89 385.05 1753.78 412.89 1753.78"/>
      </g>
      <g>
        <rect class="cls-9" x="337.24" y="2580.99" width="151.29" height="24.8" transform="translate(3006.28 2180.51) rotate(90)"/>
        <polygon class="cls-9" points="412.89 2644.93 440.73 2644.93 426.81 2669.04 412.89 2693.15 398.97 2669.04 385.05 2644.93 412.89 2644.93"/>
      </g>
      <g>
        <rect class="cls-9" x="337.24" y="3472.15" width="151.29" height="24.8" transform="translate(3897.44 3071.66) rotate(90)"/>
        <polygon class="cls-9" points="412.89 3536.08 440.73 3536.08 426.81 3560.19 412.89 3584.3 398.97 3560.19 385.05 3536.08 412.89 3536.08"/>
      </g>
      <g>
        <rect class="cls-13" x="68.87" y="309.51" width="688.19" height="378.12"/>
        <g>
          <path class="cls-9" d="M711.98,68.87H150.76c0,45.23-36.66,81.89-81.89,81.89v167.54c0,24.9,20.18,45.08,45.08,45.08h598.03c24.9,0,45.08-20.18,45.08-45.08V113.95c0-24.9-20.18-45.08-45.08-45.08Z"/>
          <path class="cls-35" d="M68.87,137.23C31.17,137.23.5,106.57.5,68.87S31.17.5,68.87.5s68.37,30.67,68.37,68.37-30.67,68.37-68.37,68.37Z"/>
        </g>
        <g>
          <g>
            <path class="cls-10" d="M270.38,164.37h0c-.55-.55-1.75,0-2.31,1.2,0,0,3.46-17.33.55-24.25-5.16-19.09-49.14-24.34-49.14-12.73-19.13,5.72-15.63,23.05-12.72,36.97,0,0-1.2-1.75-3.5,0-1.75,2.31.6,7.47,1.2,9.77.55,1.75,1.11,3.5,1.66,4.06v.64c0,2.31.64,3.41,1.75,3.41h0c4.61,16.78,17.98,30.61,29.5,30.61s24.34-13.83,28.95-30.61c.6,0,1.75-1.11,1.75-3.41h0c.55-1.2,1.11-2.4,1.75-4.7.55-2.31,2.86-9.22.55-10.97h0Z"/>
            <path class="cls-10" d="M310.29,267.33c-.43-45.44-18.39-34.96-52.68-53.82-5.7,5.1-12.57,9.12-20.52,9.22-7.95-.09-14.82-4.11-20.52-9.22-34.29,18.86-52.25,8.38-52.68,53.82,0,.55-.01,1.11-.01,1.68h146.41c0-.57,0-1.13-.01-1.68Z"/>
          </g>
          <g>
            <path class="cls-6" d="M180.72,300.29c-1.35,0-2.54-.15-3.58-.45-1.03-.3-1.94-.72-2.72-1.27-.78-.55-1.47-1.19-2.09-1.92l3.2-3.59c.85,1.09,1.75,1.82,2.68,2.17.93.35,1.81.53,2.63.53.32,0,.62-.03.87-.09.26-.06.45-.16.59-.29.14-.14.21-.32.21-.56,0-.22-.07-.41-.22-.56-.15-.15-.34-.29-.58-.4-.24-.11-.5-.21-.78-.28-.28-.08-.56-.14-.82-.19-.27-.05-.5-.1-.7-.15-1.03-.24-1.92-.53-2.69-.87-.77-.34-1.41-.75-1.92-1.23-.51-.48-.89-1.03-1.14-1.64-.25-.62-.37-1.31-.37-2.08,0-.87.2-1.67.6-2.38.4-.72.94-1.33,1.62-1.85.68-.51,1.44-.91,2.31-1.18.86-.27,1.76-.41,2.68-.41,1.35,0,2.48.12,3.38.37.91.25,1.67.6,2.28,1.06.62.46,1.14,1,1.59,1.62l-3.23,3.1c-.38-.36-.77-.65-1.18-.88s-.83-.4-1.27-.51c-.44-.11-.87-.17-1.29-.17-.39,0-.73.03-1,.09-.27.06-.49.15-.64.28-.15.13-.23.3-.23.53s.1.41.29.55c.2.15.44.27.74.37.3.1.6.18.9.24.3.06.55.11.76.14.94.17,1.8.41,2.59.71.79.3,1.47.68,2.06,1.13.59.45,1.04,1.02,1.36,1.69.32.68.47,1.47.47,2.4,0,1.32-.33,2.42-.99,3.31-.66.89-1.54,1.56-2.65,2.01-1.11.45-2.35.68-3.72.68Z"/>
            <path class="cls-6" d="M190.75,300.03v-4.49h3.15v-8.97h-3.15v-4.49h11.84v4.49h-3.15v8.97h3.15v4.49h-11.84Z"/>
            <path class="cls-6" d="M214.74,300.29c-1.54,0-2.9-.23-4.09-.69-1.19-.46-2.19-1.11-3.01-1.95-.82-.84-1.44-1.83-1.86-2.97-.42-1.14-.63-2.39-.63-3.74s.23-2.62.71-3.76c.47-1.14,1.15-2.12,2.04-2.96.89-.84,1.94-1.49,3.17-1.95,1.22-.46,2.59-.69,4.09-.69,1.04,0,2.01.13,2.91.38.9.26,1.71.6,2.44,1.04.73.44,1.35.93,1.88,1.47l-3.28,3.49c-.34-.32-.71-.61-1.1-.86-.39-.25-.83-.44-1.31-.59-.48-.14-1.02-.22-1.62-.22s-1.18.12-1.69.35-.96.55-1.33.96c-.38.41-.67.9-.88,1.47-.21.57-.32,1.19-.32,1.86s.11,1.29.33,1.86c.22.57.53,1.06.92,1.47.39.41.86.73,1.41.96.55.23,1.15.35,1.79.35.44,0,.85-.07,1.22-.22.37-.14.68-.34.95-.59.26-.25.47-.55.63-.9.15-.35.23-.73.23-1.14v-.74l.72,1.23h-4.56v-3.9h8.82c.02.19.04.5.06.92.03.43.04.85.05,1.27,0,.42.01.71.01.86,0,1.15-.21,2.21-.64,3.18-.43.97-1.03,1.81-1.81,2.51-.78.7-1.7,1.25-2.76,1.64-1.06.39-2.22.59-3.49.59Z"/>
            <path class="cls-6" d="M226.51,300.03v-17.95h4.95l8.26,11.41-1.18-.36c-.09-.68-.16-1.28-.22-1.79-.06-.51-.11-.99-.15-1.42-.04-.44-.08-.87-.1-1.29-.03-.43-.04-.9-.04-1.41v-5.13h5.33v17.95h-5l-9.1-12.56,2.08.62c.09.63.16,1.18.22,1.65.06.47.11.9.14,1.29.03.39.06.78.09,1.17.03.38.04.81.05,1.28,0,.47.01,1.02.01,1.65v4.9h-5.33Z"/>
            <path class="cls-6" d="M264.43,300.19c-1.56,0-2.94-.3-4.14-.91-1.2-.61-2.15-1.44-2.83-2.5-.68-1.06-1.03-2.27-1.03-3.64v-11.05h5.59v10.82c0,.5.1.94.31,1.32.21.38.49.69.86.91.37.22.78.33,1.24.33.5,0,.93-.11,1.31-.33.38-.22.68-.53.9-.91.22-.38.33-.82.33-1.32v-10.82h5.46v11.05c0,1.37-.34,2.58-1.03,3.64-.68,1.06-1.63,1.89-2.83,2.5-1.2.61-2.59.91-4.14.91Z"/>
            <path class="cls-6" d="M276.53,300.03v-17.95h8.08c1.23,0,2.32.27,3.28.79.96.53,1.71,1.26,2.26,2.18.55.92.82,1.98.82,3.18s-.27,2.36-.82,3.33c-.55.97-1.3,1.74-2.26,2.29-.96.56-2.05.83-3.28.83h-2.54v5.33h-5.54ZM281.97,289.98h1.62c.32,0,.62-.06.87-.19.26-.13.46-.31.6-.55.15-.24.22-.54.22-.9s-.07-.65-.22-.87c-.15-.22-.35-.39-.6-.5-.26-.11-.55-.17-.87-.17h-1.62v3.18Z"/>
          </g>
          <path class="cls-6" d="M307.98,325.8c-9.75,0-17.68-7.93-17.68-17.68s7.93-17.68,17.68-17.68,17.69,7.93,17.69,17.68-7.93,17.68-17.69,17.68Z"/>
          <path class="cls-6" d="M310.3,272.82v14.11c-.76-.08-1.54-.13-2.32-.13-.41,0-.81.01-1.22.04v-10.39h-139.33v30.09h119.3c-.04.52-.06,1.04-.06,1.57,0,.69.04,1.38.1,2.06h-122.87v-37.35h146.41Z"/>
          <polygon class="cls-9" points="297.15 297.81 306.37 319.3 309.24 312.27 315.61 318.62 318.15 316.08 311.78 309.72 318.81 306.84 297.15 297.81"/>
        </g>
        <g>
          <path class="cls-2" d="M144.91,447.77c-2.48,0-4.76-.44-6.84-1.31s-3.88-2.11-5.4-3.72c-1.52-1.6-2.7-3.5-3.55-5.68-.84-2.18-1.26-4.56-1.26-7.14s.42-4.88,1.26-7.02c.84-2.13,2.04-4,3.59-5.6,1.55-1.6,3.36-2.83,5.41-3.69,2.05-.86,4.3-1.29,6.74-1.29,1.62,0,3.22.26,4.81.77,1.59.51,3.05,1.21,4.39,2.11s2.44,1.92,3.3,3.07l-2.68,2.78c-.83-.99-1.78-1.85-2.85-2.58s-2.21-1.29-3.4-1.69c-1.19-.4-2.38-.6-3.57-.6-1.85,0-3.58.34-5.18,1.02-1.6.68-2.98,1.63-4.14,2.85-1.16,1.22-2.06,2.68-2.7,4.36-.64,1.69-.97,3.52-.97,5.5s.32,3.93.97,5.65c.64,1.72,1.57,3.2,2.78,4.44,1.21,1.24,2.63,2.2,4.26,2.88,1.64.68,3.46,1.02,5.48,1.02,1.19,0,2.38-.17,3.57-.52s2.28-.83,3.27-1.46c.99-.63,1.83-1.34,2.53-2.13l1.98,3.22c-.76.93-1.78,1.74-3.05,2.45-1.27.71-2.67,1.27-4.19,1.69-1.52.41-3.04.62-4.56.62Z"/>
          <path class="cls-2" d="M171.73,447.77c-1.98,0-3.66-.41-5.03-1.21-1.37-.81-2.41-1.99-3.12-3.55-.71-1.55-1.07-3.49-1.07-5.8v-15.82h3.77v15.07c0,1.75.24,3.22.72,4.39.48,1.17,1.21,2.06,2.18,2.65.98.6,2.17.89,3.6.89,1.09,0,2.1-.19,3.02-.57.92-.38,1.74-.9,2.43-1.56.69-.66,1.24-1.44,1.64-2.33.4-.89.59-1.83.59-2.83v-15.72h3.72v25.88h-3.67l-.15-5.45.6-.3c-.4,1.16-1.06,2.21-1.98,3.15-.93.94-2.03,1.69-3.3,2.26-1.27.56-2.59.84-3.94.84Z"/>
          <path class="cls-2" d="M199.9,447.77c-2.22,0-4.2-.41-5.95-1.24-1.75-.83-3.14-1.92-4.17-3.27l2.63-2.28c.96,1.16,2.09,2.03,3.4,2.63,1.3.6,2.77.89,4.39.89.83,0,1.57-.09,2.23-.27s1.24-.45,1.74-.82c.5-.36.88-.79,1.14-1.29.26-.5.4-1.04.4-1.64,0-1.09-.48-2-1.44-2.73-.43-.3-1.04-.6-1.83-.92-.79-.31-1.75-.62-2.88-.92-1.85-.53-3.39-1.07-4.61-1.61-1.22-.55-2.18-1.18-2.88-1.91-.5-.6-.87-1.24-1.12-1.93-.25-.69-.37-1.45-.37-2.28,0-1.06.22-2.03.67-2.93s1.07-1.68,1.88-2.36c.81-.68,1.77-1.19,2.88-1.54,1.11-.35,2.31-.52,3.59-.52,1.22,0,2.43.17,3.62.5,1.19.33,2.3.81,3.32,1.44s1.9,1.37,2.63,2.23l-2.28,2.48c-.63-.66-1.32-1.26-2.08-1.79-.76-.53-1.56-.94-2.4-1.24-.84-.3-1.71-.45-2.6-.45-.79,0-1.53.1-2.21.3-.68.2-1.26.47-1.74.82s-.84.77-1.09,1.26c-.25.5-.37,1.04-.37,1.64,0,.5.1.94.3,1.34.2.4.48.74.84,1.04.46.36,1.12.7,1.96,1.02.84.31,1.89.64,3.15.97,1.45.4,2.69.8,3.69,1.21,1.01.41,1.84.9,2.5,1.46.89.66,1.53,1.42,1.91,2.28.38.86.57,1.83.57,2.93,0,1.46-.41,2.74-1.21,3.87-.81,1.12-1.93,2.01-3.35,2.65-1.42.64-3.04.97-4.86.97Z"/>
          <path class="cls-2" d="M212.89,424.96v-3.57h16.12v3.57h-16.12ZM218.74,447.27v-32.68h3.72v32.68h-3.72Z"/>
          <path class="cls-2" d="M244.77,447.77c-2.58,0-4.87-.58-6.87-1.74-2-1.16-3.57-2.76-4.71-4.81-1.14-2.05-1.71-4.38-1.71-6.99s.57-4.88,1.71-6.89c1.14-2.02,2.71-3.6,4.71-4.76,2-1.16,4.29-1.74,6.87-1.74s4.82.58,6.82,1.74c2,1.16,3.57,2.74,4.71,4.76,1.14,2.02,1.71,4.31,1.71,6.89s-.57,4.94-1.71,6.99c-1.14,2.05-2.71,3.65-4.71,4.81-2,1.16-4.27,1.74-6.82,1.74ZM244.77,444.25c1.82,0,3.44-.44,4.86-1.31,1.42-.88,2.53-2.07,3.32-3.57.79-1.5,1.19-3.21,1.19-5.13s-.4-3.62-1.19-5.11c-.79-1.49-1.9-2.65-3.32-3.5-1.42-.84-3.04-1.26-4.86-1.26s-3.45.42-4.88,1.26c-1.44.84-2.56,2.02-3.37,3.52-.81,1.5-1.2,3.2-1.17,5.08-.03,1.92.36,3.63,1.17,5.13.81,1.5,1.93,2.69,3.37,3.57,1.44.88,3.07,1.31,4.88,1.31Z"/>
          <path class="cls-2" d="M263.36,447.27v-25.88h3.72l.1,5.9-.74.25c.26-.99.7-1.89,1.31-2.7.61-.81,1.35-1.51,2.21-2.11s1.8-1.05,2.83-1.36c1.02-.31,2.1-.47,3.22-.47,1.36,0,2.57.22,3.64.67,1.07.45,1.98,1.21,2.73,2.28.74,1.07,1.31,2.49,1.71,4.24l-.89-.45.35-.84c.33-.76.82-1.5,1.46-2.21.64-.71,1.39-1.35,2.23-1.91.84-.56,1.77-1,2.78-1.31,1.01-.31,2.04-.47,3.1-.47,1.82,0,3.35.39,4.61,1.17,1.26.78,2.21,1.96,2.85,3.55s.97,3.6.97,6.05v15.62h-3.82v-15.42c0-1.72-.22-3.12-.64-4.21-.43-1.09-1.07-1.91-1.91-2.45s-1.91-.82-3.2-.82c-1.12,0-2.16.19-3.1.57-.94.38-1.75.91-2.43,1.59-.68.68-1.21,1.45-1.59,2.31-.38.86-.57,1.79-.57,2.78v15.67h-3.77v-15.47c0-1.65-.22-3.02-.67-4.12s-1.1-1.92-1.96-2.48c-.86-.56-1.92-.84-3.17-.84-1.09,0-2.1.19-3.03.57-.93.38-1.73.9-2.4,1.56-.68.66-1.21,1.42-1.59,2.28-.38.86-.57,1.79-.57,2.78v15.72h-3.77Z"/>
          <path class="cls-2" d="M319.99,447.77c-2.58,0-4.87-.56-6.87-1.69-2-1.12-3.56-2.69-4.69-4.71-1.12-2.02-1.69-4.33-1.69-6.94,0-2.02.31-3.84.94-5.48.63-1.64,1.51-3.07,2.65-4.29,1.14-1.22,2.5-2.17,4.09-2.85,1.59-.68,3.3-1.02,5.16-1.02,1.75,0,3.35.31,4.78.94,1.44.63,2.68,1.5,3.72,2.6,1.04,1.11,1.83,2.42,2.36,3.94.53,1.52.76,3.19.69,5.01l-.05,1.74h-21.57l-.54-3.12h19.29l-.89.84v-1.19c-.07-1.19-.41-2.34-1.04-3.45-.63-1.11-1.51-2.01-2.65-2.7-1.14-.69-2.5-1.04-4.09-1.04-1.85,0-3.46.37-4.81,1.12s-2.4,1.84-3.12,3.3c-.73,1.46-1.09,3.26-1.09,5.4s.4,3.83,1.19,5.33c.79,1.5,1.93,2.67,3.4,3.5,1.47.83,3.25,1.24,5.33,1.24,1.22,0,2.44-.21,3.64-.62,1.21-.41,2.54-1.23,3.99-2.45l1.93,2.68c-.76.76-1.67,1.43-2.73,2.01-1.06.58-2.22,1.04-3.47,1.39-1.26.35-2.55.52-3.87.52Z"/>
          <path class="cls-2" d="M336.45,447.27v-25.88h3.72l.1,6.89-.4-.94c.36-1.16.95-2.23,1.76-3.22.81-.99,1.78-1.78,2.9-2.38,1.12-.6,2.36-.89,3.72-.89.56,0,1.09.04,1.59.12.5.08.91.19,1.24.32l-1.04,4.17c-.43-.2-.87-.34-1.31-.42-.45-.08-.87-.12-1.26-.12-1.12,0-2.13.2-3.03.6-.89.4-1.65.95-2.28,1.66-.63.71-1.11,1.53-1.44,2.45-.33.93-.5,1.92-.5,2.98v14.68h-3.77Z"/>
          <path class="cls-2" d="M363.43,447.77c-2.22,0-4.2-.41-5.95-1.24-1.75-.83-3.14-1.92-4.17-3.27l2.63-2.28c.96,1.16,2.09,2.03,3.4,2.63,1.3.6,2.77.89,4.39.89.83,0,1.57-.09,2.23-.27s1.24-.45,1.74-.82c.5-.36.88-.79,1.14-1.29.26-.5.4-1.04.4-1.64,0-1.09-.48-2-1.44-2.73-.43-.3-1.04-.6-1.83-.92-.79-.31-1.75-.62-2.88-.92-1.85-.53-3.39-1.07-4.61-1.61-1.22-.55-2.18-1.18-2.88-1.91-.5-.6-.87-1.24-1.12-1.93-.25-.69-.37-1.45-.37-2.28,0-1.06.22-2.03.67-2.93s1.07-1.68,1.88-2.36c.81-.68,1.77-1.19,2.88-1.54,1.11-.35,2.31-.52,3.59-.52,1.22,0,2.43.17,3.62.5,1.19.33,2.3.81,3.32,1.44s1.9,1.37,2.63,2.23l-2.28,2.48c-.63-.66-1.32-1.26-2.08-1.79-.76-.53-1.56-.94-2.4-1.24-.84-.3-1.71-.45-2.6-.45-.79,0-1.53.1-2.21.3-.68.2-1.26.47-1.74.82s-.84.77-1.09,1.26c-.25.5-.37,1.04-.37,1.64,0,.5.1.94.3,1.34.2.4.48.74.84,1.04.46.36,1.12.7,1.96,1.02.84.31,1.89.64,3.15.97,1.45.4,2.69.8,3.69,1.21,1.01.41,1.84.9,2.5,1.46.89.66,1.53,1.42,1.91,2.28.38.86.57,1.83.57,2.93,0,1.46-.41,2.74-1.21,3.87-.81,1.12-1.93,2.01-3.35,2.65-1.42.64-3.04.97-4.86.97Z"/>
          <path class="cls-2" d="M403.49,447.77c-2.45,0-4.63-.59-6.55-1.76-1.92-1.17-3.43-2.78-4.54-4.81s-1.66-4.34-1.66-6.92.55-4.88,1.66-6.92,2.62-3.63,4.54-4.79c1.92-1.16,4.12-1.74,6.59-1.74,2.21,0,4.23.44,6.05,1.31,1.82.88,3.27,2.09,4.36,3.64l-2.18,2.68c-.63-.83-1.38-1.55-2.26-2.18-.88-.63-1.82-1.12-2.83-1.46-1.01-.35-2.01-.52-3-.52-1.75,0-3.32.44-4.71,1.31-1.39.88-2.49,2.06-3.3,3.55-.81,1.49-1.21,3.19-1.21,5.11s.41,3.63,1.21,5.13c.81,1.5,1.91,2.69,3.3,3.55,1.39.86,2.94,1.29,4.66,1.29.99,0,1.97-.16,2.93-.47.96-.31,1.87-.77,2.73-1.36s1.65-1.34,2.38-2.23l2.18,2.68c-1.12,1.49-2.63,2.68-4.51,3.57-1.88.89-3.83,1.34-5.85,1.34Z"/>
          <path class="cls-2" d="M418.66,447.27v-25.88h3.72l.1,6.89-.4-.94c.36-1.16.95-2.23,1.76-3.22.81-.99,1.78-1.78,2.9-2.38,1.12-.6,2.36-.89,3.72-.89.56,0,1.09.04,1.59.12.5.08.91.19,1.24.32l-1.04,4.17c-.43-.2-.87-.34-1.31-.42-.45-.08-.87-.12-1.26-.12-1.12,0-2.13.2-3.03.6-.89.4-1.65.95-2.28,1.66-.63.71-1.11,1.53-1.44,2.45-.33.93-.5,1.92-.5,2.98v14.68h-3.77Z"/>
          <path class="cls-2" d="M447.47,447.77c-2.58,0-4.87-.56-6.87-1.69-2-1.12-3.56-2.69-4.69-4.71-1.12-2.02-1.69-4.33-1.69-6.94,0-2.02.31-3.84.94-5.48.63-1.64,1.51-3.07,2.65-4.29,1.14-1.22,2.5-2.17,4.09-2.85,1.59-.68,3.3-1.02,5.16-1.02,1.75,0,3.35.31,4.78.94,1.44.63,2.68,1.5,3.72,2.6,1.04,1.11,1.83,2.42,2.36,3.94.53,1.52.76,3.19.69,5.01l-.05,1.74h-21.57l-.54-3.12h19.29l-.89.84v-1.19c-.07-1.19-.41-2.34-1.04-3.45-.63-1.11-1.51-2.01-2.65-2.7-1.14-.69-2.5-1.04-4.09-1.04-1.85,0-3.46.37-4.81,1.12s-2.4,1.84-3.12,3.3c-.73,1.46-1.09,3.26-1.09,5.4s.4,3.83,1.19,5.33c.79,1.5,1.93,2.67,3.4,3.5,1.47.83,3.25,1.24,5.33,1.24,1.22,0,2.44-.21,3.64-.62,1.21-.41,2.54-1.23,3.99-2.45l1.93,2.68c-.76.76-1.67,1.43-2.73,2.01-1.06.58-2.22,1.04-3.47,1.39-1.26.35-2.55.52-3.87.52Z"/>
          <path class="cls-2" d="M474.05,447.77c-2.25,0-4.28-.59-6.1-1.76-1.82-1.17-3.26-2.78-4.31-4.81-1.06-2.03-1.59-4.34-1.59-6.92s.54-4.92,1.64-6.94c1.09-2.02,2.55-3.6,4.39-4.76,1.83-1.16,3.89-1.74,6.17-1.74,1.35,0,2.61.2,3.77.6,1.16.4,2.19.95,3.1,1.66.91.71,1.67,1.54,2.28,2.48.61.94,1.03,1.96,1.26,3.05l-1.09-.55.15-6.69h3.72v25.88h-3.77v-6.35l.99-.64c-.23.99-.68,1.94-1.34,2.85-.66.91-1.46,1.71-2.41,2.41-.94.69-2,1.24-3.17,1.64-1.17.4-2.4.6-3.69.6ZM474.89,444.2c1.72,0,3.26-.42,4.61-1.26,1.36-.84,2.42-2.02,3.2-3.52.78-1.5,1.17-3.21,1.17-5.13s-.39-3.62-1.17-5.11c-.78-1.49-1.84-2.66-3.2-3.52-1.36-.86-2.89-1.29-4.61-1.29s-3.3.43-4.64,1.29c-1.34.86-2.4,2.03-3.17,3.52-.78,1.49-1.17,3.19-1.17,5.11s.38,3.58,1.14,5.08c.76,1.5,1.82,2.69,3.17,3.54,1.36.86,2.91,1.29,4.66,1.29Z"/>
          <path class="cls-2" d="M492.4,424.96v-3.57h16.12v3.57h-16.12ZM498.25,447.27v-32.68h3.72v32.68h-3.72Z"/>
          <path class="cls-2" d="M524.23,447.77c-2.58,0-4.87-.56-6.87-1.69-2-1.12-3.56-2.69-4.69-4.71-1.12-2.02-1.69-4.33-1.69-6.94,0-2.02.31-3.84.94-5.48.63-1.64,1.51-3.07,2.65-4.29,1.14-1.22,2.5-2.17,4.09-2.85,1.59-.68,3.31-1.02,5.16-1.02,1.75,0,3.35.31,4.79.94,1.44.63,2.68,1.5,3.72,2.6,1.04,1.11,1.83,2.42,2.36,3.94.53,1.52.76,3.19.69,5.01l-.05,1.74h-21.57l-.55-3.12h19.29l-.89.84v-1.19c-.07-1.19-.41-2.34-1.04-3.45-.63-1.11-1.51-2.01-2.65-2.7-1.14-.69-2.5-1.04-4.09-1.04-1.85,0-3.46.37-4.81,1.12-1.36.74-2.4,1.84-3.12,3.3-.73,1.46-1.09,3.26-1.09,5.4s.4,3.83,1.19,5.33c.79,1.5,1.92,2.67,3.4,3.5,1.47.83,3.25,1.24,5.33,1.24,1.22,0,2.44-.21,3.64-.62,1.21-.41,2.54-1.23,3.99-2.45l1.93,2.68c-.76.76-1.67,1.43-2.73,2.01-1.06.58-2.21,1.04-3.47,1.39-1.26.35-2.55.52-3.87.52Z"/>
          <path class="cls-2" d="M564.69,447.77c-2.25,0-4.28-.59-6.1-1.76-1.82-1.17-3.26-2.78-4.31-4.81-1.06-2.03-1.59-4.34-1.59-6.92s.55-4.92,1.64-6.94c1.09-2.02,2.55-3.6,4.39-4.76,1.83-1.16,3.89-1.74,6.17-1.74,1.36,0,2.61.2,3.77.6,1.16.4,2.19.95,3.1,1.66.91.71,1.67,1.54,2.28,2.48.61.94,1.03,1.96,1.26,3.05l-1.09-.55.15-6.69h3.72v25.88h-3.77v-6.35l.99-.64c-.23.99-.68,1.94-1.34,2.85-.66.91-1.46,1.71-2.4,2.41-.94.69-2,1.24-3.17,1.64-1.17.4-2.41.6-3.69.6ZM565.54,444.2c1.72,0,3.26-.42,4.61-1.26,1.36-.84,2.42-2.02,3.2-3.52.78-1.5,1.17-3.21,1.17-5.13s-.39-3.62-1.17-5.11c-.78-1.49-1.84-2.66-3.2-3.52-1.36-.86-2.89-1.29-4.61-1.29s-3.3.43-4.64,1.29c-1.34.86-2.4,2.03-3.17,3.52-.78,1.49-1.17,3.19-1.17,5.11s.38,3.58,1.14,5.08c.76,1.5,1.82,2.69,3.17,3.54,1.36.86,2.91,1.29,4.66,1.29Z"/>
          <path class="cls-2" d="M585.32,447.27v-25.88h3.67l.15,5.4-.59.25c.33-1.12.97-2.15,1.93-3.07.96-.93,2.11-1.68,3.45-2.26,1.34-.58,2.72-.87,4.14-.87,1.92,0,3.52.38,4.81,1.14,1.29.76,2.26,1.93,2.93,3.52.66,1.59.99,3.6.99,6.05v15.72h-3.77v-15.52c0-1.72-.22-3.13-.67-4.24-.45-1.11-1.13-1.93-2.06-2.45-.93-.53-2.07-.78-3.42-.74-1.12,0-2.17.19-3.12.57-.96.38-1.79.9-2.48,1.56-.69.66-1.24,1.42-1.64,2.28-.4.86-.59,1.79-.59,2.78v15.77h-3.72Z"/>
          <path class="cls-2" d="M637.88,447.77c-2.25,0-4.28-.59-6.1-1.76-1.82-1.17-3.26-2.78-4.31-4.81-1.06-2.03-1.59-4.34-1.59-6.92s.55-4.92,1.64-6.94c1.09-2.02,2.55-3.6,4.39-4.76,1.83-1.16,3.89-1.74,6.17-1.74,1.36,0,2.61.2,3.77.6,1.16.4,2.19.95,3.1,1.66.91.71,1.67,1.54,2.28,2.48.61.94,1.03,1.96,1.26,3.05l-1.09-.55.15-6.69h3.72v25.88h-3.77v-6.35l.99-.64c-.23.99-.68,1.94-1.34,2.85-.66.91-1.46,1.71-2.4,2.41-.94.69-2,1.24-3.17,1.64-1.17.4-2.41.6-3.69.6ZM638.72,444.2c1.72,0,3.26-.42,4.61-1.26,1.36-.84,2.42-2.02,3.2-3.52.78-1.5,1.17-3.21,1.17-5.13s-.39-3.62-1.17-5.11c-.78-1.49-1.84-2.66-3.2-3.52-1.36-.86-2.89-1.29-4.61-1.29s-3.3.43-4.64,1.29c-1.34.86-2.4,2.03-3.17,3.52-.78,1.49-1.17,3.19-1.17,5.11s.38,3.58,1.14,5.08c.76,1.5,1.82,2.69,3.17,3.54,1.36.86,2.91,1.29,4.66,1.29Z"/>
          <path class="cls-2" d="M669.42,447.77c-2.45,0-4.63-.59-6.54-1.76-1.92-1.17-3.43-2.78-4.54-4.81-1.11-2.03-1.66-4.34-1.66-6.92s.55-4.88,1.66-6.92c1.11-2.03,2.62-3.63,4.54-4.79,1.92-1.16,4.12-1.74,6.59-1.74,2.21,0,4.23.44,6.05,1.31,1.82.88,3.27,2.09,4.36,3.64l-2.18,2.68c-.63-.83-1.38-1.55-2.26-2.18-.88-.63-1.82-1.12-2.83-1.46-1.01-.35-2.01-.52-3-.52-1.75,0-3.32.44-4.71,1.31-1.39.88-2.49,2.06-3.3,3.55-.81,1.49-1.21,3.19-1.21,5.11s.4,3.63,1.21,5.13c.81,1.5,1.91,2.69,3.3,3.55,1.39.86,2.94,1.29,4.66,1.29.99,0,1.97-.16,2.93-.47.96-.31,1.87-.77,2.73-1.36.86-.6,1.65-1.34,2.38-2.23l2.18,2.68c-1.12,1.49-2.63,2.68-4.51,3.57-1.88.89-3.84,1.34-5.85,1.34Z"/>
          <path class="cls-2" d="M683.75,435.32v-3.72h13.98v3.72h-13.98Z"/>
          <path class="cls-2" d="M145.68,507.27c-2.45,0-4.63-.59-6.55-1.76-1.92-1.17-3.43-2.78-4.54-4.81s-1.66-4.34-1.66-6.92.55-4.88,1.66-6.92,2.62-3.63,4.54-4.79c1.92-1.16,4.12-1.74,6.59-1.74,2.21,0,4.23.44,6.05,1.31,1.82.88,3.27,2.09,4.36,3.64l-2.18,2.68c-.63-.83-1.38-1.55-2.26-2.18-.88-.63-1.82-1.12-2.83-1.46-1.01-.35-2.01-.52-3-.52-1.75,0-3.32.44-4.71,1.31-1.39.88-2.49,2.06-3.3,3.55-.81,1.49-1.21,3.19-1.21,5.11s.41,3.63,1.21,5.13c.81,1.5,1.91,2.69,3.3,3.55,1.39.86,2.94,1.29,4.66,1.29.99,0,1.97-.16,2.93-.47.96-.31,1.87-.77,2.73-1.36s1.65-1.34,2.38-2.23l2.18,2.68c-1.12,1.49-2.63,2.68-4.51,3.57-1.88.89-3.83,1.34-5.85,1.34Z"/>
          <path class="cls-2" d="M172.3,507.27c-2.58,0-4.87-.58-6.87-1.74-2-1.16-3.57-2.76-4.71-4.81-1.14-2.05-1.71-4.38-1.71-6.99s.57-4.88,1.71-6.89c1.14-2.02,2.71-3.6,4.71-4.76,2-1.16,4.29-1.74,6.87-1.74s4.82.58,6.82,1.74c2,1.16,3.57,2.74,4.71,4.76,1.14,2.02,1.71,4.31,1.71,6.89s-.57,4.94-1.71,6.99c-1.14,2.05-2.71,3.65-4.71,4.81-2,1.16-4.27,1.74-6.82,1.74ZM172.3,503.75c1.82,0,3.44-.44,4.86-1.31,1.42-.88,2.53-2.07,3.32-3.57.79-1.5,1.19-3.21,1.19-5.13s-.4-3.62-1.19-5.11c-.79-1.49-1.9-2.65-3.32-3.5-1.42-.84-3.04-1.26-4.86-1.26s-3.45.42-4.88,1.26c-1.44.84-2.56,2.02-3.37,3.52-.81,1.5-1.2,3.2-1.17,5.08-.03,1.92.36,3.63,1.17,5.13.81,1.5,1.93,2.69,3.37,3.57,1.44.88,3.07,1.31,4.88,1.31Z"/>
          <path class="cls-2" d="M200.12,507.27c-1.98,0-3.66-.41-5.03-1.21-1.37-.81-2.41-1.99-3.12-3.55-.71-1.55-1.07-3.49-1.07-5.8v-15.82h3.77v15.07c0,1.75.24,3.22.72,4.39.48,1.17,1.21,2.06,2.18,2.65.98.6,2.17.89,3.6.89,1.09,0,2.1-.19,3.02-.57.92-.38,1.74-.9,2.43-1.56.69-.66,1.24-1.44,1.64-2.33.4-.89.59-1.83.59-2.83v-15.72h3.72v25.88h-3.67l-.15-5.45.6-.3c-.4,1.16-1.06,2.21-1.98,3.15-.93.94-2.03,1.69-3.3,2.26-1.27.56-2.59.84-3.94.84Z"/>
          <path class="cls-2" d="M219.81,506.78v-25.88h3.67l.15,5.4-.6.25c.33-1.12.97-2.15,1.93-3.07.96-.93,2.11-1.68,3.45-2.26,1.34-.58,2.72-.87,4.14-.87,1.92,0,3.52.38,4.81,1.14,1.29.76,2.26,1.93,2.92,3.52s.99,3.6.99,6.05v15.72h-3.77v-15.52c0-1.72-.22-3.13-.67-4.24-.45-1.11-1.13-1.93-2.06-2.45-.93-.53-2.07-.78-3.42-.74-1.12,0-2.17.19-3.12.57-.96.38-1.79.9-2.48,1.56-.69.66-1.24,1.42-1.64,2.28-.4.86-.59,1.79-.59,2.78v15.77h-3.72Z"/>
          <path class="cls-2" d="M246.09,484.46v-3.57h16.12v3.57h-16.12ZM251.94,506.78v-32.68h3.72v32.68h-3.72Z"/>
          <path class="cls-2" d="M290.76,507.27c-2.25,0-4.28-.59-6.1-1.76-1.82-1.17-3.26-2.78-4.31-4.81-1.06-2.03-1.59-4.34-1.59-6.92s.54-4.92,1.64-6.94c1.09-2.02,2.55-3.6,4.39-4.76,1.83-1.16,3.89-1.74,6.17-1.74,1.35,0,2.61.2,3.77.6,1.16.4,2.19.95,3.1,1.66.91.71,1.67,1.54,2.28,2.48.61.94,1.03,1.96,1.26,3.05l-1.09-.55.15-6.69h3.72v25.88h-3.77v-6.35l.99-.64c-.23.99-.68,1.94-1.34,2.85-.66.91-1.46,1.71-2.41,2.41-.94.69-2,1.24-3.17,1.64-1.17.4-2.4.6-3.69.6ZM291.6,503.7c1.72,0,3.26-.42,4.61-1.26,1.36-.84,2.42-2.02,3.2-3.52.78-1.5,1.17-3.21,1.17-5.13s-.39-3.62-1.17-5.11c-.78-1.49-1.84-2.66-3.2-3.52-1.36-.86-2.89-1.29-4.61-1.29s-3.3.43-4.64,1.29c-1.34.86-2.4,2.03-3.17,3.52-.78,1.49-1.17,3.19-1.17,5.11s.38,3.58,1.14,5.08c.76,1.5,1.82,2.69,3.17,3.54,1.36.86,2.91,1.29,4.66,1.29Z"/>
          <path class="cls-2" d="M311.39,506.78v-25.88h3.67l.15,5.4-.6.25c.33-1.12.97-2.15,1.93-3.07.96-.93,2.11-1.68,3.45-2.26,1.34-.58,2.72-.87,4.14-.87,1.92,0,3.52.38,4.81,1.14,1.29.76,2.26,1.93,2.92,3.52s.99,3.6.99,6.05v15.72h-3.77v-15.52c0-1.72-.22-3.13-.67-4.24-.45-1.11-1.13-1.93-2.06-2.45-.93-.53-2.07-.78-3.42-.74-1.12,0-2.17.19-3.12.57-.96.38-1.79.9-2.48,1.56-.69.66-1.24,1.42-1.64,2.28-.4.86-.59,1.79-.59,2.78v15.77h-3.72Z"/>
          <path class="cls-2" d="M350.46,507.27c-2.35,0-4.46-.58-6.32-1.74-1.87-1.16-3.34-2.75-4.41-4.79-1.08-2.03-1.61-4.34-1.61-6.92s.54-4.93,1.64-6.97,2.56-3.63,4.41-4.79c1.85-1.16,3.93-1.74,6.25-1.74,1.29,0,2.54.2,3.74.6,1.21.4,2.29.95,3.25,1.66.96.71,1.75,1.52,2.38,2.43.63.91,1.01,1.86,1.14,2.85l-1.14-.4v-17.4h3.72v36.69h-3.67l-.1-6.45.94-.35c-.13.93-.5,1.83-1.12,2.7-.61.88-1.38,1.66-2.31,2.36-.93.69-1.98,1.24-3.15,1.64-1.17.4-2.39.6-3.64.6ZM351.01,503.85c1.72,0,3.26-.43,4.61-1.29,1.35-.86,2.42-2.05,3.2-3.57.78-1.52,1.17-3.26,1.17-5.21s-.39-3.68-1.17-5.18c-.78-1.5-1.84-2.69-3.2-3.57-1.36-.88-2.89-1.31-4.61-1.31s-3.35.44-4.69,1.31c-1.34.88-2.4,2.07-3.17,3.57-.78,1.5-1.17,3.23-1.17,5.18s.38,3.64,1.14,5.16c.76,1.52,1.82,2.72,3.17,3.59,1.35.88,2.92,1.31,4.71,1.31Z"/>
          <path class="cls-2" d="M384.63,517.69v-36.79h3.72l.1,6.3-.69.1c.3-1.26.94-2.4,1.93-3.45.99-1.04,2.2-1.88,3.62-2.5,1.42-.63,2.93-.94,4.51-.94,2.31,0,4.39.58,6.22,1.74,1.83,1.16,3.3,2.74,4.39,4.76,1.09,2.02,1.64,4.33,1.64,6.94s-.53,4.88-1.59,6.89c-1.06,2.02-2.51,3.61-4.36,4.78-1.85,1.17-3.93,1.76-6.25,1.76-1.62,0-3.16-.33-4.61-.99-1.46-.66-2.69-1.53-3.72-2.6-1.02-1.07-1.7-2.24-2.03-3.5h.89v17.5h-3.77ZM397.27,503.7c1.75,0,3.31-.43,4.66-1.29,1.36-.86,2.43-2.03,3.22-3.52.79-1.49,1.19-3.17,1.19-5.06s-.4-3.62-1.19-5.11c-.79-1.49-1.87-2.66-3.22-3.52-1.36-.86-2.91-1.29-4.66-1.29s-3.31.42-4.69,1.26c-1.37.84-2.46,2.01-3.25,3.5-.79,1.49-1.19,3.19-1.19,5.11s.4,3.62,1.19,5.11c.79,1.49,1.88,2.66,3.25,3.52,1.37.86,2.93,1.29,4.69,1.29Z"/>
          <path class="cls-2" d="M415.47,506.78v-25.88h3.72l.1,6.89-.4-.94c.36-1.16.95-2.23,1.76-3.22.81-.99,1.78-1.78,2.9-2.38,1.12-.6,2.36-.89,3.72-.89.56,0,1.09.04,1.59.12.5.08.91.19,1.24.32l-1.04,4.17c-.43-.2-.87-.34-1.31-.42-.45-.08-.87-.12-1.26-.12-1.12,0-2.13.2-3.03.6-.89.4-1.65.95-2.28,1.66-.63.71-1.11,1.53-1.44,2.45-.33.93-.5,1.92-.5,2.98v14.68h-3.77Z"/>
          <path class="cls-2" d="M444.33,507.27c-2.58,0-4.87-.58-6.87-1.74-2-1.16-3.57-2.76-4.71-4.81-1.14-2.05-1.71-4.38-1.71-6.99s.57-4.88,1.71-6.89c1.14-2.02,2.71-3.6,4.71-4.76,2-1.16,4.29-1.74,6.87-1.74s4.82.58,6.82,1.74c2,1.16,3.57,2.74,4.71,4.76,1.14,2.02,1.71,4.31,1.71,6.89s-.57,4.94-1.71,6.99c-1.14,2.05-2.71,3.65-4.71,4.81-2,1.16-4.27,1.74-6.82,1.74ZM444.33,503.75c1.82,0,3.44-.44,4.86-1.31,1.42-.88,2.53-2.07,3.32-3.57.79-1.5,1.19-3.21,1.19-5.13s-.4-3.62-1.19-5.11c-.79-1.49-1.9-2.65-3.32-3.5-1.42-.84-3.04-1.26-4.86-1.26s-3.45.42-4.88,1.26c-1.44.84-2.56,2.02-3.37,3.52-.81,1.5-1.2,3.2-1.17,5.08-.03,1.92.36,3.63,1.17,5.13.81,1.5,1.93,2.69,3.37,3.57,1.44.88,3.07,1.31,4.88,1.31Z"/>
          <path class="cls-2" d="M470.26,506.78l-10.91-25.88h4.12l8.63,21.17-.99.55,9.47-21.72h3.97l-11.6,25.88h-2.68Z"/>
          <path class="cls-2" d="M491.73,475.29c-.93,0-1.63-.24-2.11-.72-.48-.48-.72-1.13-.72-1.96s.25-1.49.74-1.98c.5-.5,1.19-.74,2.08-.74s1.59.24,2.08.72c.5.48.74,1.15.74,2.01,0,.79-.25,1.44-.74,1.93-.5.5-1.19.74-2.08.74ZM489.89,506.78v-25.88h3.72v25.88h-3.72Z"/>
          <path class="cls-2" d="M512.26,507.27c-2.35,0-4.46-.58-6.32-1.74-1.87-1.16-3.34-2.75-4.41-4.79-1.07-2.03-1.61-4.34-1.61-6.92s.55-4.93,1.64-6.97,2.56-3.63,4.41-4.79c1.85-1.16,3.93-1.74,6.25-1.74,1.29,0,2.54.2,3.74.6,1.21.4,2.29.95,3.25,1.66.96.71,1.75,1.52,2.38,2.43s1.01,1.86,1.14,2.85l-1.14-.4v-17.4h3.72v36.69h-3.67l-.1-6.45.94-.35c-.13.93-.5,1.83-1.12,2.7-.61.88-1.38,1.66-2.31,2.36-.93.69-1.98,1.24-3.15,1.64-1.17.4-2.39.6-3.64.6ZM512.8,503.85c1.72,0,3.26-.43,4.61-1.29,1.36-.86,2.42-2.05,3.2-3.57.78-1.52,1.17-3.26,1.17-5.21s-.39-3.68-1.17-5.18c-.78-1.5-1.84-2.69-3.2-3.57-1.36-.88-2.89-1.31-4.61-1.31s-3.35.44-4.69,1.31c-1.34.88-2.4,2.07-3.17,3.57-.78,1.5-1.17,3.23-1.17,5.18s.38,3.64,1.14,5.16c.76,1.52,1.82,2.72,3.17,3.59,1.36.88,2.93,1.31,4.71,1.31Z"/>
          <path class="cls-2" d="M543.94,507.27c-2.58,0-4.87-.56-6.87-1.69-2-1.12-3.56-2.69-4.69-4.71-1.12-2.02-1.69-4.33-1.69-6.94,0-2.02.31-3.84.94-5.48.63-1.64,1.51-3.07,2.65-4.29,1.14-1.22,2.5-2.17,4.09-2.85,1.59-.68,3.31-1.02,5.16-1.02,1.75,0,3.35.31,4.79.94,1.44.63,2.68,1.5,3.72,2.6,1.04,1.11,1.83,2.42,2.36,3.94.53,1.52.76,3.19.69,5.01l-.05,1.74h-21.57l-.55-3.12h19.29l-.89.84v-1.19c-.07-1.19-.41-2.34-1.04-3.45-.63-1.11-1.51-2.01-2.65-2.7-1.14-.69-2.5-1.04-4.09-1.04-1.85,0-3.46.37-4.81,1.12-1.36.74-2.4,1.84-3.12,3.3-.73,1.46-1.09,3.26-1.09,5.4s.4,3.83,1.19,5.33c.79,1.5,1.92,2.67,3.4,3.5,1.47.83,3.25,1.24,5.33,1.24,1.22,0,2.44-.21,3.64-.62,1.21-.41,2.54-1.23,3.99-2.45l1.93,2.68c-.76.76-1.67,1.43-2.73,2.01-1.06.58-2.21,1.04-3.47,1.39-1.26.35-2.55.52-3.87.52Z"/>
          <path class="cls-2" d="M587.43,507.27c-1.22,0-2.41-.19-3.57-.57-1.16-.38-2.21-.9-3.15-1.56-.94-.66-1.74-1.42-2.38-2.28-.64-.86-1.08-1.75-1.31-2.68l1.09.05-.15,6.5h-3.67v-36.64h3.72v17.01l-.74.2c.23-.92.65-1.81,1.26-2.65.61-.84,1.38-1.59,2.31-2.23.93-.64,1.94-1.15,3.05-1.51,1.11-.36,2.26-.55,3.45-.55,2.31,0,4.39.58,6.22,1.74,1.83,1.16,3.3,2.74,4.39,4.76,1.09,2.02,1.64,4.33,1.64,6.94s-.53,4.93-1.59,6.97c-1.06,2.03-2.5,3.63-4.34,4.79-1.83,1.16-3.91,1.74-6.22,1.74ZM586.83,503.75c1.75,0,3.31-.44,4.66-1.31,1.36-.88,2.42-2.07,3.2-3.57.78-1.5,1.17-3.2,1.17-5.08s-.39-3.62-1.17-5.11c-.78-1.49-1.84-2.66-3.2-3.52-1.36-.86-2.91-1.29-4.66-1.29s-3.31.43-4.66,1.29c-1.36.86-2.42,2.03-3.2,3.52-.78,1.49-1.17,3.19-1.17,5.11s.39,3.63,1.17,5.13c.78,1.5,1.84,2.69,3.2,3.55,1.36.86,2.91,1.29,4.66,1.29Z"/>
          <path class="cls-2" d="M615.1,507.27c-2.25,0-4.28-.59-6.1-1.76-1.82-1.17-3.26-2.78-4.31-4.81-1.06-2.03-1.59-4.34-1.59-6.92s.54-4.92,1.64-6.94c1.09-2.02,2.55-3.6,4.39-4.76,1.83-1.16,3.89-1.74,6.17-1.74,1.35,0,2.61.2,3.77.6,1.16.4,2.19.95,3.1,1.66.91.71,1.67,1.54,2.28,2.48.61.94,1.03,1.96,1.26,3.05l-1.09-.55.15-6.69h3.72v25.88h-3.77v-6.35l.99-.64c-.23.99-.68,1.94-1.34,2.85-.66.91-1.46,1.71-2.41,2.41-.94.69-2,1.24-3.17,1.64-1.17.4-2.4.6-3.69.6ZM615.94,503.7c1.72,0,3.26-.42,4.61-1.26,1.36-.84,2.42-2.02,3.2-3.52.78-1.5,1.17-3.21,1.17-5.13s-.39-3.62-1.17-5.11c-.78-1.49-1.84-2.66-3.2-3.52-1.36-.86-2.89-1.29-4.61-1.29s-3.3.43-4.64,1.29c-1.34.86-2.4,2.03-3.17,3.52-.78,1.49-1.17,3.19-1.17,5.11s.38,3.58,1.14,5.08c.76,1.5,1.82,2.69,3.17,3.54,1.36.86,2.91,1.29,4.66,1.29Z"/>
          <path class="cls-2" d="M644.2,507.27c-2.22,0-4.2-.41-5.95-1.24-1.75-.83-3.14-1.92-4.17-3.27l2.63-2.28c.96,1.16,2.09,2.03,3.4,2.63,1.3.6,2.77.89,4.39.89.83,0,1.57-.09,2.23-.27s1.24-.45,1.74-.82c.5-.36.88-.79,1.14-1.29.26-.5.4-1.04.4-1.64,0-1.09-.48-2-1.44-2.73-.43-.3-1.04-.6-1.83-.92-.79-.31-1.75-.62-2.88-.92-1.85-.53-3.39-1.07-4.61-1.61-1.22-.55-2.18-1.18-2.88-1.91-.5-.6-.87-1.24-1.12-1.93-.25-.69-.37-1.45-.37-2.28,0-1.06.22-2.03.67-2.93s1.07-1.68,1.88-2.36c.81-.68,1.77-1.19,2.88-1.54,1.11-.35,2.31-.52,3.59-.52,1.22,0,2.43.17,3.62.5,1.19.33,2.3.81,3.32,1.44s1.9,1.37,2.63,2.23l-2.28,2.48c-.63-.66-1.32-1.26-2.08-1.79-.76-.53-1.56-.94-2.4-1.24-.84-.3-1.71-.45-2.6-.45-.79,0-1.53.1-2.21.3-.68.2-1.26.47-1.74.82s-.84.77-1.09,1.26c-.25.5-.37,1.04-.37,1.64,0,.5.1.94.3,1.34.2.4.48.74.84,1.04.46.36,1.12.7,1.96,1.02.84.31,1.89.64,3.15.97,1.45.4,2.69.8,3.69,1.21,1.01.41,1.84.9,2.5,1.46.89.66,1.53,1.42,1.91,2.28.38.86.57,1.83.57,2.93,0,1.46-.41,2.74-1.21,3.87-.81,1.12-1.93,2.01-3.35,2.65-1.42.64-3.04.97-4.86.97Z"/>
          <path class="cls-2" d="M662.3,475.29c-.93,0-1.63-.24-2.11-.72-.48-.48-.72-1.13-.72-1.96s.25-1.49.74-1.98c.5-.5,1.19-.74,2.08-.74s1.59.24,2.08.72c.5.48.74,1.15.74,2.01,0,.79-.25,1.44-.74,1.93-.5.5-1.19.74-2.08.74ZM660.47,506.78v-25.88h3.72v25.88h-3.72Z"/>
          <path class="cls-2" d="M683.23,507.27c-2.45,0-4.63-.59-6.54-1.76-1.92-1.17-3.43-2.78-4.54-4.81-1.11-2.03-1.66-4.34-1.66-6.92s.55-4.88,1.66-6.92c1.11-2.03,2.62-3.63,4.54-4.79,1.92-1.16,4.12-1.74,6.59-1.74,2.21,0,4.23.44,6.05,1.31,1.82.88,3.27,2.09,4.36,3.64l-2.18,2.68c-.63-.83-1.38-1.55-2.26-2.18-.88-.63-1.82-1.12-2.83-1.46-1.01-.35-2.01-.52-3-.52-1.75,0-3.32.44-4.71,1.31-1.39.88-2.49,2.06-3.3,3.55-.81,1.49-1.21,3.19-1.21,5.11s.4,3.63,1.21,5.13c.81,1.5,1.91,2.69,3.3,3.55,1.39.86,2.94,1.29,4.66,1.29.99,0,1.97-.16,2.93-.47.96-.31,1.87-.77,2.73-1.36.86-.6,1.65-1.34,2.38-2.23l2.18,2.68c-1.12,1.49-2.63,2.68-4.51,3.57-1.88.89-3.84,1.34-5.85,1.34Z"/>
          <path class="cls-2" d="M187.95,566.78c-2.35,0-4.46-.58-6.32-1.74-1.87-1.16-3.34-2.75-4.41-4.79-1.08-2.03-1.61-4.34-1.61-6.92s.54-4.93,1.64-6.97,2.56-3.63,4.41-4.79c1.85-1.16,3.93-1.74,6.25-1.74,1.29,0,2.54.2,3.74.6,1.21.4,2.29.95,3.25,1.66.96.71,1.75,1.52,2.38,2.43.63.91,1.01,1.86,1.14,2.85l-1.14-.4v-17.4h3.72v36.69h-3.67l-.1-6.45.94-.35c-.13.93-.5,1.83-1.12,2.7-.61.88-1.38,1.66-2.31,2.36-.93.69-1.98,1.24-3.15,1.64-1.17.4-2.39.6-3.64.6ZM188.49,563.36c1.72,0,3.26-.43,4.61-1.29,1.35-.86,2.42-2.05,3.2-3.57.78-1.52,1.17-3.26,1.17-5.21s-.39-3.68-1.17-5.18c-.78-1.5-1.84-2.69-3.2-3.57-1.36-.88-2.89-1.31-4.61-1.31s-3.35.44-4.69,1.31c-1.34.88-2.4,2.07-3.17,3.57-.78,1.5-1.17,3.23-1.17,5.18s.38,3.64,1.14,5.16c.76,1.52,1.82,2.72,3.17,3.59,1.35.88,2.92,1.31,4.71,1.31Z"/>
          <path class="cls-2" d="M219.63,566.78c-2.58,0-4.87-.56-6.87-1.69-2-1.12-3.56-2.69-4.69-4.71-1.12-2.02-1.69-4.33-1.69-6.94,0-2.02.31-3.84.94-5.48.63-1.64,1.51-3.07,2.65-4.29,1.14-1.22,2.5-2.17,4.09-2.85,1.59-.68,3.3-1.02,5.16-1.02,1.75,0,3.35.31,4.78.94,1.44.63,2.68,1.5,3.72,2.6,1.04,1.11,1.83,2.42,2.36,3.94.53,1.52.76,3.19.69,5.01l-.05,1.74h-21.57l-.54-3.12h19.29l-.89.84v-1.19c-.07-1.19-.41-2.34-1.04-3.45-.63-1.11-1.51-2.01-2.65-2.7-1.14-.69-2.5-1.04-4.09-1.04-1.85,0-3.46.37-4.81,1.12s-2.4,1.84-3.12,3.3c-.73,1.46-1.09,3.26-1.09,5.4s.4,3.83,1.19,5.33c.79,1.5,1.93,2.67,3.4,3.5,1.47.83,3.25,1.24,5.33,1.24,1.22,0,2.44-.21,3.64-.62,1.21-.41,2.54-1.23,3.99-2.45l1.93,2.68c-.76.76-1.67,1.43-2.73,2.01-1.06.58-2.22,1.04-3.47,1.39-1.26.35-2.55.52-3.87.52Z"/>
          <path class="cls-2" d="M233.81,543.97v-3.57h16.12v3.57h-16.12ZM239.66,566.28v-32.68h3.72v32.68h-3.72Z"/>
          <path class="cls-2" d="M264.36,566.78c-2.25,0-4.28-.59-6.1-1.76-1.82-1.17-3.26-2.78-4.31-4.81-1.06-2.03-1.59-4.34-1.59-6.92s.55-4.92,1.64-6.94c1.09-2.02,2.55-3.6,4.39-4.76,1.83-1.16,3.89-1.74,6.17-1.74,1.36,0,2.61.2,3.77.6,1.16.4,2.19.95,3.1,1.66.91.71,1.67,1.54,2.28,2.48.61.94,1.03,1.96,1.26,3.05l-1.09-.55.15-6.69h3.72v25.88h-3.77v-6.35l.99-.64c-.23.99-.68,1.94-1.34,2.85-.66.91-1.46,1.71-2.4,2.41-.94.69-2,1.24-3.17,1.64-1.17.4-2.41.6-3.69.6ZM265.2,563.21c1.72,0,3.26-.42,4.61-1.26,1.36-.84,2.42-2.02,3.2-3.52.78-1.5,1.17-3.21,1.17-5.13s-.39-3.62-1.17-5.11c-.78-1.49-1.84-2.66-3.2-3.52-1.36-.86-2.89-1.29-4.61-1.29s-3.3.43-4.64,1.29c-1.34.86-2.4,2.03-3.17,3.52-.78,1.49-1.17,3.19-1.17,5.11s.38,3.58,1.14,5.08c.76,1.5,1.82,2.69,3.17,3.54,1.36.86,2.91,1.29,4.66,1.29Z"/>
          <path class="cls-2" d="M287.81,534.79c-.93,0-1.63-.24-2.11-.72-.48-.48-.72-1.13-.72-1.96s.25-1.49.74-1.98c.5-.5,1.19-.74,2.08-.74s1.59.24,2.08.72c.5.48.74,1.15.74,2.01,0,.79-.25,1.44-.74,1.93-.5.5-1.19.74-2.08.74ZM285.98,566.28v-25.88h3.72v25.88h-3.72Z"/>
          <path class="cls-2" d="M297.93,566.28v-36.69h3.72v36.69h-3.72Z"/>
          <path class="cls-2" d="M317.46,566.78c-2.22,0-4.2-.41-5.95-1.24-1.75-.83-3.14-1.92-4.17-3.27l2.63-2.28c.96,1.16,2.09,2.03,3.4,2.63,1.3.6,2.77.89,4.39.89.83,0,1.57-.09,2.23-.27s1.24-.45,1.74-.82c.5-.36.88-.79,1.14-1.29.26-.5.4-1.04.4-1.64,0-1.09-.48-2-1.44-2.73-.43-.3-1.04-.6-1.83-.92-.79-.31-1.75-.62-2.88-.92-1.85-.53-3.39-1.07-4.61-1.61-1.22-.55-2.18-1.18-2.88-1.91-.5-.6-.87-1.24-1.12-1.93-.25-.69-.37-1.45-.37-2.28,0-1.06.22-2.03.67-2.93s1.07-1.68,1.88-2.36c.81-.68,1.77-1.19,2.88-1.54,1.11-.35,2.31-.52,3.59-.52,1.22,0,2.43.17,3.62.5,1.19.33,2.3.81,3.32,1.44s1.9,1.37,2.63,2.23l-2.28,2.48c-.63-.66-1.32-1.26-2.08-1.79-.76-.53-1.56-.94-2.4-1.24-.84-.3-1.71-.45-2.6-.45-.79,0-1.53.1-2.21.3-.68.2-1.26.47-1.74.82s-.84.77-1.09,1.26c-.25.5-.37,1.04-.37,1.64,0,.5.1.94.3,1.34.2.4.48.74.84,1.04.46.36,1.12.7,1.96,1.02.84.31,1.89.64,3.15.97,1.45.4,2.69.8,3.69,1.21,1.01.41,1.84.9,2.5,1.46.89.66,1.53,1.42,1.91,2.28.38.86.57,1.83.57,2.93,0,1.46-.41,2.74-1.21,3.87-.81,1.12-1.93,2.01-3.35,2.65-1.42.64-3.04.97-4.86.97Z"/>
          <path class="cls-2" d="M344.34,543.97v-3.57h16.12v3.57h-16.12ZM350.19,566.28v-32.68h3.72v32.68h-3.72Z"/>
          <path class="cls-2" d="M376.22,566.78c-2.58,0-4.87-.58-6.87-1.74-2-1.16-3.57-2.76-4.71-4.81-1.14-2.05-1.71-4.38-1.71-6.99s.57-4.88,1.71-6.89c1.14-2.02,2.71-3.6,4.71-4.76,2-1.16,4.29-1.74,6.87-1.74s4.82.58,6.82,1.74c2,1.16,3.57,2.74,4.71,4.76,1.14,2.02,1.71,4.31,1.71,6.89s-.57,4.94-1.71,6.99c-1.14,2.05-2.71,3.65-4.71,4.81-2,1.16-4.27,1.74-6.82,1.74ZM376.22,563.26c1.82,0,3.44-.44,4.86-1.31,1.42-.88,2.53-2.07,3.32-3.57.79-1.5,1.19-3.21,1.19-5.13s-.4-3.62-1.19-5.11c-.79-1.49-1.9-2.65-3.32-3.5-1.42-.84-3.04-1.26-4.86-1.26s-3.45.42-4.88,1.26c-1.44.84-2.56,2.02-3.37,3.52-.81,1.5-1.2,3.2-1.17,5.08-.03,1.92.35,3.63,1.17,5.13.81,1.5,1.93,2.69,3.37,3.57,1.44.88,3.07,1.31,4.88,1.31Z"/>
          <path class="cls-2" d="M418.86,566.78c-2.25,0-4.28-.59-6.1-1.76-1.82-1.17-3.26-2.78-4.31-4.81-1.06-2.03-1.59-4.34-1.59-6.92s.54-4.92,1.64-6.94c1.09-2.02,2.55-3.6,4.39-4.76,1.83-1.16,3.89-1.74,6.17-1.74,1.35,0,2.61.2,3.77.6,1.16.4,2.19.95,3.1,1.66.91.71,1.67,1.54,2.28,2.48.61.94,1.03,1.96,1.26,3.05l-1.09-.55.15-6.69h3.72v25.88h-3.77v-6.35l.99-.64c-.23.99-.68,1.94-1.34,2.85-.66.91-1.46,1.71-2.41,2.41-.94.69-2,1.24-3.17,1.64-1.17.4-2.4.6-3.69.6ZM419.71,563.21c1.72,0,3.26-.42,4.61-1.26,1.36-.84,2.42-2.02,3.2-3.52.78-1.5,1.17-3.21,1.17-5.13s-.39-3.62-1.17-5.11c-.78-1.49-1.84-2.66-3.2-3.52-1.36-.86-2.89-1.29-4.61-1.29s-3.3.43-4.64,1.29c-1.34.86-2.4,2.03-3.17,3.52-.78,1.49-1.17,3.19-1.17,5.11s.38,3.58,1.14,5.08c.76,1.5,1.82,2.69,3.17,3.54,1.36.86,2.91,1.29,4.66,1.29Z"/>
          <path class="cls-2" d="M450.4,566.78c-2.45,0-4.63-.59-6.55-1.76-1.92-1.17-3.43-2.78-4.54-4.81s-1.66-4.34-1.66-6.92.55-4.88,1.66-6.92,2.62-3.63,4.54-4.79c1.92-1.16,4.12-1.74,6.59-1.74,2.21,0,4.23.44,6.05,1.31,1.82.88,3.27,2.09,4.36,3.64l-2.18,2.68c-.63-.83-1.38-1.55-2.26-2.18-.88-.63-1.82-1.12-2.83-1.46-1.01-.35-2.01-.52-3-.52-1.75,0-3.32.44-4.71,1.31-1.39.88-2.49,2.06-3.3,3.55-.81,1.49-1.21,3.19-1.21,5.11s.41,3.63,1.21,5.13c.81,1.5,1.91,2.69,3.3,3.55,1.39.86,2.94,1.29,4.66,1.29.99,0,1.97-.16,2.93-.47.96-.31,1.87-.77,2.73-1.36s1.65-1.34,2.38-2.23l2.18,2.68c-1.12,1.49-2.63,2.68-4.51,3.57-1.88.89-3.83,1.34-5.85,1.34Z"/>
          <path class="cls-2" d="M476.48,566.78c-2.45,0-4.63-.59-6.54-1.76-1.92-1.17-3.43-2.78-4.54-4.81-1.11-2.03-1.66-4.34-1.66-6.92s.55-4.88,1.66-6.92c1.11-2.03,2.62-3.63,4.54-4.79,1.92-1.16,4.12-1.74,6.59-1.74,2.21,0,4.23.44,6.05,1.31,1.82.88,3.27,2.09,4.36,3.64l-2.18,2.68c-.63-.83-1.38-1.55-2.26-2.18-.88-.63-1.82-1.12-2.83-1.46-1.01-.35-2.01-.52-3-.52-1.75,0-3.32.44-4.71,1.31-1.39.88-2.49,2.06-3.3,3.55-.81,1.49-1.21,3.19-1.21,5.11s.4,3.63,1.21,5.13c.81,1.5,1.91,2.69,3.3,3.55,1.39.86,2.94,1.29,4.66,1.29.99,0,1.97-.16,2.93-.47.96-.31,1.87-.77,2.73-1.36.86-.6,1.65-1.34,2.38-2.23l2.18,2.68c-1.12,1.49-2.63,2.68-4.51,3.57-1.88.89-3.84,1.34-5.85,1.34Z"/>
          <path class="cls-2" d="M503.06,566.78c-2.58,0-4.87-.56-6.87-1.69-2-1.12-3.56-2.69-4.69-4.71-1.12-2.02-1.69-4.33-1.69-6.94,0-2.02.31-3.84.94-5.48.63-1.64,1.51-3.07,2.65-4.29,1.14-1.22,2.5-2.17,4.09-2.85,1.59-.68,3.31-1.02,5.16-1.02,1.75,0,3.35.31,4.79.94,1.44.63,2.68,1.5,3.72,2.6,1.04,1.11,1.83,2.42,2.36,3.94.53,1.52.76,3.19.69,5.01l-.05,1.74h-21.57l-.55-3.12h19.29l-.89.84v-1.19c-.07-1.19-.41-2.34-1.04-3.45-.63-1.11-1.51-2.01-2.65-2.7-1.14-.69-2.5-1.04-4.09-1.04-1.85,0-3.46.37-4.81,1.12-1.36.74-2.4,1.84-3.12,3.3-.73,1.46-1.09,3.26-1.09,5.4s.4,3.83,1.19,5.33c.79,1.5,1.92,2.67,3.4,3.5,1.47.83,3.25,1.24,5.33,1.24,1.22,0,2.44-.21,3.64-.62,1.21-.41,2.54-1.23,3.99-2.45l1.93,2.68c-.76.76-1.67,1.43-2.73,2.01-1.06.58-2.21,1.04-3.47,1.39-1.26.35-2.55.52-3.87.52Z"/>
          <path class="cls-2" d="M528,566.78c-2.22,0-4.2-.41-5.95-1.24-1.75-.83-3.14-1.92-4.17-3.27l2.63-2.28c.96,1.16,2.09,2.03,3.4,2.63,1.3.6,2.77.89,4.39.89.83,0,1.57-.09,2.23-.27s1.24-.45,1.74-.82c.5-.36.88-.79,1.14-1.29.26-.5.4-1.04.4-1.64,0-1.09-.48-2-1.44-2.73-.43-.3-1.04-.6-1.83-.92-.79-.31-1.75-.62-2.88-.92-1.85-.53-3.39-1.07-4.61-1.61-1.22-.55-2.18-1.18-2.88-1.91-.5-.6-.87-1.24-1.12-1.93-.25-.69-.37-1.45-.37-2.28,0-1.06.22-2.03.67-2.93s1.07-1.68,1.88-2.36c.81-.68,1.77-1.19,2.88-1.54,1.11-.35,2.31-.52,3.59-.52,1.22,0,2.43.17,3.62.5,1.19.33,2.3.81,3.32,1.44s1.9,1.37,2.63,2.23l-2.28,2.48c-.63-.66-1.32-1.26-2.08-1.79-.76-.53-1.56-.94-2.4-1.24-.84-.3-1.71-.45-2.6-.45-.79,0-1.53.1-2.21.3-.68.2-1.26.47-1.74.82s-.84.77-1.09,1.26c-.25.5-.37,1.04-.37,1.64,0,.5.1.94.3,1.34.2.4.48.74.84,1.04.46.36,1.12.7,1.96,1.02.84.31,1.89.64,3.15.97,1.45.4,2.69.8,3.69,1.21,1.01.41,1.84.9,2.5,1.46.89.66,1.53,1.42,1.91,2.28.38.86.57,1.83.57,2.93,0,1.46-.41,2.74-1.21,3.87-.81,1.12-1.93,2.01-3.35,2.65-1.42.64-3.04.97-4.86.97Z"/>
          <path class="cls-2" d="M551.75,566.78c-2.22,0-4.2-.41-5.95-1.24-1.75-.83-3.14-1.92-4.17-3.27l2.63-2.28c.96,1.16,2.09,2.03,3.4,2.63,1.3.6,2.77.89,4.39.89.83,0,1.57-.09,2.23-.27s1.24-.45,1.74-.82c.5-.36.88-.79,1.14-1.29.26-.5.4-1.04.4-1.64,0-1.09-.48-2-1.44-2.73-.43-.3-1.04-.6-1.83-.92-.79-.31-1.75-.62-2.88-.92-1.85-.53-3.39-1.07-4.61-1.61-1.22-.55-2.18-1.18-2.88-1.91-.5-.6-.87-1.24-1.12-1.93-.25-.69-.37-1.45-.37-2.28,0-1.06.22-2.03.67-2.93s1.07-1.68,1.88-2.36c.81-.68,1.77-1.19,2.88-1.54,1.11-.35,2.31-.52,3.59-.52,1.22,0,2.43.17,3.62.5,1.19.33,2.3.81,3.32,1.44s1.9,1.37,2.63,2.23l-2.28,2.48c-.63-.66-1.32-1.26-2.08-1.79-.76-.53-1.56-.94-2.4-1.24-.84-.3-1.71-.45-2.6-.45-.79,0-1.53.1-2.21.3-.68.2-1.26.47-1.74.82s-.84.77-1.09,1.26c-.25.5-.37,1.04-.37,1.64,0,.5.1.94.3,1.34.2.4.48.74.84,1.04.46.36,1.12.7,1.96,1.02.84.31,1.89.64,3.15.97,1.45.4,2.69.8,3.69,1.21,1.01.41,1.84.9,2.5,1.46.89.66,1.53,1.42,1.91,2.28.38.86.57,1.83.57,2.93,0,1.46-.41,2.74-1.21,3.87-.81,1.12-1.93,2.01-3.35,2.65-1.42.64-3.04.97-4.86.97Z"/>
          <path class="cls-2" d="M578.63,543.97v-3.57h16.12v3.57h-16.12ZM584.48,566.28v-32.68h3.72v32.68h-3.72Z"/>
          <path class="cls-2" d="M599.3,566.28v-36.69h3.72v16.46l-.74.74c.36-1.35,1.04-2.55,2.03-3.59.99-1.04,2.16-1.86,3.5-2.45s2.7-.89,4.09-.89c1.98,0,3.64.38,4.96,1.14,1.32.76,2.31,1.93,2.95,3.52s.97,3.6.97,6.05v15.72h-3.77v-15.52c0-1.72-.22-3.13-.67-4.24-.45-1.11-1.13-1.93-2.06-2.45-.93-.53-2.08-.78-3.47-.74-1.09,0-2.12.19-3.07.57-.96.38-1.79.9-2.48,1.56-.69.66-1.24,1.42-1.64,2.28-.4.86-.59,1.79-.59,2.78v15.77h-3.72Z"/>
          <path class="cls-2" d="M639.27,566.78c-2.58,0-4.87-.56-6.87-1.69-2-1.12-3.56-2.69-4.69-4.71-1.12-2.02-1.69-4.33-1.69-6.94,0-2.02.31-3.84.94-5.48.63-1.64,1.51-3.07,2.65-4.29,1.14-1.22,2.5-2.17,4.09-2.85,1.59-.68,3.3-1.02,5.16-1.02,1.75,0,3.35.31,4.78.94,1.44.63,2.68,1.5,3.72,2.6,1.04,1.11,1.83,2.42,2.36,3.94.53,1.52.76,3.19.69,5.01l-.05,1.74h-21.57l-.54-3.12h19.29l-.89.84v-1.19c-.07-1.19-.41-2.34-1.04-3.45-.63-1.11-1.51-2.01-2.65-2.7-1.14-.69-2.5-1.04-4.09-1.04-1.85,0-3.46.37-4.81,1.12s-2.4,1.84-3.12,3.3c-.73,1.46-1.09,3.26-1.09,5.4s.4,3.83,1.19,5.33c.79,1.5,1.93,2.67,3.4,3.5,1.47.83,3.25,1.24,5.33,1.24,1.22,0,2.44-.21,3.64-.62,1.21-.41,2.54-1.23,3.99-2.45l1.93,2.68c-.76.76-1.67,1.43-2.73,2.01-1.06.58-2.22,1.04-3.47,1.39-1.26.35-2.55.52-3.87.52Z"/>
          <path class="cls-2" d="M310.47,636.69v-36.79h3.72l.1,6.3-.69.1c.3-1.26.94-2.4,1.93-3.45.99-1.04,2.2-1.88,3.62-2.5,1.42-.63,2.92-.94,4.51-.94,2.31,0,4.39.58,6.22,1.74,1.83,1.16,3.3,2.74,4.39,4.76,1.09,2.02,1.64,4.33,1.64,6.94s-.53,4.88-1.59,6.89c-1.06,2.02-2.51,3.61-4.36,4.78-1.85,1.17-3.93,1.76-6.25,1.76-1.62,0-3.16-.33-4.61-.99-1.46-.66-2.69-1.53-3.72-2.6-1.03-1.07-1.7-2.24-2.03-3.5h.89v17.5h-3.77ZM323.12,622.71c1.75,0,3.3-.43,4.66-1.29,1.35-.86,2.43-2.03,3.22-3.52.79-1.49,1.19-3.17,1.19-5.06s-.4-3.62-1.19-5.11c-.79-1.49-1.87-2.66-3.22-3.52-1.36-.86-2.91-1.29-4.66-1.29s-3.31.42-4.69,1.26c-1.37.84-2.45,2.01-3.25,3.5-.79,1.49-1.19,3.19-1.19,5.11s.4,3.62,1.19,5.11c.79,1.49,1.88,2.66,3.25,3.52,1.37.86,2.93,1.29,4.69,1.29Z"/>
          <path class="cls-2" d="M341.41,625.78v-36.69h3.72v36.69h-3.72Z"/>
          <path class="cls-2" d="M362.09,626.28c-2.25,0-4.28-.59-6.1-1.76-1.82-1.17-3.26-2.78-4.31-4.81-1.06-2.03-1.59-4.34-1.59-6.92s.54-4.92,1.64-6.94c1.09-2.02,2.55-3.6,4.39-4.76,1.83-1.16,3.89-1.74,6.17-1.74,1.35,0,2.61.2,3.77.6,1.16.4,2.19.95,3.1,1.66.91.71,1.67,1.54,2.28,2.48.61.94,1.03,1.96,1.26,3.05l-1.09-.55.15-6.69h3.72v25.88h-3.77v-6.35l.99-.64c-.23.99-.68,1.94-1.34,2.85-.66.91-1.46,1.71-2.41,2.41-.94.69-2,1.24-3.17,1.64-1.17.4-2.4.6-3.69.6ZM362.93,622.71c1.72,0,3.26-.42,4.61-1.26,1.36-.84,2.42-2.02,3.2-3.52.78-1.5,1.17-3.21,1.17-5.13s-.39-3.62-1.17-5.11c-.78-1.49-1.84-2.66-3.2-3.52-1.36-.86-2.89-1.29-4.61-1.29s-3.3.43-4.64,1.29c-1.34.86-2.4,2.03-3.17,3.52-.78,1.49-1.17,3.19-1.17,5.11s.38,3.58,1.14,5.08c.76,1.5,1.82,2.69,3.17,3.54,1.36.86,2.91,1.29,4.66,1.29Z"/>
          <path class="cls-2" d="M380.43,603.47v-3.57h16.12v3.57h-16.12ZM386.29,625.78v-32.68h3.72v32.68h-3.72Z"/>
          <path class="cls-2" d="M398.24,603.57v-3.47h14.98v3.47h-14.98ZM402.85,625.78v-29.9c0-1.29.28-2.43.84-3.42.56-.99,1.36-1.78,2.4-2.35,1.04-.58,2.26-.87,3.64-.87,1.06,0,2.01.19,2.85.57.84.38,1.54.9,2.11,1.56l-1.29,2.93c-.53-.56-1.1-.97-1.71-1.21-.61-.25-1.2-.37-1.76-.37-.73,0-1.34.12-1.83.37-.5.25-.87.61-1.12,1.09-.25.48-.37,1.05-.37,1.71v29.9h-3.77Z"/>
          <path class="cls-2" d="M429.08,626.28c-2.58,0-4.87-.58-6.87-1.74-2-1.16-3.57-2.76-4.71-4.81-1.14-2.05-1.71-4.38-1.71-6.99s.57-4.88,1.71-6.89c1.14-2.02,2.71-3.6,4.71-4.76,2-1.16,4.29-1.74,6.87-1.74s4.82.58,6.82,1.74c2,1.16,3.57,2.74,4.71,4.76,1.14,2.02,1.71,4.31,1.71,6.89s-.57,4.94-1.71,6.99c-1.14,2.05-2.71,3.65-4.71,4.81-2,1.16-4.27,1.74-6.82,1.74ZM429.08,622.76c1.82,0,3.44-.44,4.86-1.31,1.42-.88,2.53-2.07,3.32-3.57.79-1.5,1.19-3.21,1.19-5.13s-.4-3.62-1.19-5.11c-.79-1.49-1.9-2.65-3.32-3.5-1.42-.84-3.04-1.26-4.86-1.26s-3.45.42-4.88,1.26c-1.44.84-2.56,2.02-3.37,3.52-.81,1.5-1.2,3.2-1.17,5.08-.03,1.92.35,3.63,1.17,5.13.81,1.5,1.93,2.69,3.37,3.57,1.44.88,3.07,1.31,4.88,1.31Z"/>
          <path class="cls-2" d="M447.72,625.78v-25.88h3.72l.1,6.89-.4-.94c.36-1.16.95-2.23,1.76-3.22.81-.99,1.78-1.78,2.9-2.38,1.12-.6,2.36-.89,3.72-.89.56,0,1.09.04,1.59.12.5.08.91.19,1.24.32l-1.04,4.17c-.43-.2-.87-.34-1.31-.42-.45-.08-.87-.12-1.26-.12-1.12,0-2.13.2-3.03.6-.89.4-1.65.95-2.28,1.66-.63.71-1.11,1.53-1.44,2.45-.33.93-.5,1.92-.5,2.98v14.68h-3.77Z"/>
          <path class="cls-2" d="M466.17,625.78v-25.88h3.72l.1,5.9-.74.25c.26-.99.7-1.89,1.31-2.7.61-.81,1.35-1.51,2.21-2.11s1.8-1.05,2.83-1.36c1.02-.31,2.1-.47,3.22-.47,1.36,0,2.57.22,3.64.67,1.07.45,1.98,1.21,2.73,2.28.74,1.07,1.31,2.49,1.71,4.24l-.89-.45.35-.84c.33-.76.82-1.5,1.46-2.21.64-.71,1.39-1.35,2.23-1.91.84-.56,1.77-1,2.78-1.31,1.01-.31,2.04-.47,3.1-.47,1.82,0,3.35.39,4.61,1.17,1.26.78,2.21,1.96,2.85,3.55s.97,3.6.97,6.05v15.62h-3.82v-15.42c0-1.72-.22-3.12-.64-4.21-.43-1.09-1.07-1.91-1.91-2.45s-1.91-.82-3.2-.82c-1.12,0-2.16.19-3.1.57-.94.38-1.75.91-2.43,1.59-.68.68-1.21,1.45-1.59,2.31-.38.86-.57,1.79-.57,2.78v15.67h-3.77v-15.47c0-1.65-.22-3.02-.67-4.12s-1.1-1.92-1.96-2.48c-.86-.56-1.92-.84-3.17-.84-1.09,0-2.1.19-3.03.57-.93.38-1.73.9-2.4,1.56-.68.66-1.21,1.42-1.59,2.28-.38.86-.57,1.79-.57,2.78v15.72h-3.77Z"/>
          <path class="cls-2" d="M513.42,626.28c-.89,0-1.58-.27-2.06-.79-.48-.53-.72-1.29-.72-2.28,0-.89.26-1.63.77-2.21.51-.58,1.18-.87,2.01-.87.89,0,1.58.27,2.06.82s.72,1.31.72,2.31c0,.89-.26,1.62-.77,2.18-.51.56-1.18.84-2.01.84Z"/>
        </g>
        <text class="cls-17" transform="translate(44.07 102.36)"><tspan x="0" y="0">1</tspan></text>
        <text class="cls-29" transform="translate(354.88 239.34)"><tspan x="0" y="0">Sign Up</tspan></text>
      </g>
      <g>
        <rect class="cls-7" x="68.87" y="1200.47" width="688.19" height="378.12"/>
        <g>
          <path class="cls-9" d="M711.98,959.83H150.76c0,45.23-36.66,81.89-81.89,81.89v167.54c0,24.9,20.18,45.08,45.08,45.08h598.03c24.9,0,45.08-20.18,45.08-45.08v-204.35c0-24.9-20.18-45.08-45.08-45.08Z"/>
          <path class="cls-35" d="M68.87,1028.19c-37.7,0-68.37-30.67-68.37-68.37s30.67-68.37,68.37-68.37,68.37,30.67,68.37,68.37-30.67,68.37-68.37,68.37Z"/>
        </g>
        <text class="cls-17" transform="translate(36.74 993.31)"><tspan x="0" y="0">2</tspan></text>
        <text class="cls-1" transform="translate(201.33 1338.23)"><tspan x="0" y="0">Cus</tspan><tspan class="cls-16" x="86.13" y="0">t</tspan><tspan x="104.28" y="0">omers submit </tspan><tspan x="-6.15" y="59.5">p</tspan><tspan class="cls-30" x="24.69" y="59.5">r</tspan><tspan x="42.1" y="59.5">oject de</tspan><tspan class="cls-16" x="228.78" y="59.5">t</tspan><tspan x="246.93" y="59.5">ails and </tspan><tspan class="cls-30" x="-63.17" y="119.01">r</tspan><tspan x="-45.77" y="119.01">equi</tspan><tspan class="cls-30" x="54.54" y="119.01">r</tspan><tspan x="71.95" y="119.01">emen</tspan><tspan class="cls-18" x="201.42" y="119.01">t</tspan><tspan x="220.8" y="119.01">s </tspan><tspan class="cls-16" x="258.44" y="119.01">t</tspan><tspan x="276.58" y="119.01">o </tspan><tspan class="cls-20" x="320.57" y="119.01">r</tspan><tspan x="337.97" y="119.01">ecei</tspan><tspan class="cls-23" x="432.63" y="119.01">v</tspan><tspan x="458.56" y="119.01">e </tspan><tspan class="cls-30" x="-72.54" y="178.51">r</tspan><tspan x="-55.14" y="178.51">esponses f</tspan><tspan class="cls-30" x="193.98" y="178.51">r</tspan><tspan x="211.38" y="178.51">om bui</tspan><tspan class="cls-32" x="372.93" y="178.51">l</tspan><tspan x="383.59" y="178.51">ders.</tspan></text>
        <g>
          <rect class="cls-12" x="201.11" y="1114.13" width="96.12" height="6.48"/>
          <rect class="cls-12" x="201.11" y="1133.38" width="62.6" height="6.48"/>
          <rect class="cls-12" x="201.11" y="1152.62" width="62.6" height="6.48"/>
          <path class="cls-6" d="M275.16,1175.22c0-16.57,13.48-30.04,30.04-30.04,3.04,0,5.97.46,8.73,1.3v-118.28h-129.53v166.05h97.56c-4.26-5.19-6.81-11.81-6.81-19.03Z"/>
          <circle class="cls-6" cx="305.2" cy="1175.22" r="25.83"/>
          <polygon class="cls-9" points="317.83 1161.2 300.98 1178.01 292.58 1169.61 286.99 1175.2 300.98 1189.23 323.42 1166.79 317.83 1161.2"/>
          <g>
            <rect class="cls-9" x="201.11" y="1046.59" width="96.12" height="7.42"/>
            <rect class="cls-9" x="201.11" y="1068.62" width="96.12" height="7.42"/>
            <rect class="cls-9" x="201.11" y="1090.66" width="96.12" height="7.42"/>
            <rect class="cls-9" x="201.11" y="1112.7" width="96.12" height="7.42"/>
            <rect class="cls-9" x="201.11" y="1134.73" width="62.6" height="7.42"/>
            <rect class="cls-9" x="201.11" y="1156.77" width="62.6" height="7.42"/>
          </g>
        </g>
        <text class="cls-29" transform="translate(358.27 1130.3)"><tspan class="cls-22" x="0" y="0">R</tspan><tspan class="cls-15" x="46.91" y="0">equest</tspan></text>
      </g>
      <g>
        <rect class="cls-11" x="68.75" y="2091.43" width="688.19" height="378.12"/>
        <g>
          <path class="cls-9" d="M711.98,1850.78H150.76c0,45.23-36.66,81.89-81.89,81.89v167.54c0,24.9,20.18,45.08,45.08,45.08h598.03c24.9,0,45.08-20.18,45.08-45.08v-204.35c0-24.9-20.18-45.08-45.08-45.08Z"/>
          <path class="cls-35" d="M68.87,1919.15c-37.7,0-68.37-30.67-68.37-68.37s30.67-68.37,68.37-68.37,68.37,30.67,68.37,68.37-30.67,68.37-68.37,68.37Z"/>
        </g>
        <text class="cls-17" transform="translate(39.36 1884.2)"><tspan x="0" y="0">3</tspan></text>
        <text class="cls-1" transform="translate(133.53 2229.19)"><tspan x="0" y="0">Cus</tspan><tspan class="cls-16" x="86.13" y="0">t</tspan><tspan x="104.28" y="0">omers ma</tspan><tspan class="cls-30" x="339.46" y="0">k</tspan><tspan x="365.05" y="0">e secu</tspan><tspan class="cls-20" x="513.35" y="0">r</tspan><tspan x="530.76" y="0">e </tspan><tspan x="7.02" y="59.5">p</tspan><tspan class="cls-26" x="37.86" y="59.5">a</tspan><tspan x="68.01" y="59.5">ymen</tspan><tspan class="cls-18" x="196.83" y="59.5">t</tspan><tspan x="216.22" y="59.5">s that a</tspan><tspan class="cls-30" x="394.57" y="59.5">r</tspan><tspan x="411.98" y="59.5">e he</tspan><tspan class="cls-32" x="510.16" y="59.5">l</tspan><tspan x="520.82" y="59.5">d </tspan><tspan x="25.46" y="119.01">in esc</tspan><tspan class="cls-30" x="158.45" y="119.01">r</tspan><tspan class="cls-38" x="175.85" y="119.01">o</tspan><tspan x="204.96" y="119.01">w until p</tspan><tspan class="cls-30" x="401.61" y="119.01">r</tspan><tspan x="419.02" y="119.01">oject </tspan><tspan x="143.35" y="178.51">comp</tspan><tspan class="cls-32" x="275.54" y="178.51">l</tspan><tspan x="286.21" y="178.51">etion.</tspan></text>
        <g>
          <path class="cls-6" d="M252.27,1927.27c-10.34,0-20.21,2-29.26,5.6.9,3.28,1.38,6.72,1.38,10.29,0,21.5-17.43,38.93-38.93,38.93-2.85,0-5.62-.31-8.29-.89-2.68,7.96-4.16,16.47-4.16,25.33,0,43.77,35.48,79.26,79.26,79.26s79.26-35.48,79.26-79.26-35.48-79.26-79.26-79.26Z"/>
          <path class="cls-6" d="M185.46,1976.92c-18.62,0-33.76-15.15-33.76-33.76s15.15-33.76,33.76-33.76,33.76,15.15,33.76,33.76-15.15,33.76-33.76,33.76Z"/>
          <path class="cls-9" d="M201.84,1948.63c0-3.97-1.42-7.62-3.77-10.45v-9.78c-.71-6.34-6.09-11.26-12.61-11.26s-11.9,4.92-12.61,11.26v9.78c-2.35,2.84-3.77,6.48-3.77,10.45,0,8.93,7.14,16.19,16.03,16.38.12,0,.24,0,.36,0s.24,0,.36,0c8.88-.19,16.03-7.45,16.03-16.38ZM176.6,1928.4c.69-4.26,4.4-7.53,8.85-7.53s8.16,3.27,8.85,7.53v6.45c-2.55-1.64-5.59-2.6-8.85-2.6s-6.3.95-8.85,2.6v-6.45ZM182.38,1957.8c-.42,0-.7-.46-.6-.97l1.44-7.58c-.94-.69-1.55-1.8-1.55-3.06,0-2.09,1.7-3.79,3.79-3.79s3.79,1.7,3.79,3.79c0,1.26-.61,2.37-1.55,3.06l1.44,7.58c.1.51-.19.97-.6.97h-6.15Z"/>
          <g>
            <path class="cls-9" d="M253.89,2052c-5.76,0-10.96-.69-15.6-2.07-4.64-1.38-8.75-3.38-12.34-6.01-3.59-2.63-6.81-5.74-9.65-9.33l12.9-14.66c4.18,5.6,8.37,9.36,12.59,11.28,4.22,1.92,8.58,2.88,13.09,2.88,2.25,0,4.3-.29,6.14-.88,1.84-.58,3.26-1.44,4.26-2.57,1-1.13,1.5-2.52,1.5-4.2,0-1.25-.31-2.38-.94-3.38-.63-1-1.48-1.88-2.57-2.63-1.09-.75-2.38-1.44-3.88-2.07-1.5-.63-3.09-1.17-4.76-1.63-1.67-.46-3.38-.86-5.14-1.19-4.85-1.08-9.06-2.42-12.65-4.01-3.59-1.59-6.58-3.53-8.96-5.83-2.38-2.3-4.16-4.93-5.32-7.89-1.17-2.96-1.75-6.28-1.75-9.96,0-3.93.9-7.54,2.69-10.84,1.8-3.3,4.22-6.14,7.27-8.52,3.05-2.38,6.58-4.22,10.59-5.51,4.01-1.29,8.18-1.94,12.53-1.94,5.76,0,10.71.61,14.85,1.82,4.13,1.21,7.68,2.94,10.65,5.2,2.96,2.25,5.49,4.97,7.58,8.14l-13.16,12.65c-1.75-2.17-3.65-3.97-5.7-5.39-2.05-1.42-4.22-2.51-6.51-3.26-2.3-.75-4.66-1.13-7.08-1.13s-4.66.31-6.45.94c-1.8.63-3.19,1.5-4.2,2.63-1,1.13-1.5,2.48-1.5,4.07,0,1.42.42,2.63,1.25,3.63.83,1,1.96,1.9,3.38,2.69,1.42.79,3.05,1.46,4.89,2,1.84.54,3.76.98,5.76,1.31,4.59.92,8.75,2.13,12.47,3.63,3.72,1.5,6.93,3.34,9.65,5.51,2.71,2.17,4.8,4.74,6.26,7.7,1.46,2.97,2.19,6.41,2.19,10.34,0,6.1-1.48,11.26-4.45,15.47-2.97,4.22-7.02,7.44-12.15,9.65-5.14,2.21-11.05,3.32-17.73,3.32Z"/>
            <g>
              <rect class="cls-9" x="243.78" y="1948.42" width="16.97" height="18.28"/>
              <rect class="cls-9" x="243.78" y="2046.35" width="16.97" height="18.28"/>
            </g>
          </g>
        </g>
        <text class="cls-29" transform="translate(358.27 1989.7)"><tspan x="0" y="0">Esc</tspan><tspan class="cls-19" x="115.9" y="0">r</tspan><tspan class="cls-22" x="145.69" y="0">o</tspan><tspan x="188.4" y="0">w</tspan><tspan class="cls-3" x="0" y="63.11">P</tspan><tspan class="cls-27" x="44.85" y="63.11">a</tspan><tspan x="89.35" y="63.11">yment</tspan></text>
      </g>
      <g>
        <rect class="cls-14" x="68.87" y="2982.38" width="688.19" height="378.12"/>
        <text class="cls-17" transform="translate(29.59 2775.15)"><tspan x="0" y="0">4</tspan></text>
        <g>
          <path class="cls-9" d="M711.98,2741.74H150.76c0,45.23-36.66,81.89-81.89,81.89v167.54c0,24.9,20.18,45.08,45.08,45.08h598.03c24.9,0,45.08-20.18,45.08-45.08v-204.35c0-24.9-20.18-45.08-45.08-45.08Z"/>
          <path class="cls-35" d="M68.87,2810.11c-37.7,0-68.37-30.67-68.37-68.37s30.67-68.37,68.37-68.37,68.37,30.67,68.37,68.37-30.67,68.37-68.37,68.37Z"/>
        </g>
        <text class="cls-1" transform="translate(189.48 3120.15)"><tspan x="0" y="0">Cus</tspan><tspan class="cls-16" x="86.13" y="0">t</tspan><tspan x="104.28" y="0">omers moni</tspan><tspan class="cls-4" x="380.22" y="0">t</tspan><tspan x="398.37" y="0">or </tspan><tspan x="-64.04" y="59.5">p</tspan><tspan class="cls-30" x="-33.2" y="59.5">r</tspan><tspan x="-15.79" y="59.5">oject p</tspan><tspan class="cls-30" x="143.08" y="59.5">r</tspan><tspan x="160.48" y="59.5">og</tspan><tspan class="cls-30" x="221.77" y="59.5">r</tspan><tspan x="239.17" y="59.5">ess th</tspan><tspan class="cls-30" x="375.38" y="59.5">r</tspan><tspan x="392.79" y="59.5">o</tspan><tspan class="cls-32" x="422.88" y="59.5">u</tspan><tspan x="451.25" y="59.5">gh </tspan><tspan x="-69" y="119.01">upda</tspan><tspan class="cls-16" x="52.24" y="119.01">t</tspan><tspan x="70.39" y="119.01">es f</tspan><tspan class="cls-30" x="154.63" y="119.01">r</tspan><tspan x="172.04" y="119.01">om the se</tspan><tspan class="cls-21" x="401.52" y="119.01">r</tspan><tspan x="422.49" y="119.01">vice </tspan><tspan x="123.52" y="178.51">p</tspan><tspan class="cls-30" x="154.36" y="178.51">r</tspan><tspan class="cls-5" x="171.76" y="178.51">o</tspan><tspan x="201.12" y="178.51">vide</tspan><tspan class="cls-36" x="299.29" y="178.51">r</tspan><tspan x="312.14" y="178.51">.</tspan></text>
        <g>
          <path class="cls-6" d="M221.21,2974.46c-10.85-1.14-20.96-4.18-30.31-9.1-9.35-4.92-17.46-11.21-24.32-18.85-6.86-7.64-12.25-16.39-16.17-26.24-3.92-9.85-5.88-20.28-5.89-31.27,0-22.13,7.32-41.3,21.96-57.51,14.64-16.21,32.95-25.52,54.94-27.96v17.14c-17.28,2.43-31.56,10.1-42.84,23.03-11.28,12.93-16.92,28.03-16.92,45.3s5.64,32.38,16.92,45.31c11.28,12.93,25.49,20.61,42.63,23.02v17.14Z"/>
          <path class="cls-6" d="M238.35,2974.46v-17.14c6.14-.86,12.03-2.5,17.68-4.93,5.64-2.43,10.89-5.5,15.74-9.21l12.42,12.42c-6.71,5.28-13.92,9.53-21.63,12.75-7.71,3.22-15.78,5.25-24.21,6.1"/>
          <path class="cls-6" d="M272.2,2834.8c-5-3.71-10.32-6.78-15.95-9.21-5.64-2.43-11.53-4.07-17.68-4.93v-17.14c8.43.86,16.49,2.89,24.21,6.11,7.71,3.22,14.85,7.46,21.42,12.74l-12,12.42Z"/>
          <path class="cls-6" d="M296.19,2943.19l-12-12.21c3.71-4.86,6.71-10.1,9-15.74,2.28-5.64,3.86-11.53,4.71-17.68h17.56c-1.14,8.43-3.28,16.53-6.43,24.32-3.14,7.79-7.43,14.89-12.85,21.31"/>
          <path class="cls-6" d="M297.9,2880.43c-.86-6.14-2.43-12.03-4.71-17.67-2.28-5.64-5.28-10.89-9-15.75l12-12.21c5.43,6.43,9.78,13.53,13.07,21.32,3.28,7.79,5.36,15.89,6.21,24.31h-17.56Z"/>
          <g>
            <g>
              <path class="cls-6" d="M252.52,2931.25h0c-2.64,2.08-6.47,1.64-8.55-1l-39.82-50.38,9.55-7.55,39.82,50.38c2.08,2.64,1.64,6.47-1,8.55Z"/>
              <path class="cls-6" d="M234.45,2858.34l-2.78,2.2s-8.58-6-18.21-1.38c-2.37,1.13-3.33,4.01-2.2,6.38l3.03,6.33-10.46,8.27-9.62-6.46-6.77-8.57,13.46-10.64c1.82-1.44,4-2.37,6.3-2.7,6.7-.96,20.65-1.77,27.25,6.57Z"/>
              <path class="cls-6" d="M194.21,2873.67c-6.73.17-7.45,5.89-7.45,5.89l-6.77-8.56c6.73-.17,7.45-5.89,7.45-5.89l6.77,8.56Z"/>
              <path class="cls-6" d="M177.07,2870.73h5.37c1.1,0,1.99.89,1.99,1.99v10.85c0,1.1-.89,1.99-1.99,1.99h-5.37c-1.1,0-1.99-.89-1.99-1.99v-10.85c0-1.1.89-1.99,1.99-1.99Z" transform="translate(-1745.82 731.47) rotate(-38.32)"/>
              <path class="cls-6" d="M177.07,2870.73h5.37c1.1,0,1.99.89,1.99,1.99v10.85c0,1.1-.89,1.99-1.99,1.99h-5.37c-1.1,0-1.99-.89-1.99-1.99v-10.85c0-1.1.89-1.99,1.99-1.99Z" transform="translate(-1745.82 731.47) rotate(-38.32)"/>
            </g>
            <g>
              <path class="cls-6" d="M273.84,2885.75l-11.98,3.08c-2.43.62-5.01-.09-6.77-1.89l-8.65-8.83c-1.76-1.79-2.42-4.39-1.75-6.8l3.32-11.91c.67-2.42,2.59-4.29,5.02-4.92l11.98-3.08c.63-.16,1.27-.23,1.91-.22,2.15.05,3.2,2.65,1.66,4.16l-11.31,11.09c-1.54,1.51-1.56,3.97-.06,5.51l4.29,4.38c1.5,1.54,3.97,1.56,5.51.06l11.32-11.09c1.49-1.46,4.07-.48,4.12,1.6.02.68-.07,1.37-.26,2.05l-3.32,11.91c-.68,2.42-2.59,4.29-5.02,4.92Z"/>
              <path class="cls-6" d="M203.07,2930.44h0c-2.72-2.77-2.69-7.21.05-9.96l48.05-47.96,9.9,10.1-47.96,47.86c-2.78,2.78-7.3,2.75-10.05-.05Z"/>
            </g>
          </g>
        </g>
        <text class="cls-29" transform="translate(346.14 2849.1)"><tspan class="cls-37" x="0" y="0">J</tspan><tspan class="cls-15" x="42.3" y="0">ob </tspan><tspan x="0" y="63.11">E</tspan><tspan class="cls-28" x="44.37" y="63.11">x</tspan><tspan x="83.99" y="63.11">ecution</tspan><tspan class="cls-33" x="0" y="126.22">T</tspan><tspan class="cls-19" x="40.93" y="126.22">r</tspan><tspan x="70.71" y="126.22">acking</tspan></text>
      </g>
      <g>
        <rect class="cls-8" x="68.87" y="3873.34" width="688.19" height="378.12"/>
        <g>
          <path class="cls-9" d="M711.98,3632.7H150.76c0,45.23-36.66,81.89-81.89,81.89v167.54c0,24.9,20.18,45.08,45.08,45.08h598.03c24.9,0,45.08-20.18,45.08-45.08v-204.35c0-24.9-20.18-45.08-45.08-45.08Z"/>
          <path class="cls-35" d="M68.87,3701.07c-37.7,0-68.37-30.67-68.37-68.37s30.67-68.37,68.37-68.37,68.37,30.67,68.37,68.37-30.67,68.37-68.37,68.37Z"/>
        </g>
        <text class="cls-29" transform="translate(354.23 3740.06)"><tspan x="0" y="0">Comp</tspan><tspan class="cls-3" x="203.33" y="0">l</tspan><tspan x="223.55" y="0">e</tspan><tspan class="cls-31" x="263.86" y="0">t</tspan><tspan class="cls-15" x="290.89" y="0">e</tspan><tspan x="0" y="63.11">and </tspan><tspan class="cls-22" x="0" y="126.22">R</tspan><tspan class="cls-34" x="46.91" y="126.22">e</tspan><tspan x="86.53" y="126.22">vi</tspan><tspan class="cls-34" x="150.09" y="126.22">e</tspan><tspan class="cls-24" x="189.71" y="126.22">w</tspan></text>
        <text class="cls-17" transform="translate(37.7 3666.11)"><tspan x="0" y="0">5</tspan></text>
        <text class="cls-1" transform="translate(198.11 4011.11)"><tspan x="0" y="0">Cus</tspan><tspan class="cls-16" x="86.13" y="0">t</tspan><tspan x="104.28" y="0">omers </tspan><tspan class="cls-30" x="263.54" y="0">r</tspan><tspan x="280.95" y="0">e</tspan><tspan class="cls-32" x="308.82" y="0">l</tspan><tspan x="319.48" y="0">ease </tspan><tspan x="-31.73" y="59.5">p</tspan><tspan class="cls-26" x="-.89" y="59.5">a</tspan><tspan x="29.25" y="59.5">yment and </tspan><tspan class="cls-32" x="294.34" y="59.5">l</tspan><tspan x="305" y="59.5">e</tspan><tspan class="cls-26" x="332.86" y="59.5">a</tspan><tspan class="cls-5" x="363.01" y="59.5">v</tspan><tspan x="388.95" y="59.5">e a </tspan><tspan class="cls-30" x="-34.44" y="119.01">r</tspan><tspan class="cls-32" x="-17.03" y="119.01">e</tspan><tspan x="10.34" y="119.01">vi</tspan><tspan class="cls-32" x="49.86" y="119.01">e</tspan><tspan x="77.23" y="119.01">w </tspan><tspan class="cls-38" x="129.34" y="119.01">f</tspan><tspan x="147.1" y="119.01">or the bui</tspan><tspan class="cls-32" x="370.67" y="119.01">l</tspan><tspan x="381.33" y="119.01">de</tspan><tspan class="cls-25" x="439.99" y="119.01">r</tspan><tspan x="452.84" y="119.01">.</tspan></text>
        <g>
          <path class="cls-6" d="M320.82,3811.51v54.59h-170.66v-54.59h45.77c2.84,1.99,5.85,3.78,8.98,5.28h-49.59v43.99h160.35v-43.99h-49.59c3.13-1.5,6.13-3.29,8.98-5.28h45.77Z"/>
          <g>
            <polygon class="cls-6" points="204.93 3828.31 208.71 3835.98 217.18 3837.21 211.06 3843.19 212.5 3851.62 204.93 3847.64 197.35 3851.62 198.8 3843.19 192.67 3837.21 201.14 3835.98 204.93 3828.31"/>
            <polygon class="cls-6" points="174.38 3828.31 178.17 3835.98 186.63 3837.21 180.51 3843.19 181.95 3851.62 174.38 3847.64 166.81 3851.62 168.25 3843.19 162.12 3837.21 170.59 3835.98 174.38 3828.31"/>
            <polygon class="cls-6" points="235.48 3828.31 239.26 3835.98 247.73 3837.21 241.6 3843.19 243.05 3851.62 235.48 3847.64 227.9 3851.62 229.35 3843.19 223.22 3837.21 231.69 3835.98 235.48 3828.31"/>
            <polygon class="cls-6" points="266.03 3828.31 269.81 3835.98 278.28 3837.21 272.15 3843.19 273.6 3851.62 266.03 3847.64 258.45 3851.62 259.9 3843.19 253.77 3837.21 262.24 3835.98 266.03 3828.31"/>
            <polygon class="cls-6" points="296.58 3828.31 300.36 3835.98 308.83 3837.21 302.7 3843.19 304.15 3851.62 296.58 3847.64 289 3851.62 290.45 3843.19 284.32 3837.21 292.79 3835.98 296.58 3828.31"/>
          </g>
          <path class="cls-6" d="M235.48,3815.31c-33.49,0-60.75-27.26-60.75-60.75s27.26-60.75,60.75-60.75,60.75,27.25,60.75,60.75-27.26,60.75-60.75,60.75Z"/>
          <polygon class="cls-9" points="267.16 3721.86 224.88 3764.03 203.8 3742.95 189.77 3756.97 224.88 3792.18 281.18 3735.88 267.16 3721.86"/>
        </g>
      </g>
    </g>
  </g>
</svg>