<?xml version="1.0" encoding="UTF-8"?>
<svg id="Layer_2" data-name="Layer 2" xmlns="http://www.w3.org/2000/svg" viewBox="0 0 96.78 96.78">
  <defs>
    <style>
      .cls-1 {
        fill: none;
        stroke: #efefef;
        stroke-miterlimit: 10;
      }

      .cls-2 {
        fill: #ff7f00;
      }

      .cls-2, .cls-3 {
        stroke-width: 0px;
      }

      .cls-3 {
        fill: #21255e;
      }
    </style>
  </defs>
  <g id="Layer_1-2" data-name="Layer 1">
    <g>
      <g>
        <path class="cls-2" d="M82.05,57.58c-1.44-.69-1.91-1.59-2.14-3.04-1.26-8.09-5.2-14.66-11.61-19.68-1.89-1.48-4.06-2.61-6.47-4.15-.32,2.47-.57,4.73-.85,6.9,0,.04,0,.07,0,.1l-.75,5.78c-.09.7-.68,1.21-1.34,1.17l-.86-.05c-.66-.04-1.18-.62-1.19-1.32l-.03-5.83c0-.13.01-.25.04-.36,0-2.41.02-4.82,0-7.23-.02-2.6-.93-3.88-3.5-4.08-3.2-.25-6.44-.25-9.63-.03-2.71.19-3.59,1.43-3.61,4.2-.03,3.91,0,7.81-.01,11.72,0,1.29.11,2.81-1.7,2.85-1.63.04-1.67-1.39-1.83-2.6-.46-3.56-.95-7.11-1.49-11.12-10.21,5.19-16.34,12.83-18.19,23.69-.25,1.46-.65,2.38-2.08,3.07-3.06,1.48-4.32,4.44-3.55,7.69h74.4c.48-3.64-.64-6.25-3.6-7.66Z"/>
        <rect class="cls-3" x="11.06" y="67.44" width="74.66" height="4.61" rx="1.6" ry="1.6"/>
      </g>
      <rect class="cls-1" x=".5" y=".5" width="95.78" height="95.78" rx="12.22" ry="12.22"/>
    </g>
  </g>
</svg>