<?xml version="1.0" encoding="UTF-8"?>
<svg id="Layer_2" data-name="Layer 2" xmlns="http://www.w3.org/2000/svg" viewBox="0 0 96.78 96.78">
  <defs>
    <style>
      .cls-1 {
        fill: none;
        stroke: #efefef;
        stroke-miterlimit: 10;
      }

      .cls-2 {
        fill: #ff7f00;
      }

      .cls-2, .cls-3 {
        stroke-width: 0px;
      }

      .cls-3 {
        fill: #21255e;
      }
    </style>
  </defs>
  <g id="Layer_1-2" data-name="Layer 1">
    <g>
      <g>
        <g>
          <path class="cls-3" d="M37.47,55.39l1.4,5.89s2.34-2.17,1.6-5.28c-.74-3.11-3.86-4.23-4.71-4.18l-4.28-18.09s3.25-1.95,2.36-5.72c-.8-3.36-3.84-4.12-3.84-4.12l1.4,5.89-5.25,1.25-1.4-5.89s-2.4,1.92-1.6,5.28c.8,3.36,3.83,4.08,4.71,4.18l4.27,18.09s-3.25,1.97-2.33,5.85c.78,3.27,3.81,4,3.81,4l-1.41-5.94,5.26-1.2Z"/>
          <path class="cls-3" d="M33.79,51.64c-.75.18-1.5-.3-1.68-1.06l-3.29-14.01c-.18-.76.28-1.52,1.03-1.69.75-.18,1.5.3,1.68,1.06l3.29,14.01c.18.76-.28,1.52-1.03,1.69Z"/>
          <path class="cls-3" d="M30,35.51c-.4.09-.65.5-.55.91l3.29,14.01c.1.41.5.66.9.57.4-.09.65-.5.56-.91l-3.29-14.01c-.1-.41-.5-.66-.9-.57Z"/>
          <path class="cls-3" d="M25.51,32.01l6.96-1.65-1.44-6.05c-.57-.31-1-.42-1-.42l1.4,5.89-5.26,1.25-1.4-5.89s-.34.27-.72.79l1.45,6.09Z"/>
          <path class="cls-3" d="M25.4,32.17l7.24-1.72-1.44-6.06-.17-.09,1.44,6.05-6.96,1.65-1.45-6.09s-.07.1-.11.15l1.45,6.1Z"/>
          <path class="cls-3" d="M38.11,54.42l-6.96,1.65,1.44,6.05c.57.31,1,.42,1,.42l-1.4-5.89,5.25-1.25,1.4,5.89s.34-.27.72-.78l-1.45-6.09Z"/>
          <path class="cls-3" d="M38.22,54.26l-7.24,1.72,1.44,6.06.17.09-1.44-6.05,6.96-1.65,1.45,6.09s.07-.1.11-.15l-1.45-6.1Z"/>
        </g>
        <g>
          <path class="cls-3" d="M42.98,51.61c-.08-1.38.05-13.88.05-13.88h-1.14s-.02,13.07-.08,13.87c-.09,1.38-.36,2.15-.36,3.1l-.02,4.22h1.85s.02-4.21.02-4.21c0-.95-.25-1.73-.33-3.1Z"/>
          <path class="cls-3" d="M45.94,28.82c.06-1.44,0-9.28,0-9.28,0,0,.1-1.19-.89-1.67-.57-.28-1.51-.59-2.47-.62h0c-.96.02-1.91.32-2.48.59-1,.47-.91,1.66-.91,1.66,0,0-.15,7.84-.12,9.28.04,1.44.36,2.01.92,3.57.56,1.57-.52,3.29-.52,3.29-.35.25-.45,1.06-.36,1.8.14,1.03,2.03,1.44,3.02,1.51.1,0,.21,0,.31,0h0c.1,0,.21,0,.31,0,1-.06,2.88-.45,3.04-1.47.11-.7.02-1.54-.34-1.8,0,0-1.06-1.74-.48-3.29.58-1.56.9-2.13.96-3.56Z"/>
          <path class="cls-3" d="M43.26,30c0,.76-.63,1.38-1.39,1.38h0c-.76,0-1.38-.63-1.38-1.39l.06-10.72c0-.76.63-1.38,1.39-1.38h0c.76,0,1.38.63,1.38,1.39l-.06,10.72Z"/>
          <path class="cls-3" d="M44.53,36.79v1.82c.64-.23,1.19-.59,1.28-1.13.11-.7.02-1.54-.33-1.8,0,0-.04-.06-.09-.16-.5.21-.85.7-.86,1.27Z"/>
          <path class="cls-3" d="M44.63,19.29l-.06,10.72c0,.57.34,1.07.84,1.28.32-.84.5-1.42.54-2.46.06-1.44,0-9.28,0-9.28,0,0,.08-.92-.58-1.47-.43.23-.73.69-.73,1.21Z"/>
          <path class="cls-3" d="M43.22,36.79c0-.76-.61-1.39-1.38-1.39-.76,0-1.39.61-1.39,1.38v1.84c.57.2,1.22.31,1.68.34.1,0,.21,0,.31,0,.1,0,.21,0,.31,0,.13,0,.29-.02.45-.04v-2.12Z"/>
        </g>
        <g>
          <path class="cls-3" d="M54.36,27.01l-1.17-1.16-.41-3.85s-2.12,1.2-2.51,6.12l4.09-1.11Z"/>
          <polygon class="cls-3" points="54.32 27.1 53.12 25.92 52.7 22.06 52.92 21.85 53.35 25.81 54.49 26.94 54.32 27.1"/>
          <path class="cls-3" d="M51.67,60.29l3.77-26.19-4.32-.72-4.94,25.99h0c-.24,1.51.78,2.93,2.28,3.18,1.51.25,2.93-.76,3.19-2.26h0Z"/>
          <path class="cls-3" d="M60.35,25.1c-1.15-1.28-4.27-3.63-4.27-3.63l.71,3.8-1.33,1.47-6.24,1.55,1.88,5.12,4.32.72,4.77-6.02s1.31-1.73.16-3.01Z"/>
          <g>
            <rect class="cls-3" x="51.5" y="28.53" width="3.95" height="3.39" transform="translate(-5.96 14.7) rotate(-14.84)"/>
            <g>
              <path class="cls-3" d="M52.62,31.76c.03.12-.04.24-.16.27h0c-.12.03-.24-.04-.27-.16l-.65-2.45c-.03-.12.04-.24.16-.27h0c.12-.03.24.04.27.16l.65,2.45Z"/>
              <path class="cls-3" d="M53.32,31.58c.03.12-.04.24-.16.27h0c-.12.03-.24-.04-.27-.16l-.65-2.45c-.03-.12.04-.24.16-.27h0c.12-.03.24.04.27.16l.65,2.45Z"/>
              <path class="cls-3" d="M54.03,31.39c.03.12-.04.24-.16.27h0c-.12.03-.24-.04-.27-.16l-.65-2.45c-.03-.12.04-.24.16-.27h0c.12-.03.24.04.27.16l.65,2.45Z"/>
              <path class="cls-3" d="M54.73,31.21c.03.12-.04.24-.16.27h0c-.12.03-.24-.04-.27-.16l-.65-2.45c-.03-.12.04-.24.16-.27h0c.12-.03.24.04.27.16l.65,2.45Z"/>
              <path class="cls-3" d="M55.43,31.02c.03.12-.04.24-.16.27h0c-.12.03-.24-.04-.27-.16l-.65-2.45c-.03-.12.04-.24.16-.27h0c.12-.03.24.04.27.16l.65,2.45Z"/>
            </g>
          </g>
          <g>
            <path class="cls-3" d="M50.86,59.81c-.1.6-.29,1.99-2.13,1.68h0c-1.68-.29-1.55-1.68-1.45-2.28l4.61-23.55c.1-.6.69-1.01,1.31-.9h0c.62.1,1.04.68.94,1.28l-3.27,23.77Z"/>
            <path class="cls-3" d="M53.06,35.55c-.31-.05-.61.15-.66.46l-4.47,23.22c-.15.92.12,1.37.93,1.51l.19.03c.32.03.57-.02.74-.14.32-.22.4-.68.45-.99l.22-1.31,3.08-22.12c.05-.32-.16-.6-.47-.66Z"/>
          </g>
          <polygon class="cls-3" points="49.29 28.5 49.23 28.28 55.42 26.74 56.68 25.34 55.93 21.35 56.21 21.57 56.93 25.41 55.54 26.94 49.29 28.5"/>
        </g>
        <g>
          <g>
            <path class="cls-3" d="M69.2,24.2l.24-.12-.19-.06-.31-.1-.31-.1-4.49,5.97-1.13,3.68s.89,1.05,1.17,1.36c.86.94,1.52-.88,1.52-.88l1.69-5.01h0s.18-.37.18-.37l-.22-.23.18-.28-.18-.29.31-.16-.11-.27.28-.09-.02-.41.3.02.06-.35.32.09.11-.33.23-.11-.14-.23.24-.12-.14-.23.24-.12-.14-.23.24-.12-.14-.23.24-.12-.14-.23.24-.12-.14-.23Z"/>
            <path class="cls-3" d="M69.79,24.38l-.14-.23.2.06.31.1.31.1.36,7.46-1.13,3.68s-1.32.37-1.73.46c-1.24.29-.76-1.58-.76-1.58l1.42-5.1h0s.06-.41.06-.41l.31-.06v-.33s.32-.13.32-.13l-.16-.3.24-.16-.18-.23.25-.33-.25-.15.15-.32-.31-.1.09-.34-.13-.22.24-.12-.14-.23.24-.12-.14-.23.24-.12-.14-.23.24-.12-.14-.23.24-.12-.14-.23.24-.12Z"/>
          </g>
          <polygon class="cls-3" points="65.51 38.55 67.68 38.59 67.69 36.74 65.52 36.7 65.51 38.55"/>
          <path class="cls-3" d="M68.64,40.58l-.87-2.19-2.47-.07-.51,1.68s1.76,2.37.03,7.89c-1.41,4.5-5.2,11.03-3.26,11.63,2.23.69,6.04-8.35,6.15-14.94,0,0-.33-3.49.94-3.99Z"/>
          <g>
            <polygon class="cls-3" points="64.77 38.33 62.96 37.14 63.98 35.6 65.8 36.79 64.77 38.33"/>
            <path class="cls-3" d="M61.04,38.24l1.95-1.32,2.08,1.34-.52,1.68s-2.79.97-4.46,6.5c-1.36,4.51-1.91,12.05-3.85,11.45-2.23-.69-.3-10.31,3.33-15.81,0,0,2.23-2.7,1.47-3.83Z"/>
          </g>
          <polygon class="cls-3" points="67.68 37.6 69.7 35.54 70.83 31.86 70.46 31.97 68.69 35.74 67.68 36.87 67.68 37.6"/>
          <polygon class="cls-3" points="63.5 36.34 62.99 33.51 64.13 29.83 64.37 30.13 63.72 34.24 63.91 35.75 63.5 36.34"/>
          <path class="cls-3" d="M68.92,35.35c-.44,1.43-1.95,2.23-3.38,1.79-1.43-.44-2.23-1.95-1.79-3.38.44-1.43,1.95-2.23,3.38-1.79,1.43.44,2.23,1.95,1.79,3.38Z"/>
          <path class="cls-3" d="M67.74,34.99c-.23.76-1.04,1.18-1.79.95-.76-.23-1.18-1.03-.95-1.79.23-.76,1.04-1.18,1.79-.95.76.23,1.18,1.03.95,1.79Z"/>
          <path class="cls-3" d="M67.66,45.77c-1.22,4.54-4.24,9.18-5.54,11.18-.77,1.19-.78,2.02-.6,2.54.02,0,.03.02.05.02,2.1.65,5.6-7.32,6.09-13.75Z"/>
          <path class="cls-3" d="M58.96,43.09c-1.54,4.44-1.66,9.97-1.71,12.36-.03,1.42-.49,2.11-.93,2.44-.02,0-.04,0-.05,0-2.1-.65-.51-9.2,2.7-14.79Z"/>
        </g>
        <g>
          <rect class="cls-2" x="24.15" y="40.97" width="47.97" height="5.5"/>
          <rect class="cls-2" x="24.88" y="55.2" width="47.25" height="22.17"/>
          <g>
            <rect class="cls-2" x="24.37" y="56.05" width="47.99" height="1.04"/>
            <rect class="cls-2" x="24.37" y="58.44" width="47.99" height="1.04"/>
            <rect class="cls-2" x="24.37" y="60.83" width="47.99" height="1.04"/>
            <rect class="cls-2" x="24.37" y="63.22" width="47.99" height="1.04"/>
            <rect class="cls-2" x="24.37" y="65.61" width="47.99" height="1.04"/>
            <rect class="cls-2" x="24.37" y="68" width="47.99" height="1.04"/>
            <rect class="cls-2" x="24.37" y="70.39" width="47.99" height="1.04"/>
            <rect class="cls-2" x="24.37" y="72.78" width="47.99" height="1.04"/>
          </g>
          <path class="cls-2" d="M26.42,79.53h-3.64v-39.5s-.15-2.27,1.82-2.27,1.82,2.27,1.82,2.27v39.5Z"/>
          <path class="cls-2" d="M74,79.53h-3.64v-39.5s-.15-2.27,1.82-2.27,1.82,2.27,1.82,2.27v39.5Z"/>
          <g>
            <g>
              <path class="cls-2" d="M73.32,57.1c0,.6-.48,1.08-1.08,1.08s-1.08-.48-1.08-1.08.48-1.08,1.08-1.08,1.08.48,1.08,1.08Z"/>
              <polygon class="cls-2" points="72.42 56.92 72.94 57.1 72.42 57.27 72.24 57.79 72.07 57.27 71.55 57.1 72.07 56.92 72.24 56.41 72.42 56.92"/>
            </g>
            <g>
              <path class="cls-2" d="M73.32,75.43c0,.6-.48,1.08-1.08,1.08s-1.08-.48-1.08-1.08.48-1.08,1.08-1.08,1.08.48,1.08,1.08Z"/>
              <polygon class="cls-2" points="72.42 75.26 72.94 75.43 72.42 75.61 72.24 76.13 72.07 75.61 71.55 75.43 72.07 75.26 72.24 74.74 72.42 75.26"/>
            </g>
          </g>
          <g>
            <g>
              <path class="cls-2" d="M25.56,57.1c0,.6-.48,1.08-1.08,1.08s-1.08-.48-1.08-1.08.48-1.08,1.08-1.08,1.08.48,1.08,1.08Z"/>
              <polygon class="cls-2" points="24.66 56.92 25.18 57.1 24.66 57.27 24.49 57.79 24.31 57.27 23.79 57.1 24.31 56.92 24.49 56.41 24.66 56.92"/>
            </g>
            <g>
              <path class="cls-2" d="M25.56,75.43c0,.6-.48,1.08-1.08,1.08s-1.08-.48-1.08-1.08.48-1.08,1.08-1.08,1.08.48,1.08,1.08Z"/>
              <polygon class="cls-2" points="24.66 75.26 25.18 75.43 24.66 75.61 24.49 76.13 24.31 75.61 23.79 75.43 24.31 75.26 24.49 74.74 24.66 75.26"/>
            </g>
          </g>
          <rect class="cls-2" x="26.42" y="75.1" width="43.96" height="2.39"/>
        </g>
      </g>
      <rect class="cls-1" x=".5" y=".5" width="95.78" height="95.78" rx="12.22" ry="12.22"/>
    </g>
  </g>
</svg>