<?xml version="1.0" encoding="UTF-8"?>
<svg id="Layer_2" data-name="Layer 2" xmlns="http://www.w3.org/2000/svg" viewBox="0 0 96.78 96.78">
  <defs>
    <style>
      .cls-1 {
        fill: none;
        stroke: #efefef;
        stroke-miterlimit: 10;
      }

      .cls-2 {
        fill: #21255e;
      }

      .cls-2, .cls-3 {
        stroke-width: 0px;
      }

      .cls-3 {
        fill: #ff7f00;
        fill-rule: evenodd;
      }
    </style>
  </defs>
  <g id="Layer_1-2" data-name="Layer 1">
    <g>
      <g>
        <path class="cls-3" d="M24.71,22.57c3.87,9.54,7.25,18.97-3.24,25.32l.02,5.75,25.51.02v-4.56h-4.38v-5.65h4.38v-18.53c-2.55-.37-5.12-1.6-7.37-4.01-6.09-3.45-11.7-1.6-14.92,1.67h0ZM21.49,56.41l.02,8.94,25.48.02v-8.92l-25.51-.05ZM21.52,68.13v6.42c7.99,8.39,16.63,7.18,25.48,2.94v-9.31l-25.48-.05ZM49.8,77.4c7.95,3.87,16.33,3.73,25.34-2.15l.05-7.04-25.39-.02v9.22ZM75.22,65.4l.05-8.92-25.46-.02v8.92l25.41.02ZM75.28,53.68l.02-6.28c-6.93-3.31-7.62-12.28-3.43-25.62-4.96-2.69-10.05-4.29-13.83-.67-2.11,2.08-5.07,3.59-8.25,3.87v18.46h4.38v5.65h-4.38v4.56l25.48.02Z"/>
        <rect class="cls-2" x="41.89" y="42.93" width="13" height="7"/>
      </g>
      <rect class="cls-1" x=".5" y=".5" width="95.78" height="95.78" rx="12.22" ry="12.22"/>
    </g>
  </g>
</svg>