<?xml version="1.0" encoding="UTF-8"?>
<svg id="Layer_2" data-name="Layer 2" xmlns="http://www.w3.org/2000/svg" viewBox="0 0 96.78 96.78">
  <defs>
    <style>
      .cls-1 {
        fill: none;
        stroke: #efefef;
        stroke-miterlimit: 10;
      }

      .cls-2 {
        fill: #ff7f00;
      }

      .cls-2, .cls-3 {
        stroke-width: 0px;
      }

      .cls-3 {
        fill: #21255e;
      }
    </style>
  </defs>
  <g id="Layer_1-2" data-name="Layer 1">
    <g>
      <g>
        <path class="cls-2" d="M22.57,80.18c1.42,1.38,3.68,1.35,5.06-.06l40.15-41.19,2.53.3,1.85-1.89s-8.04-8.92-7.6-9.37l-2.29,1.46-.43,1.11-5.21,5.35.05,4.18-34.18,35.06c-1.38,1.42-1.35,3.68.06,5.06ZM23.43,79.07c-.92-.9-.94-2.38-.04-3.3s2.38-.94,3.3-.04.94,2.38.04,3.3-2.38.94-3.3.04Z"/>
        <path class="cls-2" d="M34.23,48.82l27.7-28.41s3.7-3.57,7.6.67c3.91,4.24,3.46,4.03,4.26,6.33s1.5,5.37,1.5,5.37l-1.73,2.66-9.01-7.48-.89-.65s-.99-.1-2.51,1.46-23.14,23.73-23.14,23.73c0,0-2.19,1.13-3.41-.07-1.56-1.52-.38-3.63-.38-3.63Z"/>
        <path class="cls-3" d="M59.8,52.02c1.23-1.18,1.08-1.99,1.08-1.99l-2.16-5.8s-.15-2.97,1.26-4.42c.52-.53,1.55-1.59,2.06-2.12,1.85-1.89-1.16-5.05-1.16-5.05l-7.69-7.49s-4.82,2.4-7.53,5.27c-2.47,2.62-4.09,7.31-4.09,7.31l15.93,15.53c-.18.18.82.18,2.3-1.24ZM57.74,36.75c-.68-.66-.69-1.74-.03-2.42s1.74-.69,2.42-.03.69,1.74.03,2.42-1.74.69-2.42.03ZM44.71,33.61l3.8-3.9,7.47,7.28-3.8,3.9-7.47-7.28Z"/>
        <rect class="cls-3" x="48.19" y="30.74" width="4.2" height="9.03" rx="1.46" ry="1.46" transform="translate(-10.05 46.65) rotate(-45.73)"/>
      </g>
      <rect class="cls-1" x=".5" y=".5" width="95.78" height="95.78" rx="12.22" ry="12.22"/>
    </g>
  </g>
</svg>